<svg width="40" height="40" viewBox="0 0 40 40" fill="none" xmlns="http://www.w3.org/2000/svg">
<path id="Subtract" fill-rule="evenodd" clip-rule="evenodd" d="M20 40C31.0457 40 40 31.0457 40 20C40 8.95431 31.0457 0 20 0C8.95431 0 0 8.95431 0 20C0 31.0457 8.95431 40 20 40ZM30.2789 15.5113C27.9321 14.6336 26.6141 14.2103 24.7259 14.0326C24.2086 13.9839 23.7498 14.3637 23.7011 14.881C23.6524 15.3983 24.0323 15.8571 24.5496 15.9058C25.5547 16.0004 26.3683 16.1694 27.3869 16.4879C26.786 16.757 26.2887 16.9931 25.8411 17.2394C24.9006 17.7568 24.1743 18.3191 23.1175 19.2861C22.7342 19.6369 22.7078 20.2319 23.0585 20.6152C23.4093 20.9986 24.0043 21.025 24.3877 20.6742C25.3868 19.76 25.989 19.3055 26.7481 18.8878C27.2778 18.5963 27.8824 18.3226 28.7534 17.9413C28.5616 18.9044 28.3101 19.6561 27.8488 20.6508C27.6303 21.1221 27.8352 21.6814 28.3065 21.9C28.7779 22.1186 29.3372 21.9137 29.5558 21.4423C30.3561 19.7163 30.6121 18.568 30.8821 16.5151C30.9392 16.0809 30.6891 15.6647 30.2789 15.5113ZM16.0436 25.8259C15.8281 25.1654 16.4099 24.5888 17.1046 24.5888H22.8618C23.5565 24.5888 24.1383 25.1654 23.9229 25.8259C23.8881 25.9326 23.8487 26.038 23.8049 26.1419C23.597 26.6343 23.2923 27.0817 22.9082 27.4585C22.5241 27.8354 22.0681 28.1343 21.5662 28.3383C21.0643 28.5423 20.5264 28.6472 19.9832 28.6472C19.44 28.6472 18.9021 28.5423 18.4002 28.3383C17.8984 28.1343 17.4424 27.8354 17.0582 27.4585C16.6741 27.0817 16.3694 26.6343 16.1616 26.1419C16.1177 26.038 16.0784 25.9326 16.0436 25.8259ZM9.43059 15.5925C11.1547 14.8023 12.5077 14.5099 14.979 14.0966C15.4109 14.0243 15.8356 14.2597 16.0033 14.6643C16.7959 16.5772 17.1484 17.6996 17.3182 19.5945C17.3646 20.112 16.9827 20.5692 16.4652 20.6155C15.9477 20.6619 15.4906 20.28 15.4442 19.7625C15.3463 18.6705 15.1883 17.8937 14.8729 16.9638C14.3092 17.7294 13.9225 18.2688 13.6095 18.7862C13.1609 19.5273 12.8667 20.2221 12.4585 21.5134C12.3019 22.0089 11.7733 22.2835 11.2779 22.1269C10.7825 21.9703 10.5079 21.4418 10.6645 20.9464C11.0962 19.5805 11.444 18.7304 11.9997 17.8121C12.2643 17.3749 12.5769 16.9218 12.9628 16.3884C11.9214 16.6218 11.1323 16.8823 10.2145 17.3029C9.74216 17.5194 9.18379 17.312 8.96732 16.8396C8.75085 16.3673 8.95827 15.8089 9.43059 15.5925Z" fill="#2458DB"/>
</svg>
