<svg width="20" height="21" viewBox="0 0 20 21" fill="none" xmlns="http://www.w3.org/2000/svg">
<path d="M13.335 11.75C13.335 12.0815 13.4667 12.3995 13.7011 12.6339C13.9355 12.8683 14.2534 13 14.585 13C14.9165 13 15.2344 12.8683 15.4688 12.6339C15.7033 12.3995 15.835 12.0815 15.835 11.75C15.835 11.4185 15.7033 11.1005 15.4688 10.8661C15.2344 10.6317 14.9165 10.5 14.585 10.5C14.2534 10.5 13.9355 10.6317 13.7011 10.8661C13.4667 11.1005 13.335 11.4185 13.335 11.75Z" stroke="#576175" stroke-width="1.5" stroke-linecap="round" stroke-linejoin="round"/>
<path d="M1.66866 9.66667C1.66866 6.52417 1.66866 4.9525 2.64533 3.97667C3.62199 3.00083 5.19199 3 8.33533 3H11.6687C12.4437 3 12.8312 3 13.1487 3.085C13.5727 3.19854 13.9594 3.42175 14.2698 3.73217C14.5802 4.04259 14.8034 4.42927 14.917 4.85333C15.002 5.17083 15.002 5.55833 15.002 6.33333M8.33533 6.33333H13.3353C15.692 6.33333 16.8712 6.33333 17.6028 7.06583C18.3353 7.7975 18.3353 8.97667 18.3353 11.3333V13C18.3353 15.3567 18.3353 16.5358 17.6028 17.2675C16.8712 18 15.692 18 13.3353 18H10.4178M8.33366 14.6667H5.00033M5.00033 14.6667H1.66699M5.00033 14.6667V18M5.00033 14.6667V11.3333" stroke="#576175" stroke-width="1.5" stroke-linecap="round" stroke-linejoin="round"/>
</svg>
