<svg width="19" height="18" viewBox="0 0 19 18" fill="none" xmlns="http://www.w3.org/2000/svg">
<path id="Vector" d="M1.5 16.1579C1.49993 14.8613 1.85531 13.5923 2.52348 12.5031C3.19164 11.4138 4.14422 10.5507 5.26688 10.0173C6.38954 9.48383 7.63459 9.30274 8.85261 9.49573C10.0706 9.68872 11.2099 10.2476 12.1336 11.1053M15.1 11.9474V17M17.5 14.4737H12.7M11.9 5.21053C11.9 7.53594 10.1091 9.42105 7.9 9.42105C5.69086 9.42105 3.9 7.53594 3.9 5.21053C3.9 2.88512 5.69086 1 7.9 1C10.1091 1 11.9 2.88512 11.9 5.21053Z" stroke="black" stroke-width="2" stroke-linecap="round" stroke-linejoin="round"/>
</svg>
