<svg width="98" height="63" viewBox="0 0 98 63" fill="none" xmlns="http://www.w3.org/2000/svg">
<path d="M60.3743 33.1153C51.4898 23.877 45.2258 18.6368 37.5579 15.9401C30.48 13.4508 22.4543 13.8882 15.7424 17.2415C12.7554 18.7339 10.5041 20.5989 8.60508 23.1501C5.73854 27.0009 4.26352 31.7786 4.03124 36.5736C3.70494 43.3094 5.91785 47.8319 11.4567 51.7029C18.9653 56.9504 28.5952 58.1079 37.7104 57.1985C43.8793 56.5829 49.6512 55.446 57.4696 53.5461C69.4337 51.0797 76.7906 51.83 91.7468 59.259" stroke="#4B4B4B" stroke-width="6.97163" stroke-linecap="round"/>
<path d="M46.3337 13.3606V4.71845C46.3337 3.96402 47.1611 3.49937 47.8135 3.87824C61.0649 11.5738 68.7662 11.3112 80.8518 3.93801C81.5046 3.53978 82.3538 4.00201 82.3538 4.76664V16.5042C82.3538 16.7832 82.2334 17.0487 82.0235 17.2326L68.3137 29.2405" stroke="#4B4B4B" stroke-width="6.19701" stroke-linecap="round"/>
<path opacity="0.5" d="M58.5472 16.8171V19.778" stroke="#0023AE" stroke-width="3.94788" stroke-linecap="round"/>
<path opacity="0.5" d="M69.4045 16.8171V19.778" stroke="#0023AE" stroke-width="3.94788" stroke-linecap="round"/>
</svg>
