<svg width="19" height="18" viewBox="0 0 19 18" fill="none" xmlns="http://www.w3.org/2000/svg">
<path id="Vector" d="M16.868 12.1146C16.3591 13.3185 15.5631 14.3793 14.5496 15.2044C13.5361 16.0294 12.3359 16.5936 11.0541 16.8475C9.77224 17.1015 8.44772 17.0375 7.19632 16.6611C5.94493 16.2847 4.80476 15.6075 3.87549 14.6885C2.94622 13.7696 2.25616 12.6369 1.86562 11.3896C1.47509 10.1423 1.39597 8.81822 1.6352 7.53323C1.87442 6.24825 2.4247 5.04145 3.23792 4.01833C4.05115 2.99521 5.10256 2.18693 6.30023 1.66416M17.5 9.00187C17.5 7.95105 17.2931 6.91052 16.891 5.93969C16.489 4.96885 15.8998 4.08674 15.1569 3.34369C14.414 2.60065 13.5322 2.01124 12.5616 1.60911C11.591 1.20697 10.5507 1 9.50016 1V9.00187H17.5Z" stroke="black" stroke-width="2" stroke-linecap="round" stroke-linejoin="round"/>
</svg>
