<svg width="45" height="44" viewBox="0 0 45 44" fill="none" xmlns="http://www.w3.org/2000/svg">
<path d="M22.5 0.125C18.1735 0.125 13.9442 1.40795 10.3469 3.8116C6.74959 6.21526 3.94581 9.63167 2.29015 13.6288C0.634478 17.6259 0.20128 22.0243 1.04533 26.2676C1.88938 30.5109 3.97278 34.4087 7.03205 37.468C10.0913 40.5272 13.9891 42.6106 18.2324 43.4547C22.4757 44.2987 26.8741 43.8655 30.8712 42.2099C34.8683 40.5542 38.2848 37.7504 40.6884 34.1531C43.0921 30.5558 44.375 26.3265 44.375 22C44.375 16.1984 42.0703 10.6344 37.968 6.53204C33.8656 2.42968 28.3016 0.125 22.5 0.125ZM19.375 30.7344L11.5625 22.9219L14.0469 20.4375L19.375 25.7656L30.9531 14.1875L33.4469 16.6656L19.375 30.7344Z" fill="#4AB964"/>
</svg>
