<svg width="95" height="95" viewBox="0 0 95 95" fill="none" xmlns="http://www.w3.org/2000/svg">
<path d="M47.5 8.90625C39.8669 8.90625 32.4052 11.1697 26.0585 15.4105C19.7118 19.6512 14.7651 25.6787 11.844 32.7308C8.92297 39.7829 8.15869 47.5428 9.64784 55.0293C11.137 62.5157 14.8127 69.3925 20.2101 74.7899C25.6075 80.1873 32.4843 83.863 39.9708 85.3522C47.4572 86.8413 55.2171 86.077 62.2692 83.156C69.3213 80.2349 75.3488 75.2882 79.5895 68.9415C83.8303 62.5948 86.0938 55.1331 86.0938 47.5C86.083 37.2676 82.0134 27.4574 74.778 20.222C67.5426 12.9866 57.7324 8.91706 47.5 8.90625ZM64.4442 40.6941L43.6629 61.4754C43.3872 61.7514 43.0598 61.9704 42.6994 62.1198C42.339 62.2692 41.9527 62.3461 41.5625 62.3461C41.1724 62.3461 40.7861 62.2692 40.4257 62.1198C40.0653 61.9704 39.7378 61.7514 39.4621 61.4754L30.5559 52.5691C29.9988 52.0121 29.6859 51.2565 29.6859 50.4688C29.6859 49.681 29.9988 48.9254 30.5559 48.3684C31.1129 47.8113 31.8685 47.4983 32.6563 47.4983C33.4441 47.4983 34.1996 47.8113 34.7567 48.3684L41.5625 55.1779L60.2434 36.4934C60.5192 36.2175 60.8467 35.9987 61.207 35.8495C61.5674 35.7002 61.9537 35.6233 62.3438 35.6233C62.7338 35.6233 63.1201 35.7002 63.4805 35.8495C63.8409 35.9987 64.1683 36.2175 64.4442 36.4934C64.72 36.7692 64.9388 37.0966 65.0881 37.457C65.2373 37.8174 65.3142 38.2037 65.3142 38.5938C65.3142 38.9838 65.2373 39.3701 65.0881 39.7305C64.9388 40.0909 64.72 40.4183 64.4442 40.6941Z" fill="#47A347"/>
</svg>
