<svg width="21" height="20" viewBox="0 0 21 20" fill="none" xmlns="http://www.w3.org/2000/svg">
<path d="M15.75 6.66658H14.875V4.99992C14.875 2.69992 12.915 0.833252 10.5 0.833252C8.085 0.833252 6.125 2.69992 6.125 4.99992V6.66658H5.25C4.2875 6.66658 3.5 7.41658 3.5 8.33325V16.6666C3.5 17.5833 4.2875 18.3333 5.25 18.3333H15.75C16.7125 18.3333 17.5 17.5833 17.5 16.6666V8.33325C17.5 7.41658 16.7125 6.66658 15.75 6.66658ZM10.5 14.1666C9.5375 14.1666 8.75 13.4166 8.75 12.4999C8.75 11.5833 9.5375 10.8333 10.5 10.8333C11.4625 10.8333 12.25 11.5833 12.25 12.4999C12.25 13.4166 11.4625 14.1666 10.5 14.1666ZM7.875 6.66658V4.99992C7.875 3.61659 9.0475 2.49992 10.5 2.49992C11.9525 2.49992 13.125 3.61659 13.125 4.99992V6.66658H7.875Z" fill="#979797"/>
</svg>
