<svg width="311" height="311" viewBox="0 0 311 311" fill="none" xmlns="http://www.w3.org/2000/svg">
<rect width="311" height="311" rx="30" fill="#EDF6FF"/>
<g clip-path="url(#clip0_1176_113)">
<mask id="mask0_1176_113" style="mask-type:luminance" maskUnits="userSpaceOnUse" x="56" y="56" width="200" height="200">
<path d="M256 56H56V256H256V56Z" fill="white"/>
</mask>
<g mask="url(#mask0_1176_113)">
<mask id="mask1_1176_113" style="mask-type:luminance" maskUnits="userSpaceOnUse" x="56" y="56" width="200" height="200">
<path d="M256 56H56V256H256V56Z" fill="white"/>
</mask>
<g mask="url(#mask1_1176_113)">
<path d="M106.86 66.8597C92.38 81.3394 92.38 104.816 106.86 119.295L137.247 149.683L147.734 139.196L117.347 108.808C108.659 100.12 108.659 86.0346 117.347 77.3468C126.034 68.659 140.12 68.659 148.808 77.3468L211.73 140.27C220.418 148.957 220.418 163.043 211.73 171.73C203.043 180.418 188.957 180.418 180.269 171.73L170.711 162.173L160.224 172.66L169.782 182.218C184.262 196.698 207.738 196.698 222.218 182.218C236.697 167.738 236.697 144.262 222.218 129.783L159.295 66.8597C144.815 52.3801 121.339 52.3801 106.86 66.8597Z" fill="#007CBF"/>
<path d="M143.564 156L106.86 192.705C92.3801 207.184 92.3801 230.66 106.86 245.14C121.339 259.62 144.816 259.62 159.295 245.14L201.268 203.167C194.846 203.881 188.306 203.285 182.08 201.381L148.808 234.653C140.121 243.341 126.034 243.341 117.347 234.653C108.659 225.965 108.659 211.88 117.347 203.192L180.27 140.27C183.354 137.185 187.119 135.196 191.081 134.302L179.543 122.764C176.02 124.509 172.717 126.848 169.783 129.783L154.052 145.513L154.027 145.488L143.54 155.975L143.564 156Z" fill="#007CBF"/>
</g>
</g>
</g>
<defs>
<clipPath id="clip0_1176_113">
<rect width="200" height="200" fill="white" transform="translate(56 56)"/>
</clipPath>
</defs>
</svg>
