<svg xmlns="http://www.w3.org/2000/svg" width="16" height="16" viewBox="0 0 16 16" fill="none">
  <path fill-rule="evenodd" clip-rule="evenodd" d="M14.3784 12.3401C14.1775 12.5313 13.8909 12.8035 13.8093 12.881C13.3782 13.2906 10.6685 12.6007 9.47724 11.4688L3.56399 5.84975C3.00508 5.31879 3.18554 4.0163 3.75372 3.80649C3.80632 3.78698 3.85606 3.76842 3.9031 3.75054L6.8526 6.51089C6.99229 6.64363 7.21879 6.64363 7.35863 6.51089L7.60295 6.27859C7.5435 6.21195 7.48321 6.14856 7.42177 6.09018C6.33403 5.05656 4.89207 3.68634 4.89207 3.68634C4.87054 3.66386 4.84959 3.64381 4.8292 3.62607C5.19582 3.31913 6.21387 2.49898 6.55084 2.57064C6.61213 2.58364 6.66957 2.61263 6.72346 2.6538C6.78005 2.6198 6.83393 2.58852 6.88424 2.56075C7.54721 2.1949 7.95859 2.03967 8.28302 2.287C8.60745 2.53434 8.3704 3.44592 8.93957 3.98677C9.50874 4.52776 9.85783 4.42197 10.3031 4.38296C10.8026 4.33921 11.4272 4.33217 11.7678 4.65589C12.2517 5.11575 11.6516 7.63689 12.4185 9.41725C12.8273 10.3665 13.9544 11.5934 14.2852 11.942C14.3391 11.9286 14.3974 11.9374 14.4548 11.9922C14.5786 12.1096 14.4919 12.2323 14.3784 12.3401Z" fill="#2B303B"/>
  <path d="M4.03144 12.6265C4.03144 12.4202 4.21197 12.253 4.43466 12.253H8.87015C9.09284 12.253 9.27337 12.4202 9.27337 12.6265C9.27337 12.8328 9.09284 13.0001 8.87015 13.0001H4.43466C4.21197 13.0001 4.03144 12.8328 4.03144 12.6265Z" fill="#2B303B"/>
  <path d="M2.01531 11.1323C2.01531 10.926 2.19584 10.7587 2.41854 10.7587H6.45079C6.67349 10.7587 6.85402 10.926 6.85402 11.1323C6.85402 11.3386 6.67349 11.5058 6.45079 11.5058H2.41854C2.19584 11.5058 2.01531 11.3386 2.01531 11.1323Z" fill="#2B303B"/>
</svg>