<svg width="78" height="78" viewBox="0 0 78 78" fill="none" xmlns="http://www.w3.org/2000/svg">
<g clip-path="url(#clip0_2140_4248)">
<path d="M37.6256 6.18672L37.6572 6.18498C45.9295 5.75895 54.574 8.80136 60.719 14.365C67.3817 20.3975 71.4169 28.4025 71.8545 37.4255C71.8678 37.6936 71.8779 37.9619 71.8846 38.2303C71.8914 38.4987 71.8948 38.7671 71.895 39.0356C71.8951 39.3041 71.892 39.5725 71.8855 39.8409C71.8791 40.1093 71.8693 40.3776 71.8563 40.6458C71.8432 40.9139 71.8269 41.1819 71.8072 41.4496C71.7876 41.7174 71.7646 41.9849 71.7384 42.2521C71.7122 42.5192 71.6827 42.7861 71.6499 43.0526C71.6171 43.319 71.581 43.585 71.5417 43.8506C71.5023 44.1162 71.4597 44.3813 71.4139 44.6458C71.368 44.9104 71.3189 45.1743 71.2666 45.4376C71.2142 45.7009 71.1586 45.9635 71.0998 46.2255C71.041 46.4875 70.979 46.7487 70.9137 47.0091C70.8485 47.2695 70.78 47.5291 70.7084 47.7879C70.6368 48.0466 70.562 48.3044 70.484 48.5613C70.406 48.8182 70.3248 49.0741 70.2406 49.3291C70.1563 49.584 70.0689 49.8378 69.9784 50.0906C69.8879 50.3433 69.7943 50.5949 69.6976 50.8454C69.6008 51.0959 69.501 51.3451 69.3982 51.593C69.2953 51.8411 69.1895 52.0878 69.0806 52.3331C68.9717 52.5786 68.8597 52.8226 68.7448 53.0652C68.6299 53.3079 68.512 53.549 68.3912 53.7888C68.2703 54.0285 68.1465 54.2667 68.0198 54.5034C67.8931 54.7401 67.7634 54.9752 67.631 55.2087C67.4985 55.4422 67.3631 55.6741 67.2249 55.9042C67.0867 56.1344 66.9457 56.3629 66.8018 56.5895C66.658 56.8163 66.5114 57.0412 66.3621 57.2643C66.2127 57.4874 66.0606 57.7086 65.9058 57.928C65.751 58.1473 65.5936 58.3647 65.4334 58.5802C65.2732 58.7957 65.1105 59.0091 64.9451 59.2206C64.7796 59.4321 64.6116 59.6415 64.4411 59.8489C64.2705 60.0562 64.0974 60.2614 63.9218 60.4645C63.7462 60.6676 63.5681 60.8684 63.3876 61.0672C63.2477 61.2206 63.1063 61.3727 62.9636 61.5235C62.8208 61.6743 62.6766 61.8237 62.531 61.9718C62.3854 62.1198 62.2384 62.2665 62.0901 62.4117C61.9417 62.557 61.7919 62.7009 61.6408 62.8433C61.4897 62.9858 61.3373 63.1268 61.1835 63.2663C61.0298 63.4059 60.8747 63.5439 60.7183 63.6805C60.5619 63.8172 60.4043 63.9523 60.2453 64.0859C60.0864 64.2196 59.9262 64.3517 59.7648 64.4823C59.6033 64.6129 59.4407 64.742 59.2768 64.8695C59.1129 64.997 58.9479 65.123 58.7816 65.2474C58.6154 65.3718 58.4479 65.4946 58.2793 65.6158C58.1107 65.7371 57.941 65.8567 57.7702 65.9748C57.5993 66.0928 57.4274 66.2092 57.2544 66.3239C57.0813 66.4387 56.9072 66.5518 56.732 66.6633C56.5568 66.7748 56.3805 66.8846 56.2033 66.9927C56.026 67.1009 55.8477 67.2073 55.6685 67.3121C55.4892 67.4169 55.3089 67.5199 55.1276 67.6213C54.9464 67.7226 54.7642 67.8223 54.5811 67.9202C54.398 68.0181 54.214 68.1142 54.029 68.2086C53.8441 68.3031 53.6583 68.3958 53.4716 68.4867C53.2849 68.5776 53.0974 68.6668 52.909 68.7541C52.7206 68.8415 52.5314 68.927 52.3414 69.0108C52.1514 69.0946 51.9606 69.1766 51.7691 69.2568C51.5775 69.337 51.3852 69.4153 51.1922 69.4918C50.9992 69.5684 50.8055 69.6431 50.611 69.7159C50.4166 69.7888 50.2215 69.8598 50.0257 69.929C49.8298 69.9982 49.6334 70.0655 49.4364 70.1309C49.2393 70.1964 49.0416 70.26 48.8434 70.3217C48.6451 70.3834 48.4463 70.4433 48.2469 70.5013C48.0475 70.5592 47.8475 70.6153 47.6471 70.6695C47.4466 70.7236 47.2457 70.7759 47.0442 70.8262C46.8428 70.8766 46.6409 70.9251 46.4385 70.9716C44.4295 71.4206 42.4137 71.6458 40.36 71.7423C38.6549 71.7855 36.934 71.7641 35.2366 71.5816C35.0227 71.5586 34.8092 71.5335 34.5958 71.5062C34.3825 71.4789 34.1694 71.4496 33.9567 71.4181C33.7439 71.3866 33.5315 71.353 33.3194 71.3173C33.1073 71.2815 32.8956 71.2437 32.6843 71.2039C32.4729 71.164 32.262 71.122 32.0515 71.0779C31.841 71.0338 31.631 70.9876 31.4214 70.9393C31.2118 70.8911 31.0027 70.8408 30.7942 70.7884C30.5855 70.736 30.3775 70.6815 30.17 70.6249C29.9625 70.5684 29.7555 70.5098 29.5492 70.4492C29.3428 70.3885 29.1371 70.3258 28.9321 70.2611C28.727 70.1964 28.5225 70.1297 28.3187 70.0608C28.1149 69.9921 27.9119 69.9213 27.7095 69.8485C27.5071 69.7757 27.3055 69.7009 27.1046 69.6241C26.9037 69.5472 26.7036 69.4684 26.5042 69.3876C26.3049 69.3069 26.1064 69.2241 25.9087 69.1394C25.7111 69.0547 25.5143 68.968 25.3183 68.8794C25.1223 68.7908 24.9273 68.7002 24.7331 68.6077C24.5389 68.5152 24.3457 68.4208 24.1534 68.3245C23.9611 68.2282 23.7698 68.1299 23.5795 68.0298C23.3891 67.9297 23.1998 67.8277 23.0114 67.7238C22.8232 67.6199 22.6359 67.5142 22.4497 67.4066C22.2634 67.299 22.0783 67.1895 21.8942 67.0783C21.7102 66.967 21.5273 66.8539 21.3455 66.739C21.1636 66.6241 20.983 66.5074 20.8035 66.3889C20.624 66.2704 20.4457 66.1502 20.2687 66.0282C20.0915 65.9061 19.9156 65.7824 19.741 65.6569C19.5663 65.5314 19.3929 65.4041 19.2208 65.2752C19.0487 65.1462 18.8779 65.0155 18.7083 64.8832C18.5388 64.7509 18.3706 64.6169 18.2037 64.4812C18.0368 64.3455 17.8713 64.2081 17.7072 64.0692C17.543 63.9302 17.3803 63.7897 17.219 63.6475C17.0576 63.5053 16.8976 63.3615 16.7392 63.2161C16.541 63.0364 16.3451 62.8543 16.1515 62.6698C15.9579 62.4853 15.7665 62.2984 15.5775 62.1092C15.3884 61.9199 15.2018 61.7283 15.0174 61.5345C14.8332 61.3406 14.6513 61.1445 14.4718 60.9462C14.2924 60.7479 14.1154 60.5474 13.9408 60.3447C13.7663 60.1419 13.5944 59.9371 13.4249 59.7301C13.2555 59.5232 13.0886 59.3142 12.9242 59.1031C12.76 58.892 12.5983 58.679 12.4392 58.4639C12.2802 58.2488 12.1238 58.0318 11.9702 57.8129C11.8165 57.5939 11.6655 57.3732 11.5173 57.1505C11.369 56.9279 11.2236 56.7034 11.0809 56.4772C10.9382 56.251 10.7983 56.023 10.6612 55.7933C10.5242 55.5636 10.39 55.3322 10.2586 55.0992C10.1272 54.8662 9.99878 54.6316 9.87325 54.3955C9.74766 54.1593 9.62503 53.9216 9.50534 53.6824C9.38565 53.4432 9.26892 53.2025 9.15517 52.9604C9.04137 52.7183 8.93062 52.4749 8.82291 52.2301C8.71515 51.9853 8.61042 51.7391 8.5087 51.4917C8.40704 51.2443 8.30845 50.9957 8.21293 50.7459C8.11736 50.496 8.02491 50.2451 7.93559 49.993C7.84626 49.7409 7.76004 49.4877 7.67691 49.2334C7.59383 48.9791 7.51389 48.7239 7.43709 48.4677C7.3603 48.2115 7.28668 47.9543 7.21623 47.6963C7.14579 47.4383 7.07853 47.1794 7.01447 46.9197C6.95042 46.66 6.88957 46.3995 6.83194 46.1384C6.77431 45.8772 6.71992 45.6153 6.66875 45.3527C6.61758 45.0902 6.56966 44.8271 6.52499 44.5633C6.48032 44.2996 6.43891 44.0354 6.40076 43.7707C6.36261 43.5059 6.32774 43.2407 6.29613 42.9751C6.26453 42.7095 6.23621 42.4435 6.21117 42.1772C6.18613 41.9109 6.16438 41.6443 6.14592 41.3775C6.12746 41.1106 6.1123 40.8436 6.10043 40.5764C6.08766 40.3081 6.07818 40.0396 6.07199 39.7711C6.06579 39.5026 6.06289 39.234 6.06327 38.9654C6.06366 38.6968 6.06734 38.4282 6.0743 38.1597C6.08127 37.8911 6.09152 37.6227 6.10505 37.3545C6.11859 37.0862 6.13542 36.8181 6.15553 36.5502C6.17563 36.2824 6.19901 36.0148 6.22567 35.7475C6.25233 35.4802 6.28226 35.2133 6.31546 34.9467C6.34866 34.6802 6.38512 34.4141 6.42483 34.1485C6.46455 33.8828 6.50751 33.6177 6.55373 33.3531C6.59994 33.0885 6.64938 32.8244 6.70206 32.561C6.75474 32.2976 6.81064 32.0349 6.86975 31.7729C6.92887 31.5109 6.99118 31.2496 7.05669 30.9891C7.12221 30.7286 7.1909 30.4689 7.26278 30.2102C7.33465 29.9513 7.40969 29.6934 7.48788 29.4364C7.56607 29.1794 7.64739 28.9235 7.73183 28.6684C7.81633 28.4135 7.9039 28.1596 7.99454 27.9067C8.08524 27.6539 8.17901 27.4022 8.27585 27.1516C8.37274 26.9011 8.47265 26.6517 8.57558 26.4036C8.67852 26.1556 8.7845 25.9088 8.89352 25.6632C9.0025 25.4177 9.1145 25.1736 9.22952 24.9308C9.34449 24.6881 9.46243 24.4468 9.58334 24.2069C9.7042 23.967 9.828 23.7286 9.95475 23.4918C10.0814 23.2549 10.2111 23.0197 10.3436 22.7861C10.4761 22.5524 10.6114 22.3204 10.7496 22.0901C10.8878 21.8597 11.0287 21.6311 11.1725 21.4042C11.3163 21.1773 11.4628 20.9522 11.6121 20.7289C11.7614 20.5055 11.9134 20.2841 12.0681 20.0645C12.2229 19.8449 12.3802 19.6273 12.5403 19.4116C12.7003 19.1959 12.863 18.9821 13.0283 18.7704C13.1936 18.5586 13.3614 18.349 13.5319 18.1413C13.7023 17.9337 13.8752 17.7282 14.0507 17.5248C14.2261 17.3214 14.404 17.1201 14.5844 16.9211C14.7678 16.7205 14.9536 16.5222 15.1419 16.3262C15.3301 16.1303 15.5208 15.9366 15.7139 15.7453C15.9069 15.554 16.1023 15.3651 16.2999 15.1786C16.4977 14.9922 16.6977 14.8081 16.8999 14.6265C17.1021 14.445 17.3065 14.266 17.5132 14.0894C17.7198 13.9129 17.9286 13.7389 18.1396 13.5675C18.3505 13.3962 18.5635 13.2274 18.7786 13.0613C18.9936 12.8951 19.2107 12.7317 19.4298 12.5709C19.649 12.4101 19.87 12.252 20.093 12.0967C20.316 11.9414 20.5409 11.7888 20.7677 11.639C20.9944 11.4892 21.223 11.3422 21.4534 11.198C21.6838 11.0539 21.9159 10.9126 22.1498 10.7741C22.3836 10.6357 22.6192 10.5001 22.8564 10.3675C23.0936 10.2348 23.3324 10.1051 23.5728 9.97837C23.8132 9.85157 24.0552 9.72776 24.2986 9.60695C24.542 9.48614 24.7869 9.36836 25.0333 9.25359C25.2797 9.13883 25.5274 9.02711 25.7765 8.91844C26.0256 8.80976 26.276 8.70419 26.5277 8.60171C26.7794 8.49919 27.0324 8.39981 27.2865 8.30358C27.5407 8.20729 27.796 8.11416 28.0524 8.02418C28.3089 7.93419 28.5664 7.84738 28.825 7.76375C29.0835 7.68011 29.3431 7.59968 29.6037 7.52246C29.8643 7.44522 30.1258 7.3712 30.3882 7.3004C30.6505 7.22961 30.9138 7.16205 31.1778 7.09774C31.4419 7.03343 31.7067 6.97238 31.9722 6.91459C32.2378 6.8568 32.5041 6.80229 32.771 6.75106C33.0379 6.69983 33.3054 6.6519 33.5734 6.60726C33.8415 6.56262 34.1101 6.52129 34.3793 6.48327C34.6484 6.44524 34.9179 6.41054 35.1878 6.37915C35.4578 6.34777 35.7281 6.31972 35.9988 6.295C36.2694 6.27027 36.5403 6.24889 36.8115 6.23084C37.0827 6.21279 37.354 6.19809 37.6256 6.18672Z" fill="black"/>
<path d="M16.9745 19.3696C17.3069 19.6162 17.6125 19.9807 17.9089 20.2727C18.6295 20.9826 19.3458 21.6968 20.058 22.4152L22.5811 24.9344C23.2137 25.5591 23.8673 26.1712 24.4541 26.8393C21.8712 29.6924 20.4456 33.3133 20.0064 37.1024L17.0054 37.102L9.51554 37.1156C9.53585 36.8132 9.56081 36.5112 9.59042 36.2095C9.62007 35.9078 9.65435 35.6067 9.69325 35.3062C9.73215 35.0055 9.77567 34.7056 9.82381 34.4063C9.87195 34.1071 9.92469 33.8086 9.98202 33.511C10.0394 33.2134 10.1013 32.9167 10.1677 32.621C10.2342 32.3253 10.3052 32.0306 10.3808 31.7371C10.4563 31.4436 10.5364 31.1513 10.6209 30.8602C10.7055 30.5692 10.7945 30.2794 10.888 29.9911C10.9815 29.7028 11.0794 29.416 11.1817 29.1307C11.284 28.8453 11.3907 28.5617 11.5018 28.2797C11.6129 27.9976 11.7282 27.7174 11.8479 27.4389C11.9676 27.1605 12.0916 26.8839 12.2198 26.6092C12.348 26.3346 12.4804 26.062 12.617 25.7914C12.7537 25.5208 12.8944 25.2524 13.0393 24.9862C13.1842 24.72 13.3331 24.456 13.4862 24.1944C13.6392 23.9327 13.7962 23.6735 13.9572 23.4167C14.8669 21.9828 15.889 20.6723 16.9745 19.3696Z" fill="white"/>
<path d="M51.188 53.5474C51.4797 53.7849 51.7464 54.1066 52.0116 54.3773L53.7476 56.1428L56.4212 58.8274C57.157 59.5607 57.903 60.274 58.5825 61.061C55.252 64.0915 51.3048 66.079 47.006 67.3293C44.9904 67.9039 42.832 68.2848 40.7366 68.3677L40.7304 57.8371C40.9169 57.8208 41.1031 57.8017 41.289 57.7799C41.475 57.758 41.6605 57.7334 41.8457 57.706C42.0309 57.6787 42.2156 57.6486 42.3999 57.6158C42.5842 57.5829 42.768 57.5474 42.9513 57.5091C43.1345 57.4708 43.3171 57.4298 43.4992 57.386C43.6812 57.3424 43.8625 57.296 44.0432 57.2469C44.2238 57.1978 44.4037 57.146 44.5828 57.0916C44.7619 57.0372 44.9402 56.9801 45.1176 56.9204C45.295 56.8607 45.4715 56.7984 45.6471 56.7334C45.8227 56.6684 45.9972 56.6008 46.1708 56.5307C46.3444 56.4606 46.5169 56.3879 46.6883 56.3126C46.8597 56.2374 47.03 56.1596 47.1991 56.0793C47.3682 55.999 47.536 55.9162 47.7027 55.8309C47.8693 55.7457 48.0347 55.6579 48.1987 55.5677C48.3628 55.4776 48.5254 55.385 48.6867 55.2899C48.848 55.1949 49.0079 55.0975 49.1663 54.9978C49.8687 54.5515 50.5208 54.0431 51.188 53.5474Z" fill="white"/>
<path d="M40.6729 9.55688C41.9747 9.56123 43.3374 9.77938 44.6116 10.0317C49.9095 11.0806 54.5066 13.4332 58.5742 16.9593C58.2257 17.3605 57.8356 17.7354 57.4665 18.1182C56.6126 19.0105 55.7447 19.889 54.8628 20.7537L52.6113 23.0111C52.1378 23.4853 51.6509 23.949 51.2044 24.449C48.949 22.4017 45.7484 20.9694 42.7812 20.3673C42.0776 20.2246 41.3725 20.157 40.6612 20.0697C40.6875 16.5655 40.6914 13.0612 40.6729 9.55688Z" fill="#DEFF5A"/>
<path d="M42.4837 13.4785C46.8567 13.8694 51.0052 15.6485 54.4642 18.3246C54.0496 18.711 53.6425 19.1051 53.2428 19.5069L52.0655 20.679C49.2436 18.6462 45.9448 17.2597 42.4712 16.8951C42.4831 15.7564 42.4606 14.6171 42.4837 13.4785Z" fill="black"/>
<path d="M58.0314 40.6325C59.1428 40.6044 60.2637 40.6497 61.3766 40.6466L68.4449 40.6282C68.4297 41.7061 68.2772 42.8366 68.1012 43.9011C68.0521 44.1981 67.9984 44.4943 67.9401 44.7897C67.8817 45.085 67.8187 45.3794 67.7511 45.6728C67.6836 45.9661 67.6114 46.2584 67.5347 46.5495C67.4579 46.8406 67.3766 47.1305 67.2908 47.4191C67.2049 47.7076 67.1146 47.9947 67.0198 48.2805C66.925 48.5662 66.8257 48.8504 66.722 49.1331C66.6182 49.4157 66.5101 49.6966 66.3976 49.9759C66.285 50.2551 66.1682 50.5325 66.047 50.8081C65.9257 51.0836 65.8002 51.3573 65.6704 51.6289C65.5406 51.9006 65.4065 52.1701 65.2682 52.4376C65.13 52.705 64.9876 52.9702 64.8411 53.2332C64.6945 53.4961 64.5438 53.7567 64.3891 54.015C64.2343 54.2733 64.0756 54.5291 63.9128 54.7823C63.7501 55.0356 63.5834 55.2863 63.4129 55.5343C63.2422 55.7824 63.0678 56.0277 62.8895 56.2703C62.7112 56.5129 62.5291 56.7526 62.3433 56.9895C61.9055 57.538 61.4632 58.0911 60.9804 58.6007C59.6302 57.2968 58.3198 55.9489 56.9927 54.6216C55.8514 53.4801 54.6902 52.3602 53.5659 51.2014C53.645 51.1092 53.7231 51.0163 53.8003 50.9225C53.8776 50.8288 53.954 50.7344 54.0294 50.6392C54.1049 50.5441 54.1794 50.4482 54.253 50.3516C54.3265 50.255 54.3992 50.1576 54.4709 50.0596C54.5426 49.9616 54.6133 49.8629 54.6831 49.7636C54.7529 49.6641 54.8218 49.5641 54.8896 49.4634C54.9575 49.3627 55.0244 49.2613 55.0903 49.1593C55.1562 49.0573 55.2211 48.9547 55.285 48.8514C55.3489 48.7482 55.4119 48.6443 55.4738 48.5398C55.5357 48.4353 55.5966 48.3303 55.6565 48.2246C55.7164 48.119 55.7752 48.0128 55.8331 47.906C55.8909 47.7992 55.9477 47.6918 56.0035 47.584C56.0592 47.4761 56.1139 47.3677 56.1676 47.2587C56.2213 47.1497 56.2739 47.0403 56.3254 46.9304C56.377 46.8204 56.4275 46.71 56.4769 46.599C56.5263 46.4881 56.5746 46.3767 56.6219 46.2648C56.6692 46.153 56.7154 46.0406 56.7605 45.9279C56.8056 45.8151 56.8496 45.7019 56.8925 45.5883C56.9354 45.4747 56.9772 45.3607 57.0179 45.2463C57.0586 45.1319 57.0982 45.0171 57.1367 44.9019C57.1752 44.7867 57.2125 44.6711 57.2488 44.5552C57.2851 44.4394 57.3202 44.3231 57.3542 44.2065C57.3882 44.0899 57.4211 43.973 57.4529 43.8558C57.4846 43.7386 57.5152 43.621 57.5447 43.5032C57.5742 43.3854 57.6025 43.2673 57.6297 43.149C57.657 43.0307 57.683 42.912 57.7079 42.7931C57.7328 42.6743 57.7566 42.5552 57.7792 42.4359C57.8018 42.3166 57.8232 42.197 57.8435 42.0773C57.8639 41.9575 57.883 41.8376 57.901 41.7175C57.919 41.5974 57.9358 41.4772 57.9514 41.3567C57.9671 41.2363 57.9816 41.1157 57.9949 40.995C58.0083 40.8743 58.0204 40.7535 58.0314 40.6325Z" fill="white"/>
<path d="M36.6931 9.575C36.8965 9.54476 37.1201 9.54803 37.3264 9.53638C37.3727 13.0548 37.3392 16.576 37.3417 20.0946C34.2688 20.293 31.2242 21.3958 28.6388 23.0558C28.0098 23.4597 27.421 23.9207 26.8267 24.3731C25.7102 23.3466 24.5959 22.1538 23.521 21.0721C22.1131 19.7433 20.762 18.3501 19.3924 16.9819C19.5407 16.8483 19.6904 16.7162 19.8413 16.5856C19.9924 16.4551 20.1447 16.3261 20.2984 16.1987C20.4521 16.0713 20.6071 15.9455 20.7633 15.8212C20.9196 15.697 21.0771 15.5744 21.2359 15.4534C21.3946 15.3324 21.5546 15.2131 21.7158 15.0954C21.8771 14.9777 22.0395 14.8617 22.2031 14.7473C22.3667 14.6329 22.5315 14.5203 22.6975 14.4092C22.8634 14.2983 23.0304 14.189 23.1986 14.0815C23.3668 13.9739 23.5361 13.8681 23.7064 13.7641C23.8768 13.66 24.0481 13.5577 24.2206 13.4572C24.3931 13.3566 24.5665 13.2579 24.741 13.1609C24.9155 13.0639 25.091 12.9688 25.2674 12.8754C25.4438 12.782 25.6212 12.6904 25.7996 12.6007C25.9779 12.511 26.1571 12.4231 26.3372 12.3371C26.5174 12.251 26.6984 12.1669 26.8802 12.0846C27.0621 12.0022 27.2448 11.9218 27.4283 11.8432C27.6117 11.7646 27.796 11.688 27.9811 11.6132C28.1662 11.5384 28.3521 11.4655 28.5386 11.3946C28.7253 11.3236 28.9126 11.2546 29.1006 11.1875C29.2885 11.1203 29.4772 11.0552 29.6666 10.9919C29.8559 10.9287 30.0459 10.8675 30.2365 10.8081C30.4271 10.7488 30.6183 10.6915 30.8101 10.6361C31.0018 10.5807 31.1942 10.5272 31.3871 10.4758C31.5799 10.4244 31.7733 10.3749 31.9672 10.3274C32.1611 10.2799 32.3555 10.2345 32.5503 10.191C32.7451 10.1475 32.9404 10.1061 33.1361 10.0666C33.3318 10.0272 33.5278 9.9897 33.7243 9.95426C33.9207 9.91881 34.1175 9.8854 34.3147 9.85401C34.5118 9.82263 34.7092 9.79328 34.907 9.76596C35.1047 9.73864 35.3027 9.71335 35.501 9.69009C35.6993 9.66683 35.8978 9.64561 36.0964 9.62641C36.2951 9.60722 36.494 9.59008 36.6931 9.575Z" fill="#DEFF5A"/>
<path d="M26.8574 53.5703C27.1243 53.6664 28.3036 54.6615 28.7452 54.9381C31.3763 56.5864 34.3117 57.6248 37.4178 57.8225C37.3677 61.3356 37.42 64.8553 37.4131 68.3691C35.2567 68.2198 33.2124 67.8787 31.1145 67.3545C30.8935 67.2949 30.6732 67.2325 30.4536 67.1675C30.234 67.1026 30.0152 67.035 29.7973 66.9648C29.5793 66.8945 29.3623 66.8216 29.146 66.7462C28.9299 66.6708 28.7146 66.5927 28.5002 66.5121C28.2859 66.4315 28.0726 66.3483 27.8602 66.2625C27.6479 66.1768 27.4367 66.0886 27.2264 65.9978C27.0162 65.9069 26.8071 65.8136 26.5991 65.7177C26.3912 65.6219 26.1844 65.5236 25.9788 65.4227C25.7732 65.3219 25.5688 65.2187 25.3657 65.113C25.1626 65.0073 24.9608 64.8991 24.7603 64.7885C24.5597 64.678 24.3606 64.565 24.1627 64.4497C23.9649 64.3343 23.7685 64.2166 23.5735 64.0966C23.3785 63.9765 23.185 63.8541 22.993 63.7294C22.801 63.6046 22.6104 63.4776 22.4214 63.3483C22.2324 63.2191 22.045 63.0875 21.8592 62.9538C21.6733 62.82 21.4891 62.6839 21.3066 62.5457C20.6678 62.0642 20.0145 61.5808 19.4527 61.0089L26.8574 53.5703Z" fill="#DEFF5A"/>
<path d="M25.9895 57.2891C26.4274 57.5691 26.8079 57.9435 27.252 58.2233C29.6597 59.74 32.7511 61.0172 35.6131 61.2243L35.6098 64.6269C34.9119 64.568 34.216 64.457 33.524 64.3514C33.2968 64.3069 33.0702 64.2591 32.8444 64.2078C32.6186 64.1566 32.3936 64.102 32.1694 64.044C31.9452 63.986 31.722 63.9247 31.4996 63.8601C31.2772 63.7955 31.0559 63.7275 30.8355 63.6563C30.6152 63.585 30.396 63.5105 30.1779 63.4327C29.9598 63.3549 29.7429 63.2739 29.5273 63.1896C29.3116 63.1053 29.0972 63.0178 28.8841 62.9271C28.6711 62.8364 28.4594 62.7426 28.2492 62.6455C28.0389 62.5486 27.8301 62.4484 27.6228 62.3452C27.4156 62.242 27.2099 62.1356 27.0058 62.0262C26.8017 61.9168 26.5993 61.8044 26.3986 61.689C26.1978 61.5736 25.9989 61.4551 25.8017 61.3337C25.6045 61.2123 25.4091 61.0881 25.2156 60.9609C25.0222 60.8336 24.8306 60.7036 24.6411 60.5706C24.4515 60.4377 24.2639 60.3019 24.0783 60.1633C23.8928 60.0248 23.7094 59.8835 23.528 59.7395C24.3342 58.9094 25.1658 58.1017 25.9895 57.2891Z" fill="black"/>
<path d="M60.8891 19.3713C60.939 19.3911 60.9803 19.4125 61.0191 19.4509C61.5188 19.9461 61.9503 20.5568 62.3851 21.1113C65.8315 25.5067 68.3326 31.7011 68.4561 37.3223L61.1633 37.3231C60.1076 37.3228 59.0518 37.3286 57.996 37.3403C57.6805 33.2858 56.0703 29.8429 53.5083 26.722C54.4767 25.8103 55.4011 24.8497 56.3417 23.9096L60.8891 19.3713Z" fill="#DEFF5A"/>
<path d="M59.5558 23.6008C59.9882 23.9558 60.3394 24.6064 60.6562 25.0654C60.8586 25.3615 61.0541 25.6621 61.2428 25.9672C61.4315 26.2722 61.6133 26.5814 61.788 26.8946C61.9628 27.2078 62.1304 27.5249 62.2908 27.8457C62.4512 28.1666 62.6042 28.4909 62.7499 28.8186C62.8957 29.1464 63.0339 29.4773 63.1646 29.8113C63.2954 30.1453 63.4185 30.4821 63.534 30.8217C63.6495 31.1613 63.7573 31.5034 63.8572 31.8478C63.9572 32.1923 64.0494 32.5388 64.1337 32.8875C64.3166 33.6593 64.4365 34.4437 64.5662 35.2258C63.7724 35.2286 62.9786 35.2263 62.1848 35.219C61.8608 35.2132 61.5357 35.2205 61.2116 35.2224C61.1667 34.6698 61.0275 34.1141 60.8929 33.5771C60.2373 30.9603 58.9341 28.0502 57.1804 25.9841C57.9831 25.2014 58.7657 24.3963 59.5558 23.6008Z" fill="black"/>
<path d="M9.48698 40.4788C12.9932 40.5241 16.5075 40.4978 20.0141 40.4801C20.2239 44.2061 21.9269 48.4386 24.5108 51.1549C23.2449 52.4008 21.9883 53.6557 20.7408 54.9199L17.0251 58.6683C16.1476 57.7494 15.3531 56.6962 14.6339 55.6496C14.538 55.5104 14.4433 55.3704 14.3498 55.2296C14.2563 55.0888 14.1641 54.9472 14.0731 54.8048C13.982 54.6624 13.8922 54.5192 13.8036 54.3753C13.715 54.2313 13.6277 54.0866 13.5416 53.9411C13.4555 53.7956 13.3707 53.6494 13.2872 53.5025C13.2037 53.3556 13.1214 53.2079 13.0404 53.0596C12.9594 52.9112 12.8797 52.7622 12.8013 52.6125C12.7228 52.4627 12.6457 52.3123 12.5699 52.1612C12.4941 52.0102 12.4195 51.8585 12.3463 51.7062C12.2731 51.5538 12.2013 51.4009 12.1307 51.2473C12.0601 51.0937 11.9908 50.9395 11.923 50.7847C11.8551 50.63 11.7885 50.4746 11.7233 50.3186C11.6581 50.1627 11.5942 50.0062 11.5317 49.8492C11.4691 49.6921 11.408 49.5346 11.3482 49.3765C11.2884 49.2184 11.23 49.0598 11.1729 48.9007C11.1159 48.7416 11.0602 48.582 11.0058 48.422C10.9516 48.2619 10.8986 48.1014 10.8471 47.9404C10.7956 47.7794 10.7454 47.618 10.6967 47.4562C10.648 47.2943 10.6006 47.1321 10.5547 46.9694C10.5087 46.8068 10.4642 46.6437 10.4211 46.4803C10.378 46.3169 10.3362 46.1531 10.2959 45.989C10.2557 45.8248 10.2168 45.6603 10.1793 45.4955C10.1418 45.3307 10.1058 45.1655 10.0712 45.0001C10.0366 44.8346 10.0034 44.6689 9.97166 44.5029C9.93992 44.3369 9.9096 44.1706 9.88071 44.0041C9.85187 43.8375 9.82444 43.6707 9.79844 43.5038C9.77244 43.3368 9.74789 43.1695 9.72479 43.002C9.70168 42.8346 9.68002 42.667 9.65981 42.4992C9.6396 42.3314 9.62084 42.1634 9.60352 41.9953C9.5862 41.8271 9.57033 41.6589 9.55591 41.4905C9.54154 41.3221 9.52859 41.1536 9.51706 40.9849C9.50559 40.8163 9.49556 40.6476 9.48698 40.4788Z" fill="#DEFF5A"/>
<path d="M13.3957 42.3899L16.7013 42.3894C17.0685 45.7899 18.6679 49.4959 20.6861 52.2345L19.5677 53.3452L18.3285 54.5516C15.7727 51.2793 13.7036 46.5581 13.3957 42.3899Z" fill="black"/>
<path d="M38.814 23.365C38.9409 23.3637 39.0679 23.3641 39.1948 23.366C39.3218 23.3679 39.4487 23.3713 39.5756 23.3763C39.7025 23.3813 39.8293 23.3878 39.956 23.3959C40.0827 23.4039 40.2093 23.4135 40.3358 23.4247C40.4622 23.4358 40.5886 23.4485 40.7147 23.4627C40.8409 23.4769 40.9669 23.4927 41.0927 23.5099C41.2185 23.5272 41.344 23.546 41.4693 23.5663C41.5947 23.5866 41.7197 23.6085 41.8446 23.6319C41.9693 23.6552 42.0938 23.6801 42.218 23.7064C42.3422 23.7329 42.4661 23.7608 42.5896 23.7902C42.7131 23.8196 42.8362 23.8505 42.959 23.8829C43.0818 23.9153 43.2041 23.9492 43.326 23.9845C43.448 24.0199 43.5695 24.0568 43.6905 24.0951C43.8116 24.1335 43.9322 24.1733 44.0523 24.2145C44.1723 24.2558 44.2918 24.2985 44.4109 24.3427C44.5299 24.3868 44.6484 24.4324 44.7664 24.4795C44.8843 24.5265 45.0016 24.575 45.1184 24.6249C45.2351 24.6748 45.3512 24.7262 45.4668 24.7789C45.5822 24.8316 45.6971 24.8858 45.8113 24.9413C45.9254 24.9968 46.0389 25.0537 46.1517 25.112C46.2645 25.1703 46.3766 25.2299 46.488 25.2909C46.5993 25.3519 46.7099 25.4142 46.8197 25.478C46.9296 25.5417 47.0386 25.6067 47.1469 25.673C47.2552 25.7394 47.3626 25.807 47.4692 25.876C47.5758 25.9449 47.6815 26.0152 47.7864 26.0867C47.8913 26.1582 47.9954 26.231 48.0985 26.3051C48.2016 26.3792 48.3038 26.4545 48.4051 26.531C48.5064 26.6076 48.6068 26.6853 48.7062 26.7644C48.8056 26.8433 48.904 26.9235 49.0014 27.0049C49.0989 27.0863 49.1954 27.1688 49.2908 27.2526C49.3863 27.3363 49.4807 27.4212 49.5741 27.5072C49.6675 27.5932 49.7598 27.6804 49.8511 27.7686C49.9438 27.8569 50.0354 27.9464 50.1259 28.037C50.2164 28.1275 50.3058 28.2192 50.3941 28.3119C50.4824 28.4047 50.5694 28.4986 50.6554 28.5935C50.7413 28.6884 50.8261 28.7843 50.9097 28.8813C50.9933 28.9784 51.0757 29.0764 51.1568 29.1754C51.238 29.2745 51.3179 29.3745 51.3966 29.4755C51.4753 29.5765 51.5527 29.6784 51.6289 29.7814C51.7051 29.8843 51.7801 29.9881 51.8537 30.0928C51.9273 30.1976 51.9997 30.3033 52.0707 30.4098C52.1417 30.5163 52.2114 30.6237 52.2798 30.732C52.3482 30.8403 52.4152 30.9493 52.4809 31.0592C52.5466 31.1692 52.6109 31.2799 52.6739 31.3913C52.7369 31.5029 52.7985 31.6151 52.8587 31.7281C52.9189 31.8411 52.9777 31.9549 53.0351 32.0694C53.0925 32.1838 53.1485 32.299 53.2031 32.4148C53.2576 32.5306 53.3107 32.6471 53.3624 32.7643C53.4141 32.8814 53.4644 32.9992 53.5132 33.1176C53.562 33.2359 53.6093 33.3549 53.6552 33.4745C53.701 33.594 53.7454 33.7141 53.7883 33.8348C53.8312 33.9554 53.8726 34.0766 53.9126 34.1982C53.9525 34.3199 53.9909 34.442 54.0278 34.5647C54.0647 34.6873 54.1001 34.8103 54.134 34.9338C54.1679 35.0573 54.2002 35.1812 54.2311 35.3054C54.2619 35.4297 54.2912 35.5543 54.3189 35.6794C54.3467 35.8044 54.3729 35.9297 54.3976 36.0554C54.4223 36.181 54.4454 36.3069 54.4669 36.4332C54.4885 36.5594 54.5085 36.6858 54.527 36.8126C54.5454 36.9393 54.5623 37.0662 54.5776 37.1933C54.5929 37.3204 54.6067 37.4478 54.6189 37.5752C54.6311 37.7027 54.6417 37.8303 54.6508 37.958C54.6598 38.0857 54.6673 38.2135 54.6732 38.3414C54.6791 38.4693 54.6834 38.5973 54.6862 38.7253C54.7733 42.8005 53.1079 46.8539 50.2834 49.7752C50.1935 49.8678 50.1024 49.9593 50.0103 50.0497C49.9181 50.14 49.8248 50.2292 49.7305 50.3172C49.6361 50.4053 49.5406 50.4922 49.4442 50.5779C49.3476 50.6636 49.2501 50.7481 49.1515 50.8314C49.0529 50.9147 48.9533 50.9968 48.8527 51.0777C48.7521 51.1585 48.6505 51.2381 48.5479 51.3165C48.4453 51.3948 48.3418 51.4719 48.2374 51.5477C48.1329 51.6235 48.0275 51.6981 47.9213 51.7713C47.8149 51.8445 47.7077 51.9164 47.5997 51.9869C47.4916 52.0575 47.3827 52.1268 47.2729 52.1946C47.1631 52.2625 47.0526 52.3291 46.9411 52.3943C46.8297 52.4594 46.7175 52.5232 46.6045 52.5856C46.4916 52.648 46.3778 52.7091 46.2634 52.7687C46.1489 52.8283 46.0337 52.8865 45.9178 52.9433C45.8018 53 45.6852 53.0554 45.5679 53.1092C45.4507 53.1632 45.3328 53.2156 45.2142 53.2666C45.0956 53.3176 44.9764 53.3672 44.8566 53.4152C44.7368 53.4633 44.6165 53.5099 44.4956 53.555C44.3746 53.6001 44.2531 53.6437 44.1311 53.6859C44.0091 53.728 43.8866 53.7686 43.7636 53.8077C43.6406 53.8468 43.5171 53.8843 43.3932 53.9204C43.2693 53.9565 43.1449 53.991 43.0201 54.024C42.8954 54.057 42.7702 54.0885 42.6446 54.1184C42.5191 54.1483 42.3932 54.1766 42.2669 54.2035C42.1406 54.2303 42.014 54.2555 41.8871 54.2792C41.7603 54.303 41.6332 54.3251 41.5058 54.3457C41.3783 54.3662 41.2506 54.3853 41.1228 54.4027C40.9948 54.4201 40.8667 54.436 40.7385 54.4502C40.6102 54.4645 40.4818 54.4772 40.3532 54.4883C40.2246 54.4995 40.0958 54.509 39.967 54.517C39.8382 54.5249 39.7093 54.5312 39.5804 54.536C39.4514 54.5408 39.3223 54.544 39.1932 54.5456C39.0656 54.5465 38.938 54.5458 38.8104 54.5436C38.6828 54.5414 38.5552 54.5377 38.4276 54.5324C38.3001 54.5272 38.1727 54.5204 38.0453 54.512C37.918 54.5037 37.7907 54.4939 37.6636 54.4825C37.5365 54.4712 37.4095 54.4583 37.2826 54.4439C37.1558 54.4294 37.0292 54.4135 36.9028 54.3961C36.7763 54.3787 36.6501 54.3597 36.5242 54.3392C36.3982 54.3187 36.2725 54.2968 36.147 54.2733C36.0216 54.2498 35.8964 54.2249 35.7715 54.1983C35.6467 54.1719 35.5221 54.1439 35.398 54.1144C35.2738 54.085 35.1499 54.054 35.0265 54.0216C34.903 53.9892 34.78 53.9553 34.6574 53.9199C34.5347 53.8845 34.4125 53.8476 34.2908 53.8093C34.1691 53.771 34.0478 53.7312 33.927 53.6901C33.8062 53.6488 33.6859 53.6061 33.5661 53.562C33.4464 53.5179 33.3272 53.4724 33.2084 53.4254C33.0897 53.3785 32.9717 53.3301 32.8541 53.2803C32.7366 53.2305 32.6197 53.1793 32.5035 53.1268C32.3872 53.0742 32.2715 53.0202 32.1565 52.9648C32.0415 52.9095 31.9271 52.8527 31.8135 52.7946C31.6998 52.7365 31.5869 52.677 31.4748 52.6163C31.3625 52.5554 31.251 52.4933 31.1403 52.4298C31.0296 52.3663 30.9196 52.3015 30.8105 52.2354C30.7013 52.1693 30.5929 52.1019 30.4854 52.0332C30.3778 51.9644 30.2711 51.8944 30.1652 51.8232C30.0593 51.7519 29.9543 51.6793 29.8502 51.6055C29.746 51.5317 29.6428 51.4567 29.5404 51.3804C29.4381 51.3042 29.3367 51.2267 29.2362 51.148C29.1357 51.0693 29.0362 50.9894 28.9376 50.9083C28.8391 50.8272 28.7415 50.745 28.6448 50.6616C28.5482 50.5782 28.4527 50.4936 28.3581 50.4079C28.2635 50.3222 28.17 50.2353 28.0775 50.1474C27.9861 50.0598 27.8957 49.9711 27.8065 49.8813C27.7172 49.7915 27.6291 49.7006 27.5421 49.6087C27.455 49.5167 27.3692 49.4237 27.2845 49.3296C27.1997 49.2355 27.1161 49.1405 27.0337 49.0444C26.9513 48.9483 26.8701 48.8512 26.79 48.753C26.71 48.6549 26.6312 48.5559 26.5535 48.4559C26.4759 48.3559 26.3995 48.2549 26.3244 48.153C26.2493 48.0511 26.1754 47.9483 26.1028 47.8445C26.0302 47.7409 25.9588 47.6363 25.8888 47.5309C25.8187 47.4254 25.7499 47.3191 25.6825 47.2119C25.6151 47.1048 25.5489 46.9969 25.4841 46.8881C25.4193 46.7794 25.3558 46.6698 25.2937 46.5595C25.2316 46.4492 25.1708 46.3381 25.1114 46.2264C25.0519 46.1145 24.9939 46.002 24.9373 45.8888C24.8806 45.7756 24.8254 45.6617 24.7715 45.5471C24.7176 45.4325 24.6652 45.3173 24.6142 45.2015C24.5631 45.0856 24.5135 44.9691 24.4653 44.8521C24.4171 44.735 24.3703 44.6173 24.325 44.4991C24.2797 44.3809 24.2359 44.2621 24.1935 44.1428C24.1511 44.0235 24.1102 43.9037 24.0707 43.7834C24.0312 43.6631 23.9933 43.5424 23.9567 43.4212C23.9202 43.2999 23.8852 43.1782 23.8517 43.0562C23.8181 42.9341 23.7861 42.8116 23.7556 42.6887C23.7251 42.5659 23.696 42.4426 23.6685 42.319C23.641 42.1955 23.6151 42.0716 23.5906 41.9473C23.5661 41.8231 23.5432 41.6986 23.5217 41.5739C23.5003 41.4491 23.4804 41.3241 23.462 41.1988C23.4436 41.0735 23.4268 40.948 23.4115 40.8223C23.3962 40.6967 23.3825 40.5709 23.3703 40.4448C23.3581 40.3188 23.3474 40.1927 23.3383 40.0664C23.3292 39.9401 23.3216 39.8138 23.3155 39.6873C23.3095 39.5608 23.3051 39.4343 23.3021 39.3077C23.1847 35.1101 24.8428 31.1759 27.715 28.1473C30.6407 25.062 34.6047 23.4783 38.814 23.365Z" fill="white"/>
<path d="M43.8672 32.0354C46.6958 31.9847 49.5329 32.0281 52.3625 32.0314C52.3674 33.1249 52.3806 34.2182 52.4022 35.3115C51.5655 35.2977 50.7288 35.2902 49.892 35.289C49.9196 37.8272 49.93 40.3655 49.9231 42.9039L49.9256 45.3971L46.3245 45.3986C46.296 44.2485 46.3195 43.092 46.3195 41.9414L46.3366 35.415C45.5165 35.4037 44.6962 35.415 43.8759 35.4018L43.8672 32.0354Z" fill="black"/>
<path d="M37.0855 32.043C37.7144 31.978 38.3828 32.0221 39.0155 32.0234L42.6197 32.0323L42.6189 35.4149L38.555 35.4135C38.536 35.9595 38.5478 36.5101 38.5454 37.0566C39.911 37.0566 41.2765 37.0438 42.6419 37.0182C42.6701 38.1342 42.6507 39.2556 42.654 40.3722L38.5645 40.3733C38.5528 40.9212 38.5514 41.4692 38.5603 42.0171C38.9065 42.0243 39.2536 42.0202 39.5999 42.0209L42.6506 42.0044L42.6483 45.3952L38.7027 45.3992C38.028 45.3996 37.3247 45.4445 36.6547 45.3783C36.4125 45.3545 36.1139 45.3041 35.9094 45.1698C35.591 44.9607 35.2935 44.6168 35.2328 44.2297C35.1411 43.6431 35.2057 42.9759 35.2105 42.3806L35.2191 39.1647L35.2172 35.6862C35.2117 35.0499 35.1563 34.3793 35.2111 33.7467C35.2414 33.3969 35.2891 33.155 35.5106 32.8717C35.8978 32.3762 36.4761 32.122 37.0855 32.043Z" fill="black"/>
<path d="M25.5278 32.0129L28.1527 32.0141C29.6604 32.0127 31.0838 31.933 32.3944 32.8231C32.4522 32.8617 32.509 32.9018 32.5648 32.9432C32.6207 32.9847 32.6754 33.0276 32.7291 33.0718C32.7828 33.1161 32.8354 33.1616 32.8868 33.2084C32.9383 33.2552 32.9885 33.3033 33.0376 33.3526C33.0866 33.4019 33.1344 33.4524 33.1809 33.5041C33.2274 33.5558 33.2727 33.6086 33.3166 33.6625C33.3605 33.7165 33.4031 33.7714 33.4443 33.8275C33.4854 33.8835 33.5252 33.9406 33.5636 33.9986C33.602 34.0566 33.6388 34.1155 33.6743 34.1754C33.7097 34.2353 33.7436 34.296 33.776 34.3575C33.8084 34.419 33.8393 34.4813 33.8686 34.5444C33.8979 34.6075 33.9256 34.6712 33.9518 34.7357C33.9779 34.8002 34.0025 34.8652 34.0254 34.9309C34.0483 34.9965 34.0696 35.0627 34.0893 35.1295C34.1089 35.1962 34.1269 35.2634 34.1432 35.331C34.1595 35.3986 34.1741 35.4666 34.187 35.5349C34.1986 35.6026 34.2086 35.6706 34.2169 35.7388C34.2251 35.807 34.2317 35.8754 34.2367 35.9439C34.2415 36.0124 34.2447 36.081 34.2463 36.1497C34.2478 36.2184 34.2476 36.2871 34.2458 36.3557C34.2439 36.4245 34.2404 36.4931 34.2351 36.5616C34.2299 36.6301 34.223 36.6984 34.2144 36.7665C34.2057 36.8347 34.1954 36.9026 34.1835 36.9703C34.1715 37.0379 34.1579 37.1053 34.1426 37.1722C34.1274 37.2392 34.1105 37.3058 34.0919 37.372C34.0733 37.4381 34.0531 37.5037 34.0313 37.5689C34.0095 37.634 33.9861 37.6986 33.9612 37.7626C33.9362 37.8266 33.9096 37.89 33.8816 37.9526C33.8534 38.0153 33.8238 38.0773 33.7927 38.1386C33.7615 38.1998 33.7288 38.2602 33.6947 38.3198C33.6605 38.3795 33.6249 38.4382 33.5879 38.496C33.5509 38.5539 33.5125 38.6108 33.4726 38.6668C33.8653 39.2907 34.1599 39.8325 34.2664 40.5744C34.4293 41.7102 34.1401 42.8135 33.451 43.7235C33.3701 43.824 33.2851 43.921 33.1961 44.0145C31.7944 45.4928 30.3853 45.4062 28.5187 45.4038C27.5228 45.3948 26.527 45.4005 25.5313 45.421L25.5278 32.0129Z" fill="black"/>
<path d="M28.7496 35.5208C29.2781 35.5188 29.8073 35.5092 30.3351 35.5399C30.3435 35.5454 30.3521 35.5507 30.3604 35.5564C30.5845 35.7092 30.7921 35.8981 30.8355 36.1804C30.8786 36.4605 30.7499 36.6603 30.5905 36.8761C30.1945 37.2562 29.2624 37.122 28.7517 37.1189L28.7496 35.5208Z" fill="white"/>
<path d="M28.7506 40.4038C29.317 40.3955 30.1253 40.2781 30.6086 40.61C30.7503 40.7072 30.8815 40.8491 30.9071 41.0255C30.9441 41.28 30.799 41.5645 30.6516 41.7598C30.1529 42.1582 29.3485 42.021 28.7407 42.0144L28.7506 40.4038Z" fill="white"/>
</g>
<defs>
<clipPath id="clip0_2140_4248">
<rect width="78" height="78" fill="white"/>
</clipPath>
</defs>
</svg>
