<svg width="70" height="70" viewBox="0 0 70 70" fill="none" xmlns="http://www.w3.org/2000/svg">
<path d="M34.1408 6.405C34.9876 6.34979 35.8588 6.39028 36.7051 6.43857C36.8618 6.44824 37.0183 6.4592 37.1747 6.47145C37.3311 6.4837 37.4875 6.49723 37.6437 6.51205C37.7999 6.52687 37.956 6.54297 38.1119 6.56036C38.2678 6.57775 38.4237 6.59642 38.5793 6.61637C38.735 6.63632 38.8904 6.65755 39.0457 6.68007C39.201 6.70258 39.3561 6.72637 39.511 6.75143C39.6659 6.77649 39.8206 6.80283 39.975 6.83044C40.1295 6.85805 40.2838 6.88692 40.4377 6.91704C40.5917 6.94721 40.7455 6.97863 40.899 7.01131C41.0524 7.04398 41.2056 7.07791 41.3586 7.1131C41.5114 7.14832 41.664 7.18478 41.8164 7.22247C41.9687 7.26021 42.1207 7.29917 42.2724 7.33937C42.424 7.37956 42.5754 7.42101 42.7264 7.46371C42.8774 7.50641 43.028 7.55037 43.1783 7.59558C43.3285 7.64074 43.4784 7.68716 43.6279 7.73482C43.7774 7.78245 43.9265 7.83133 44.0752 7.88146C44.2239 7.93154 44.3722 7.98286 44.5201 8.0354C44.6679 8.08795 44.8153 8.1417 44.9623 8.19666C45.1093 8.25162 45.2558 8.30779 45.4019 8.36517C45.5479 8.42254 45.6935 8.48113 45.8385 8.54092C45.9837 8.60071 46.1282 8.66166 46.2723 8.72378C46.4164 8.78594 46.5599 8.84929 46.703 8.91382C46.846 8.97835 46.9885 9.04404 47.1305 9.1109C47.2724 9.17775 47.4138 9.24577 47.5546 9.31495C47.6955 9.38413 47.8358 9.45447 47.9755 9.52598C48.1151 9.59748 48.2542 9.67012 48.3927 9.74391C48.5312 9.81769 48.669 9.89261 48.8063 9.96867C48.9436 10.0447 49.0802 10.1219 49.2161 10.2002C49.3521 10.2785 49.4874 10.3579 49.6221 10.4384C49.7568 10.519 49.8908 10.6007 50.0241 10.6834C50.1575 10.7661 50.2901 10.8499 50.422 10.9349C50.554 11.0198 50.6853 11.1058 50.8158 11.1929C51.7226 11.7981 52.6232 12.485 53.4569 13.1872C53.7704 13.4513 54.0607 13.7414 54.3738 14.0043C55.2317 13.1299 56.1019 12.2678 56.9843 11.4182C57.5748 11.9372 58.1337 12.5218 58.6905 13.0768L61.3386 15.7258L64.2141 18.5969C64.815 19.1963 65.431 19.7873 66.0055 20.412L61.6214 24.848C61.8595 25.4226 62.077 26.005 62.2736 26.595C62.4703 27.1852 62.6458 27.7815 62.8 28.3841C62.8556 28.6082 62.9084 28.833 62.9585 29.0584C63.0085 29.2838 63.0557 29.5098 63.1002 29.7364C63.1447 29.963 63.1863 30.1901 63.2252 30.4177C63.2641 30.6453 63.3002 30.8734 63.3334 31.1019C63.3667 31.3304 63.3972 31.5593 63.4248 31.7886C63.4524 32.0178 63.4772 32.2474 63.4992 32.4772C63.5212 32.7071 63.5403 32.9372 63.5566 33.1675C63.5729 33.3978 63.5864 33.6284 63.597 33.859C63.6076 34.0897 63.6154 34.3204 63.6204 34.5513C63.6253 34.7822 63.6274 35.0131 63.6267 35.2439C63.626 35.4749 63.6224 35.7057 63.616 35.9366C63.6095 36.1674 63.6002 36.3981 63.5881 36.6287C63.576 36.8593 63.5611 37.0897 63.5433 37.3199C63.5255 37.5502 63.5049 37.7801 63.4814 38.0098C63.458 38.2396 63.4317 38.4689 63.4027 38.698C63.3736 38.9271 63.3416 39.1558 63.3069 39.3841C63.2722 39.6123 63.2346 39.8401 63.1943 40.0675C63.154 40.2949 63.1108 40.5217 63.0649 40.748C63.019 40.9743 62.9703 41.2 62.9188 41.4251C62.8673 41.6502 62.8131 41.8746 62.7561 42.0984C62.699 42.3222 62.6393 42.5452 62.5768 42.7675C62.5143 42.9898 62.4491 43.2113 62.3811 43.432C62.3132 43.6527 62.2425 43.8725 62.1691 44.0914C62.0957 44.3104 62.0197 44.5283 61.9409 44.7454C61.8622 44.9625 61.7808 45.1786 61.6967 45.3937C61.6127 45.6087 61.526 45.8227 61.4367 46.0356C61.3473 46.2486 61.2553 46.4604 61.1608 46.671C61.0663 46.8817 60.9691 47.0912 60.8694 47.2995C60.7697 47.5077 60.6674 47.7147 60.5627 47.9205C60.4579 48.1263 60.3505 48.3307 60.2407 48.5338C60.1308 48.7369 60.0185 48.9387 59.9037 49.139C59.7889 49.3393 59.6716 49.5382 59.5519 49.7357C59.4313 49.9356 59.3083 50.1341 59.1828 50.331C59.0573 50.5279 58.9294 50.7233 58.7991 50.917C58.6688 51.1108 58.5362 51.3029 58.4012 51.4934C58.2662 51.684 58.1288 51.8728 57.9892 52.0599C57.8495 52.2471 57.7076 52.4324 57.5633 52.616C57.4191 52.7997 57.2726 52.9815 57.1239 53.1615C56.9752 53.3416 56.8243 53.5197 56.6713 53.696C56.5182 53.8724 56.363 54.0468 56.2056 54.2193C56.0482 54.3918 55.8887 54.5623 55.7271 54.7309C55.5656 54.8994 55.402 55.066 55.2363 55.2305C55.0706 55.3951 54.9029 55.5576 54.7333 55.718C54.5636 55.8784 54.392 56.0367 54.2184 56.1929C54.0448 56.3491 53.8694 56.5031 53.692 56.655C53.5146 56.8069 53.3354 56.9566 53.1544 57.104C52.9734 57.2515 52.7905 57.3967 52.6059 57.5397C52.4213 57.6827 52.235 57.8233 52.0469 57.9617C51.8588 58.1001 51.6691 58.2361 51.4776 58.3698C51.2862 58.5036 51.0932 58.6349 50.8985 58.7638C50.7039 58.8928 50.5077 59.0193 50.3099 59.1435C50.1121 59.2676 49.9128 59.3893 49.7121 59.5085C49.5113 59.6277 49.3091 59.7445 49.1054 59.8587C48.9018 59.973 48.6968 60.0847 48.4904 60.1939C48.284 60.3031 48.0763 60.4097 47.8673 60.5138C47.6583 60.6179 47.4481 60.7194 47.2366 60.8183C47.025 60.9173 46.8123 61.0136 46.5984 61.1072C46.3846 61.2009 46.1696 61.292 45.9535 61.3804C45.7373 61.4688 45.5201 61.5545 45.3019 61.6376C45.0837 61.7206 44.8645 61.8009 44.6442 61.8786C44.424 61.9563 44.2029 62.0312 43.9809 62.1034C43.7588 62.1756 43.5359 62.2451 43.3121 62.3118C43.0884 62.3785 42.8638 62.4425 42.6385 62.5037C42.4132 62.5649 42.1871 62.6233 41.9603 62.6789C41.511 62.7924 41.0591 62.8949 40.6048 62.9863C40.1504 63.0778 39.6941 63.1581 39.2358 63.2273C38.7775 63.2964 38.3178 63.3544 37.8567 63.4012C37.3956 63.4479 36.9336 63.4834 36.4708 63.5077C36.2376 63.5191 36.0044 63.5277 35.771 63.5334C35.5376 63.5392 35.3042 63.5422 35.0707 63.5423C34.8373 63.5423 34.6039 63.5396 34.3705 63.534C34.1371 63.5284 33.9038 63.52 33.6707 63.5087C33.4375 63.4974 33.2045 63.4834 32.9717 63.4664C32.7388 63.4495 32.5062 63.4297 32.2739 63.4072C32.0415 63.3846 31.8095 63.3592 31.5778 63.331C31.346 63.3027 31.1147 63.2717 30.8837 63.2379C30.6527 63.204 30.4222 63.1673 30.1921 63.1279C29.962 63.0884 29.7324 63.0462 29.5034 63.0011C29.2743 62.9561 29.0458 62.9083 28.818 62.8576C28.59 62.8071 28.3628 62.7537 28.1362 62.6976C27.9096 62.6415 27.6837 62.5826 27.4586 62.521C27.2334 62.4594 27.009 62.395 26.7854 62.3279C26.5618 62.2608 26.339 62.1911 26.1171 62.1186C25.8953 62.0461 25.6742 61.9709 25.4541 61.893C25.2341 61.8152 25.015 61.7347 24.7969 61.6514C24.5787 61.5683 24.3617 61.4824 24.1457 61.3939C23.9296 61.3055 23.7147 61.2144 23.5009 61.1207C23.2871 61.027 23.0744 60.9307 22.863 60.8318C22.6515 60.733 22.4412 60.6315 22.2322 60.5275C22.0232 60.4235 21.8155 60.317 21.6091 60.208C21.4027 60.099 21.1976 59.9874 20.9939 59.8734C20.7902 59.7594 20.5879 59.6429 20.387 59.524C20.1861 59.4051 19.9868 59.2837 19.7888 59.1599C19.5909 59.0361 19.3945 58.9099 19.1997 58.7814C19.0048 58.6528 18.8115 58.5219 18.6199 58.3886C18.4282 58.2553 18.2382 58.1198 18.0498 57.9819C17.8614 57.844 17.6748 57.7038 17.4898 57.5614C17.3048 57.419 17.1216 57.2743 16.9402 57.1274C16.7587 56.9805 16.5791 56.8315 16.4013 56.6803C16.2235 56.529 16.0475 56.3756 15.8734 56.2201C15.6998 56.0661 15.5282 55.9101 15.3585 55.7519C15.1887 55.5937 15.0209 55.4334 14.8551 55.2711C14.6894 55.1088 14.5256 54.9445 14.3638 54.7781C14.2021 54.6118 14.0424 54.4435 13.8849 54.2732C13.7273 54.1029 13.5718 53.9307 13.4184 53.7566C13.265 53.5825 13.1138 53.4065 12.9648 53.2287C12.8158 53.0508 12.669 52.8712 12.5244 52.6898C12.3798 52.5083 12.2374 52.3251 12.0973 52.1402C11.9572 51.9553 11.8194 51.7686 11.684 51.5803C11.5485 51.3919 11.4153 51.2019 11.2845 51.0103C11.1537 50.8186 11.0252 50.6254 10.8992 50.4307C10.7731 50.2359 10.6495 50.0396 10.5283 49.8417C10.407 49.6439 10.2883 49.4446 10.172 49.2439C10.0557 49.0431 9.94186 48.8409 9.83053 48.6374C9.71919 48.4338 9.61039 48.2289 9.50411 48.0226C9.39779 47.8164 9.29404 47.6089 9.19287 47.4001C9.0917 47.1913 8.99312 46.9813 8.89715 46.7701C8.80113 46.5588 8.70772 46.3465 8.61694 46.133C8.52616 45.9194 8.43802 45.7048 8.35253 45.4891C8.26703 45.2734 8.18423 45.0567 8.10411 44.839C8.02395 44.6212 7.94647 44.4026 7.87169 44.1829C7.79695 43.9633 7.7249 43.7427 7.65554 43.5213C7.58622 43.2999 7.51961 43.0777 7.45572 42.8546C7.39187 42.6316 7.33078 42.4078 7.27245 42.1832C7.21407 41.9587 7.1585 41.7334 7.10572 41.5074C7.0529 41.2815 7.00289 41.055 6.95567 40.8278C6.90841 40.6007 6.86399 40.373 6.82239 40.1447C6.78077 39.9165 6.74197 39.6877 6.70598 39.4585C6.67 39.2293 6.63684 38.9997 6.60651 38.7696C6.57618 38.5396 6.54869 38.3093 6.52404 38.0785C6.49938 37.8478 6.47757 37.6169 6.4586 37.3856C6.43963 37.1544 6.42351 36.923 6.41025 36.6913C6.03215 29.0016 8.50586 21.6892 13.6969 15.9661C13.8589 15.787 14.023 15.6099 14.1893 15.4349C14.3556 15.2598 14.524 15.0869 14.6946 14.9161C14.8653 14.7453 15.038 14.5766 15.2128 14.41C15.3876 14.2435 15.5645 14.0791 15.7433 13.917C15.9223 13.7549 16.1032 13.595 16.286 13.4374C16.4689 13.2797 16.6537 13.1244 16.8405 12.9714C17.0273 12.8184 17.2159 12.6677 17.4065 12.5194C17.5969 12.371 17.7893 12.2251 17.9834 12.0815C18.1775 11.938 18.3734 11.7969 18.5711 11.6582C18.7687 11.5196 18.9681 11.3834 19.1692 11.2497C19.3702 11.116 19.5729 10.9848 19.7772 10.8562C19.9815 10.7275 20.1874 10.6015 20.3948 10.4779C20.6023 10.3544 20.8113 10.2335 21.0217 10.1152C21.2322 9.99686 21.4441 9.88117 21.6574 9.76811C21.8708 9.65504 22.0855 9.54466 22.3016 9.43697C22.5177 9.32928 22.7351 9.22431 22.9538 9.12204C23.1725 9.01973 23.3925 8.92018 23.6137 8.82338C23.8349 8.72658 24.0572 8.63254 24.2807 8.54126C24.5043 8.44998 24.7289 8.3615 24.9546 8.27582C25.1803 8.19014 25.4071 8.10729 25.6349 8.02727C25.8627 7.94724 26.0915 7.87006 26.3212 7.79573C26.5509 7.7214 26.7815 7.64995 27.013 7.58136C27.2445 7.51277 27.4768 7.44705 27.7099 7.38421C27.9431 7.32141 28.177 7.26153 28.4116 7.20456C28.6462 7.14759 28.8815 7.09355 29.1174 7.04241C29.3534 6.99128 29.59 6.94309 29.8271 6.89783C30.0643 6.85262 30.302 6.81035 30.5403 6.77103C30.7785 6.73172 31.0171 6.69537 31.2563 6.662C31.4954 6.62863 31.7349 6.59824 31.9748 6.57083C32.2147 6.54342 32.4549 6.51901 32.6954 6.49758C32.9359 6.47615 33.1766 6.45772 33.4175 6.44229C33.6585 6.42685 33.8996 6.41442 34.1408 6.405Z" fill="black"/>
<path d="M31.6523 54.8178C32.9338 53.4781 34.2832 52.2044 35.5978 50.8976L42.911 43.6019L58.8184 27.6323C59.0028 28.215 59.1662 28.8035 59.3086 29.3978C59.4511 29.9921 59.5722 30.5908 59.672 31.1937C59.3426 31.4267 59.0574 31.7538 58.7756 32.0418L57.5715 33.2693L52.6094 38.2543L33.855 57.0078L32.2745 55.4483C32.0744 55.2491 31.8166 55.0422 31.6523 54.8178Z" fill="#B5D62E"/>
<path d="M56.986 16.5337C57.1796 16.6317 60.3847 19.9028 60.8583 20.3442C59.7312 21.5589 58.5322 22.714 57.3754 23.9009C54.066 27.2947 50.7311 30.6631 47.3706 34.0062C43.5157 37.914 39.6382 41.7991 35.7379 45.6614C34.383 47.0104 33.0455 48.3796 31.6747 49.7121C31.2447 49.3214 30.8446 48.8875 30.4354 48.4746L28.2755 46.3049C25.9728 44.0184 23.6882 41.714 21.4216 39.3918C20.174 38.1271 18.9131 36.876 17.6386 35.6385C18.1111 35.1377 18.6159 34.661 19.1031 34.1741C19.9338 33.3438 20.7609 32.5079 21.6028 31.6891L29.1962 39.7234C29.9606 40.5246 30.6916 41.3639 31.474 42.1469C34.0166 39.5211 36.627 36.9571 39.2074 34.3686L56.986 16.5337Z" fill="white"/>
<path d="M59.6725 31.1943C59.7049 31.3938 59.7349 31.5937 59.7623 31.7939C59.7899 31.9941 59.8149 32.1946 59.8375 32.3955C59.8601 32.5963 59.8802 32.7974 59.8979 32.9988C59.9155 33.2001 59.9307 33.4016 59.9435 33.6033C59.9562 33.805 59.9665 34.0068 59.9743 34.2088C59.982 34.4107 59.9874 34.6127 59.9902 34.8149C59.993 35.0169 59.9934 35.219 59.9913 35.4211C59.9892 35.6232 59.9846 35.8252 59.9775 36.0272C59.9705 36.2292 59.9609 36.4311 59.949 36.6328C59.9369 36.8345 59.9225 37.0361 59.9056 37.2375C59.8886 37.4389 59.8692 37.64 59.8474 37.8409C59.8255 38.0419 59.8012 38.2425 59.7744 38.4428C59.7476 38.6431 59.7184 38.8431 59.6867 39.0427C59.6551 39.2423 59.621 39.4415 59.5844 39.6403C59.5479 39.839 59.5089 40.0373 59.4674 40.2351C59.4261 40.4329 59.3822 40.6302 59.336 40.827C59.2898 41.0237 59.2411 41.2199 59.1901 41.4154C59.1391 41.611 59.0856 41.8059 59.0298 42.0001C58.974 42.1943 58.9158 42.3879 58.8553 42.5807C58.7947 42.7735 58.7318 42.9656 58.6665 43.1568C58.6013 43.3481 58.5337 43.5385 58.4638 43.7282C58.3939 43.9178 58.3216 44.1065 58.2471 44.2944C58.1726 44.4822 58.0958 44.6692 58.0166 44.8551C57.9375 45.0411 57.8561 45.2261 57.7725 45.4101C57.6888 45.5941 57.603 45.777 57.5148 45.9589C57.4267 46.1408 57.3364 46.3215 57.2438 46.5012C57.1513 46.6808 57.0565 46.8593 56.9596 47.0367C56.8627 47.214 56.7636 47.3902 56.6624 47.5651C56.5611 47.74 56.4578 47.9137 56.3523 48.086C56.2468 48.2584 56.1392 48.4295 56.0295 48.5993C55.9199 48.769 55.8081 48.9374 55.6943 49.1044C55.5805 49.2714 55.4647 49.437 55.3468 49.6012C51.5895 54.9062 45.5851 58.5202 39.1951 59.5983C38.9924 59.6317 38.7895 59.6626 38.5861 59.691C38.3828 59.7195 38.1791 59.7454 37.9751 59.7689C37.7711 59.7924 37.5668 59.8134 37.3623 59.8319C37.1579 59.8504 36.9532 59.8663 36.7483 59.8798C36.5434 59.8933 36.3383 59.9043 36.1332 59.9127C35.928 59.9212 35.7228 59.9272 35.5175 59.9307C35.3122 59.9342 35.1068 59.9351 34.9015 59.9336C34.6962 59.932 34.4909 59.928 34.2856 59.9214C34.0804 59.9149 33.8753 59.9058 33.6703 59.8942C33.4653 59.8826 33.2604 59.8686 33.0558 59.852C32.8511 59.8354 32.6467 59.8164 32.4425 59.7948C32.2382 59.7732 32.0343 59.7491 31.8307 59.7226C31.6271 59.6961 31.4238 59.6671 31.2209 59.6355C31.018 59.604 30.8156 59.5701 30.6135 59.5336C30.4114 59.4972 30.2098 59.4582 30.0087 59.4169C29.8075 59.3755 29.6069 59.3317 29.4069 59.2854C29.2068 59.2391 29.0074 59.1904 28.8085 59.1392C28.6097 59.0881 28.4114 59.0346 28.2139 58.9786C28.0163 58.9226 27.8195 58.8642 27.6233 58.8034C27.4272 58.7426 27.2318 58.6795 27.0372 58.6139C26.8427 58.5483 26.6489 58.4804 26.4559 58.4101C26.263 58.3399 26.071 58.2672 25.8798 58.1922C25.6887 58.1172 25.4985 58.0399 25.3091 57.9603C25.1199 57.8807 24.9316 57.7987 24.7444 57.7145C24.5571 57.6303 24.3709 57.5438 24.1857 57.455C24.0006 57.3662 23.8165 57.2752 23.6336 57.182C23.4507 57.0887 23.2689 56.9932 23.0883 56.8955C22.9077 56.7978 22.7283 56.6979 22.5502 56.5958C22.372 56.4937 22.1951 56.3895 22.0195 56.2831C21.8439 56.1766 21.6696 56.0681 21.4966 55.9575C21.3236 55.8468 21.152 55.7341 20.9818 55.6192C20.8116 55.5044 20.6428 55.3875 20.4755 55.2685C20.3101 55.1518 20.1461 55.0332 19.9836 54.9127C19.8211 54.792 19.6602 54.6694 19.5007 54.5448C19.3412 54.4203 19.1833 54.2938 19.0269 54.1654C18.8705 54.0369 18.7157 53.9065 18.5626 53.7743C18.4094 53.6421 18.2579 53.508 18.108 53.372C17.9581 53.2361 17.8099 53.0983 17.6634 52.9587C17.5168 52.8191 17.372 52.6778 17.2289 52.5347C17.0859 52.3916 16.9446 52.2467 16.8051 52.1001C16.6656 51.9535 16.5279 51.8052 16.3921 51.6553C16.2562 51.5053 16.1222 51.3537 15.9901 51.2004C15.8579 51.0471 15.7276 50.8923 15.5992 50.7358C15.4709 50.5794 15.3445 50.4214 15.22 50.2619C15.0955 50.1023 14.973 49.9413 14.8525 49.7787C14.7319 49.6162 14.6134 49.4522 14.4969 49.2867C14.3804 49.1213 14.2659 48.9544 14.1534 48.7862C14.041 48.6179 13.9307 48.4483 13.8225 48.2773C13.7142 48.1063 13.608 47.9341 13.504 47.7605C13.3999 47.5869 13.298 47.4121 13.1983 47.236C13.0985 47.06 13.0009 46.8827 12.9055 46.7043C12.81 46.5258 12.7168 46.3462 12.6258 46.1655C12.5348 45.9847 12.446 45.8029 12.3595 45.62C12.2729 45.4371 12.1886 45.2531 12.1066 45.0681C12.0245 44.8832 11.9448 44.6972 11.8672 44.5103C11.7898 44.3233 11.7146 44.1355 11.6417 43.9466C11.5688 43.7579 11.4982 43.5683 11.43 43.3778C11.3618 43.1872 11.2959 42.9959 11.2324 42.8037C11.1688 42.6116 11.1076 42.4187 11.0488 42.2252C10.99 42.0315 10.9336 41.8372 10.8795 41.6422C10.8255 41.4472 10.7738 41.2515 10.7245 41.0553C10.6753 40.859 10.6284 40.6621 10.584 40.4647C10.5396 40.2673 10.4975 40.0693 10.4579 39.8709C10.4184 39.6724 10.3812 39.4735 10.3465 39.2741C10.3119 39.0708 10.2797 38.8671 10.2501 38.663C10.2204 38.4589 10.1933 38.2544 10.1688 38.0496C10.1442 37.8448 10.1221 37.6398 10.1026 37.4345C10.0831 37.2291 10.0661 37.0236 10.0516 36.8179C10.0372 36.6121 10.0252 36.4062 10.0159 36.2002C10.0065 35.9941 9.9997 35.788 9.99542 35.5818C9.99109 35.3756 9.98934 35.1693 9.99016 34.9631C9.99098 34.7568 9.99433 34.5506 10.0002 34.3444C10.0061 34.1382 10.0145 33.9322 10.0255 33.7262C10.0365 33.5202 10.05 33.3144 10.066 33.1088C10.0821 32.9032 10.1007 32.6978 10.1218 32.4926C10.1429 32.2875 10.1666 32.0826 10.1928 31.878C10.2189 31.6734 10.2476 31.4691 10.2788 31.2653C10.3101 31.0614 10.3438 30.8579 10.3801 30.6549C10.4163 30.4518 10.455 30.2493 10.4963 30.0472C10.5375 29.8451 10.5812 29.6435 10.6274 29.4425C10.6736 29.2415 10.7223 29.0411 10.7735 28.8413C10.8246 28.6415 10.8782 28.4423 10.9343 28.2438C10.9904 28.0453 11.0489 27.8476 11.1099 27.6505C11.1708 27.4535 11.2342 27.2572 11.3 27.0617C11.3658 26.8663 11.434 26.6716 11.5046 26.4778C11.5752 26.284 11.6481 26.0912 11.7235 25.8992C11.7989 25.7072 11.8766 25.5161 11.9566 25.326C12.0367 25.1359 12.1191 24.9469 12.2038 24.7589C12.2886 24.5708 12.3756 24.3838 12.465 24.1979C12.5543 24.012 12.646 23.8272 12.7398 23.6436C12.8338 23.46 12.9299 23.2775 13.0283 23.0962C13.1268 22.915 13.2274 22.735 13.3303 22.5562C13.4331 22.3774 13.5381 22.1999 13.6453 22.0237C13.7526 21.8475 13.862 21.6727 13.9735 21.4992C14.0851 21.3257 14.1988 21.1536 14.3146 20.983C14.4304 20.8122 14.5482 20.643 14.6682 20.4753C18.4881 15.1489 24.5136 11.3072 31.001 10.2561C31.2025 10.2232 31.4044 10.1927 31.6067 10.1647C31.809 10.1368 32.0116 10.1114 32.2145 10.0885C32.4175 10.0656 32.6207 10.0452 32.8241 10.0273C33.0275 10.0095 33.2312 9.99421 33.435 9.9814C33.6388 9.96864 33.8428 9.95839 34.0468 9.95064C34.2509 9.94294 34.4551 9.93777 34.6593 9.93512C34.8635 9.93253 35.0677 9.93244 35.2719 9.93485C35.4761 9.93731 35.6803 9.9423 35.8843 9.94982C36.0884 9.95734 36.2924 9.96741 36.4962 9.98004C36.7 9.99262 36.9037 10.0077 37.1071 10.0254C37.3106 10.0431 37.5138 10.0633 37.7167 10.086C37.9197 10.1087 38.1223 10.1339 38.3246 10.1617C38.527 10.1894 38.7289 10.2197 38.9305 10.2525C39.1321 10.2853 39.3332 10.3206 39.5339 10.3583C39.7346 10.3961 39.9348 10.4364 40.1345 10.4791C40.3342 10.5219 40.5333 10.5672 40.7318 10.6149C40.9305 10.6626 41.1284 10.7128 41.3257 10.7654C41.523 10.8181 41.7197 10.8732 41.9156 10.9307C42.1115 10.9882 42.3067 11.0482 42.5012 11.1106C42.6957 11.173 42.8893 11.2378 43.0822 11.305C43.275 11.3722 43.467 11.4417 43.6581 11.5137C43.8492 11.5857 44.0394 11.6601 44.2287 11.7368C44.418 11.8135 44.6063 11.8926 44.7936 11.9739C44.9809 12.0553 45.1671 12.1391 45.3523 12.2251C45.5375 12.3111 45.7216 12.3995 45.9047 12.4901C46.0877 12.5807 46.2695 12.6735 46.4502 12.7686C46.6309 12.8638 46.8104 12.9611 46.9888 13.0607C47.1671 13.1603 47.3441 13.2622 47.5198 13.3662C47.6956 13.4701 47.87 13.5763 48.0432 13.6846C48.2162 13.793 48.388 13.9035 48.5583 14.0161C48.7287 14.1287 48.8976 14.2434 49.0651 14.3602C49.2327 14.477 49.3987 14.5959 49.5633 14.7169C50.1884 15.1689 51.3654 16.0336 51.8527 16.5664L38.3405 30.1255C36.1073 32.3608 33.8432 34.5714 31.6349 36.831C30.1731 35.3346 28.638 33.9066 27.1458 32.4399C25.1559 30.484 23.1858 28.4883 21.1293 26.6026L15.0083 32.8069C14.132 33.6881 13.2817 34.6001 12.3749 35.4503L31.6528 54.8185C31.8172 55.0429 32.075 55.2497 32.275 55.4489L33.8555 57.0084L52.6099 38.2549L57.572 33.2699L58.7762 32.0425C59.0579 31.7545 59.3432 31.4273 59.6725 31.1943Z" fill="#DEFF5A"/>
</svg>
