<svg width="16" height="16" viewBox="0 0 16 16" fill="none" xmlns="http://www.w3.org/2000/svg">
<path d="M15.25 11.5005V7.50049C15.25 7.30158 15.171 7.11081 15.0303 6.97016C14.8896 6.82951 14.6989 6.75049 14.5 6.75049C14.3011 6.75049 14.1103 6.82951 13.9696 6.97016C13.829 7.11081 13.75 7.30158 13.75 7.50049V9.68799L9.0306 4.96799C8.96092 4.89807 8.87813 4.84259 8.78696 4.80474C8.6958 4.76688 8.59806 4.7474 8.49935 4.7474C8.40064 4.7474 8.3029 4.76688 8.21173 4.80474C8.12057 4.84259 8.03778 4.89807 7.9681 4.96799L5.99997 6.93799L2.0306 2.96986C1.8897 2.82897 1.69861 2.74981 1.49935 2.74981C1.30009 2.74981 1.10899 2.82897 0.968098 2.96986C0.827202 3.11076 0.748047 3.30185 0.748047 3.50111C0.748047 3.70037 0.827202 3.89147 0.968098 4.03236L5.4681 8.53236C5.53778 8.60228 5.62057 8.65776 5.71173 8.69561C5.8029 8.73347 5.90064 8.75295 5.99935 8.75295C6.09806 8.75295 6.1958 8.73347 6.28696 8.69561C6.37813 8.65776 6.46092 8.60228 6.5306 8.53236L8.49997 6.56299L12.6875 10.7505H10.5C10.3011 10.7505 10.1103 10.8295 9.96964 10.9702C9.82899 11.1108 9.74997 11.3016 9.74997 11.5005C9.74997 11.6994 9.82899 11.8902 9.96964 12.0308C10.1103 12.1715 10.3011 12.2505 10.5 12.2505H14.5C14.6989 12.2505 14.8896 12.1715 15.0303 12.0308C15.171 11.8902 15.25 11.6994 15.25 11.5005Z" fill="#1F1F1F"/>
</svg>
