<svg width="16" height="16" viewBox="0 0 16 16" fill="none" xmlns="http://www.w3.org/2000/svg">
<path d="M15.25 3.5V7.5C15.25 7.69891 15.171 7.88968 15.0303 8.03033C14.8896 8.17098 14.6989 8.25 14.5 8.25C14.3011 8.25 14.1103 8.17098 13.9696 8.03033C13.829 7.88968 13.75 7.69891 13.75 7.5V5.3125L9.0306 10.0325C8.96092 10.1024 8.87813 10.1579 8.78696 10.1958C8.6958 10.2336 8.59806 10.2531 8.49935 10.2531C8.40064 10.2531 8.3029 10.2336 8.21173 10.1958C8.12057 10.1579 8.03778 10.1024 7.9681 10.0325L5.99997 8.0625L2.0306 12.0306C1.8897 12.1715 1.69861 12.2507 1.49935 12.2507C1.30009 12.2507 1.10899 12.1715 0.968098 12.0306C0.827202 11.8897 0.748047 11.6986 0.748047 11.4994C0.748047 11.3001 0.827202 11.109 0.968098 10.9681L5.4681 6.46813C5.53778 6.39821 5.62057 6.34273 5.71173 6.30487C5.8029 6.26702 5.90064 6.24753 5.99935 6.24753C6.09806 6.24753 6.1958 6.26702 6.28696 6.30487C6.37813 6.34273 6.46092 6.39821 6.5306 6.46813L8.49997 8.4375L12.6875 4.25H10.5C10.3011 4.25 10.1103 4.17098 9.96964 4.03033C9.82899 3.88968 9.74997 3.69891 9.74997 3.5C9.74997 3.30109 9.82899 3.11032 9.96964 2.96967C10.1103 2.82902 10.3011 2.75 10.5 2.75H14.5C14.6989 2.75 14.8896 2.82902 15.0303 2.96967C15.171 3.11032 15.25 3.30109 15.25 3.5Z" fill="#1F1F1F"/>
</svg>
