<svg width="55" height="67" viewBox="0 0 55 67" fill="none" xmlns="http://www.w3.org/2000/svg">
<g clip-path="url(#clip0_2144_9405)">
<path d="M32.5394 6.08167C32.8013 6.05379 33.0369 6.06481 33.2742 6.21569C33.5257 6.37562 33.7101 6.66446 33.7922 6.98918C33.8834 7.35005 33.8586 7.7603 33.7008 8.08946C33.5359 8.43351 33.2821 8.61649 32.9712 8.71711C32.7415 8.74843 32.5216 8.72813 32.3085 8.61398C32.292 8.60509 32.2756 8.5957 32.2595 8.58581C32.2433 8.57597 32.2274 8.56564 32.2116 8.55481C32.1959 8.54398 32.1804 8.5327 32.1652 8.52097C32.1499 8.50924 32.1349 8.49706 32.1202 8.48443C32.1054 8.4718 32.0909 8.45871 32.0767 8.44518C32.0624 8.43169 32.0485 8.41778 32.0349 8.40348C32.0212 8.38917 32.0079 8.37445 31.9949 8.35933C31.9818 8.3442 31.9691 8.32869 31.9567 8.31279C31.9443 8.29694 31.9323 8.28071 31.9206 8.26413C31.9089 8.2475 31.8975 8.23055 31.8865 8.21327C31.8754 8.196 31.8648 8.17843 31.8545 8.16055C31.8442 8.14263 31.8343 8.12442 31.8248 8.1059C31.8152 8.08742 31.806 8.06866 31.7973 8.04963C31.7885 8.03059 31.7802 8.0113 31.7722 7.99175C31.7642 7.9722 31.7567 7.95243 31.7495 7.93245C31.7423 7.91247 31.7356 7.89228 31.7293 7.87187C31.6213 7.52859 31.6249 7.12975 31.7601 6.7978C31.9231 6.39772 32.2026 6.21446 32.5394 6.08167Z" fill="white"/>
<path d="M21.3679 6.72255C21.5977 6.69749 21.8079 6.70156 22.0234 6.81281C22.2903 6.95057 22.4962 7.22476 22.6014 7.54728C22.6086 7.56885 22.6154 7.59066 22.6217 7.6127C22.628 7.6347 22.6338 7.65687 22.6391 7.67922C22.6444 7.7016 22.6492 7.72414 22.6536 7.74683C22.658 7.76947 22.6618 7.79225 22.6652 7.81515C22.6686 7.83805 22.6715 7.86106 22.6739 7.88418C22.6763 7.90725 22.6782 7.93039 22.6796 7.95359C22.681 7.9768 22.6819 8.00002 22.6823 8.02327C22.6827 8.04651 22.6826 8.06978 22.682 8.09307C22.6814 8.11632 22.6803 8.13952 22.6787 8.16268C22.6771 8.18588 22.675 8.209 22.6725 8.23203C22.6699 8.25511 22.6668 8.27807 22.6632 8.30093C22.6596 8.32379 22.6556 8.34654 22.651 8.36919C22.6465 8.39179 22.6415 8.41424 22.6359 8.43654C22.6304 8.45884 22.6244 8.48095 22.618 8.50286C22.6115 8.52482 22.6046 8.54654 22.5972 8.56803C22.5898 8.58955 22.5819 8.61082 22.5736 8.63183C22.4218 9.01307 22.1579 9.23421 21.833 9.36492C21.5714 9.40875 21.3232 9.39425 21.083 9.24962C21.0669 9.23995 21.051 9.22979 21.0352 9.21913C21.0195 9.20852 21.004 9.19741 20.9888 9.18581C20.9735 9.17421 20.9585 9.16215 20.9438 9.14965C20.9291 9.13719 20.9146 9.12426 20.9004 9.11085C20.8863 9.09749 20.8724 9.08369 20.8587 9.06947C20.8451 9.05525 20.8318 9.04062 20.8188 9.02558C20.8058 9.01054 20.7932 8.99511 20.7809 8.9793C20.7685 8.96349 20.7565 8.94731 20.7449 8.93077C20.7332 8.91422 20.7219 8.89734 20.711 8.88011C20.7001 8.86288 20.6895 8.84532 20.6793 8.82745C20.6691 8.80957 20.6593 8.7914 20.6499 8.77292C20.6405 8.75449 20.6314 8.73575 20.6228 8.71672C20.6142 8.69768 20.6059 8.67841 20.5981 8.6589C20.5903 8.6394 20.5829 8.61965 20.5759 8.59967C20.5689 8.57969 20.5624 8.55952 20.5563 8.53915C20.5501 8.51878 20.5444 8.49824 20.5392 8.47753C20.5334 8.45536 20.528 8.43302 20.5232 8.4105C20.5183 8.38799 20.5139 8.36534 20.51 8.34257C20.506 8.3198 20.5026 8.29694 20.4996 8.27399C20.4966 8.251 20.4941 8.22795 20.4921 8.20483C20.49 8.18172 20.4885 8.15853 20.4874 8.13529C20.4864 8.11208 20.4858 8.08886 20.4857 8.06561C20.4856 8.04237 20.4859 8.01912 20.4868 7.99588C20.4877 7.97267 20.489 7.94949 20.4908 7.92633C20.4927 7.90317 20.495 7.8801 20.4978 7.85711C20.5005 7.83408 20.5038 7.81115 20.5075 7.78834C20.5112 7.76552 20.5154 7.74283 20.5201 7.72027C20.5248 7.69772 20.5299 7.67531 20.5355 7.65305C20.5411 7.63079 20.5472 7.60871 20.5537 7.58679C20.5602 7.56492 20.5672 7.54324 20.5746 7.52176C20.582 7.50027 20.5899 7.47903 20.5982 7.45801C20.6065 7.437 20.6152 7.41625 20.6244 7.39575C20.7911 7.02424 21.0457 6.84742 21.3679 6.72255Z" fill="white"/>
<path d="M42.6473 10.1424C42.96 10.1092 43.2522 10.1272 43.5406 10.2957C43.563 10.3091 43.5851 10.3232 43.6068 10.3379C43.6286 10.3526 43.6501 10.368 43.6712 10.384C43.6924 10.4 43.7132 10.4167 43.7336 10.434C43.7541 10.4512 43.7741 10.4691 43.7938 10.4876C43.8135 10.5061 43.8328 10.5252 43.8517 10.5448C43.8706 10.5645 43.8891 10.5847 43.9071 10.6055C43.9252 10.6263 43.9428 10.6476 43.9599 10.6694C43.9771 10.6912 43.9937 10.7136 44.0099 10.7364C44.0261 10.7593 44.0419 10.7826 44.0571 10.8064C44.0724 10.8302 44.0871 10.8544 44.1013 10.8791C44.1155 10.9038 44.1292 10.9289 44.1424 10.9544C44.1556 10.9799 44.1682 11.0058 44.1802 11.0321C44.1923 11.0583 44.2038 11.085 44.2148 11.1119C44.2257 11.1389 44.2361 11.1662 44.246 11.1938C44.2558 11.2214 44.265 11.2492 44.2736 11.2774C44.2823 11.3055 44.2904 11.3339 44.2978 11.3626C44.3055 11.3906 44.3125 11.4188 44.319 11.4473C44.3255 11.4757 44.3313 11.5044 44.3365 11.5331C44.3418 11.5619 44.3465 11.5909 44.3505 11.62C44.3546 11.649 44.358 11.6782 44.3608 11.7075C44.3636 11.7368 44.3658 11.7661 44.3674 11.7955C44.369 11.825 44.37 11.8544 44.3703 11.8839C44.3707 11.9134 44.3704 11.9428 44.3696 11.9723C44.3687 12.0017 44.3672 12.0312 44.365 12.0605C44.3629 12.0899 44.3602 12.1192 44.3568 12.1483C44.3535 12.1776 44.3495 12.2067 44.3449 12.2356C44.3404 12.2646 44.3352 12.2934 44.3294 12.3221C44.3236 12.3507 44.3173 12.3792 44.3103 12.4075C44.3033 12.4357 44.2957 12.4637 44.2876 12.4916C44.2794 12.5194 44.2707 12.5469 44.2614 12.5742C44.2521 12.6015 44.2422 12.6285 44.2318 12.6551C44.2213 12.6818 44.2103 12.7081 44.1988 12.7342C43.9781 13.2223 43.622 13.4714 43.1914 13.6238C42.865 13.6685 42.5622 13.637 42.2645 13.4512C41.9107 13.2303 41.6152 12.8351 41.5025 12.3728C41.4958 12.3443 41.4896 12.3156 41.4841 12.2867C41.4785 12.2577 41.4735 12.2287 41.4692 12.1995C41.4648 12.1702 41.4611 12.1409 41.4581 12.1115C41.455 12.082 41.4525 12.0525 41.4507 12.0229C41.4488 11.9934 41.4476 11.9637 41.447 11.934C41.4464 11.9044 41.4465 11.8747 41.4471 11.8451C41.4478 11.8154 41.4491 11.7858 41.451 11.7562C41.4529 11.7266 41.4554 11.6971 41.4586 11.6677C41.4617 11.6383 41.4655 11.609 41.4699 11.5797C41.4743 11.5506 41.4794 11.5215 41.485 11.4926C41.4906 11.4637 41.4968 11.435 41.5037 11.4065C41.5105 11.378 41.5179 11.3497 41.526 11.3216C41.534 11.2935 41.5426 11.2657 41.5518 11.2382C41.561 11.2107 41.5708 11.1835 41.5812 11.1565C41.5916 11.1296 41.6025 11.103 41.614 11.0767C41.6255 11.0504 41.6375 11.0245 41.6501 10.999C41.8733 10.5491 42.2277 10.2672 42.6473 10.1424Z" fill="white"/>
<path d="M7.67621 16.821C8.55535 16.7995 9.43852 16.8197 10.3181 16.8168C10.8844 16.815 11.4864 16.7647 12.0479 16.8322C12.1824 16.8483 12.3158 16.8853 12.428 16.9796C12.4448 16.9938 12.461 17.0089 12.4765 17.0249C12.492 17.0411 12.5068 17.0581 12.5209 17.0759C12.535 17.0938 12.5482 17.1126 12.5607 17.1321C12.5732 17.1516 12.5849 17.1719 12.5956 17.1928C12.6064 17.2137 12.6162 17.2353 12.6252 17.2574C12.6341 17.2796 12.6421 17.3022 12.6491 17.3254C12.6562 17.3485 12.6622 17.372 12.6672 17.3958C12.6722 17.4197 12.6763 17.4438 12.6792 17.4681C12.7069 17.6874 12.6509 17.9236 12.5388 18.0989C12.4111 18.2989 12.2405 18.3458 12.042 18.374L9.25655 18.3717C8.73829 18.3727 8.1776 18.4256 7.66348 18.3587C7.54177 18.3428 7.38741 18.3058 7.28638 18.2171C7.1464 18.0943 7.04382 17.8675 7.02835 17.6615C7.02663 17.6367 7.02595 17.612 7.02631 17.5872C7.02663 17.5623 7.02797 17.5376 7.03034 17.5129C7.0327 17.4883 7.03606 17.4639 7.04043 17.4396C7.0448 17.4153 7.05015 17.3914 7.05649 17.3678C7.06283 17.3441 7.07012 17.3209 7.07835 17.2982C7.08659 17.2754 7.09574 17.2532 7.1058 17.2315C7.11586 17.2098 7.12678 17.1888 7.13856 17.1684C7.15038 17.148 7.16298 17.1284 7.17638 17.1094C7.31576 16.9094 7.46631 16.8485 7.67621 16.821Z" fill="black"/>
<path d="M42.7613 16.8176C43.7315 16.7669 44.7139 16.8059 45.6853 16.8079C46.2352 16.8092 46.8299 16.7441 47.3734 16.8173C47.5095 16.8356 47.6427 16.8782 47.7572 16.971C47.7742 16.9848 47.7905 16.9996 47.8063 17.0155C47.822 17.0313 47.837 17.048 47.8513 17.0657C47.8657 17.0833 47.8792 17.1018 47.8919 17.1211C47.9047 17.1404 47.9166 17.1605 47.9276 17.1812C47.9386 17.202 47.9488 17.2234 47.958 17.2454C47.9672 17.2674 47.9755 17.29 47.9828 17.313C47.9901 17.336 47.9964 17.3594 48.0017 17.3832C48.007 17.407 48.0113 17.431 48.0146 17.4554C48.0185 17.4823 48.0214 17.5095 48.023 17.5368C48.0247 17.5642 48.0252 17.5915 48.0246 17.6189C48.0239 17.6462 48.022 17.6735 48.019 17.7007C48.016 17.7279 48.0118 17.7548 48.0065 17.7814C48.0012 17.8081 47.9947 17.8343 47.9872 17.8601C47.9796 17.886 47.9709 17.9113 47.9612 17.9361C47.9514 17.9609 47.9407 17.985 47.9289 18.0084C47.9171 18.0319 47.9043 18.0546 47.8905 18.0764C47.7684 18.2703 47.6228 18.335 47.4293 18.3734L44.3638 18.3705C43.8868 18.3704 43.3815 18.4139 42.9085 18.3676C42.7687 18.3539 42.6311 18.3129 42.509 18.2283C42.3639 18.1279 42.2522 17.9658 42.2099 17.7699C42.169 17.581 42.1995 17.3774 42.2824 17.2111C42.3957 16.9837 42.5508 16.8748 42.7613 16.8176Z" fill="black"/>
<path d="M42.9442 33.7991C43.3655 33.8365 43.7949 33.8183 44.2169 33.8076C44.2105 34.2633 44.2112 34.7193 44.2093 35.175L45.3996 35.1713L45.3935 36.7637L44.2074 36.7546L44.2086 38.0846C43.7869 38.0808 43.3652 38.0806 42.9435 38.0842L42.9436 36.7522L41.7677 36.7555L41.783 35.1813L42.9406 35.1745L42.9442 33.7991Z" fill="black"/>
<path d="M14.0445 22.6471C14.2322 22.626 14.4156 22.609 14.5887 22.7196C14.7928 22.8499 14.86 23.095 14.9159 23.3442C14.8975 23.4373 14.8789 23.5314 14.8532 23.6221C14.826 23.7183 14.7751 23.792 14.7201 23.8675C14.2762 24.4766 13.7514 25.0377 13.2779 25.6169C12.5844 26.4652 11.9041 27.3627 11.1696 28.159C11.0919 28.2432 11.0128 28.3089 10.919 28.3656C10.7872 28.4009 10.6757 28.4158 10.5426 28.3756C10.5228 28.3698 10.5033 28.3627 10.484 28.3545C10.4648 28.3463 10.446 28.337 10.4275 28.3265C10.409 28.316 10.391 28.3045 10.3735 28.2918C10.356 28.2792 10.3391 28.2656 10.3228 28.251C10.3064 28.2363 10.2907 28.2206 10.2756 28.2041C10.2605 28.1876 10.2462 28.1702 10.2326 28.152C10.2189 28.1337 10.2061 28.1147 10.1941 28.0949C10.182 28.075 10.1709 28.0546 10.1605 28.0334C10.0669 27.8396 10.0547 27.6154 10.1076 27.4035C10.136 27.2901 10.2035 27.1999 10.2685 27.1134C10.7292 26.4989 11.2468 25.9235 11.7285 25.3306C12.3962 24.5087 13.0609 23.6345 13.7742 22.8714C13.8584 22.7813 13.9453 22.7115 14.0445 22.6471Z" fill="black"/>
<path d="M40.5699 22.6092C40.6682 22.6038 40.7682 22.5961 40.8642 22.6276C40.9633 22.6601 41.0599 22.7285 41.1373 22.8088C41.5447 23.2318 44.7441 27.0074 44.8909 27.3771C44.9473 27.5192 44.9293 27.7471 44.8791 27.8897C44.7891 28.1456 44.6167 28.2699 44.4121 28.3718C44.2857 28.3811 44.1536 28.3862 44.0341 28.3288C43.9225 28.2752 43.8339 28.1793 43.7456 28.0843C43.0646 27.3518 42.4294 26.532 41.7848 25.7534C41.3107 25.181 40.8047 24.6308 40.3471 24.041C40.2572 23.9252 40.13 23.7695 40.0817 23.6214C40.0222 23.4391 40.0306 23.2207 40.1007 23.0446C40.199 22.7976 40.3614 22.6888 40.5699 22.6092Z" fill="black"/>
<path d="M40.8246 5.59694C40.9162 5.58379 41.0216 5.57411 41.1128 5.59225C41.2807 5.62562 41.4533 5.77109 41.5456 5.94045C41.6365 6.10735 41.6583 6.30722 41.6182 6.49941C41.5804 6.68135 41.5028 6.80616 41.4031 6.94561C40.9397 7.59408 40.3778 8.18195 39.8706 8.78549L38.6962 10.1973C38.3436 10.6233 37.9751 11.1561 37.5384 11.4554C37.4371 11.4666 37.3398 11.4692 37.2401 11.4396C37.0609 11.3864 36.894 11.2392 36.8023 11.0467C36.708 10.8488 36.6996 10.6225 36.7601 10.4086C36.7918 10.2963 36.8546 10.2116 36.92 10.125C37.4955 9.36254 38.1498 8.66793 38.758 7.94264C39.3556 7.23011 39.9318 6.44871 40.5685 5.78927C40.6476 5.70732 40.7303 5.65005 40.8246 5.59694Z" fill="black"/>
<path d="M9.182 33.5749L10.4761 33.5676C10.4683 34.0487 10.4642 34.5299 10.4638 35.0111L11.6807 35.0159L11.6736 36.5645C11.2667 36.56 10.8599 36.5642 10.4532 36.577C10.4583 37.0809 10.4589 37.5848 10.4548 38.0887L9.1726 38.0833L9.17416 36.5673L7.98736 36.5629L7.98553 35.0111L9.17711 35.015C9.18861 34.536 9.18125 34.0543 9.182 33.5749Z" fill="black"/>
<path d="M13.9513 5.59794C14.0667 5.58745 14.2066 5.58529 14.3124 5.64844C14.5768 5.80617 16.3963 8.07746 16.7438 8.49132C17.1785 9.009 17.6415 9.50484 18.0546 10.047C18.1484 10.1701 18.2789 10.3305 18.3194 10.4919C18.3664 10.6792 18.3549 10.8953 18.2778 11.0686C18.1731 11.3041 18.0126 11.419 17.8049 11.4903C17.7086 11.4954 17.6006 11.4981 17.5075 11.4656C17.394 11.4259 17.3155 11.3389 17.2297 11.2461C16.7264 10.7017 16.2625 10.0874 15.7787 9.51664C15.105 8.7218 14.4037 7.94656 13.754 7.12414C13.6646 7.01102 13.5156 6.84121 13.4671 6.69584C13.3971 6.48555 13.3889 6.23593 13.4742 6.03053C13.5765 5.78403 13.7413 5.67907 13.9513 5.59794Z" fill="black"/>
<path d="M27.4958 4.58179C27.6255 4.72387 28.4376 6.71746 28.5974 7.07798C29.1277 8.28446 29.6683 9.48429 30.2191 10.6775C30.6351 11.5767 31.0879 12.4775 31.4457 13.4124C32.5621 13.6959 33.672 14.114 34.7712 14.4853L38.8208 15.8084C38.1474 16.5671 37.4447 17.2892 36.7586 18.0313L33.54 21.528L33.539 22.829C34.7906 22.9587 35.779 23.4506 36.6824 24.5208C36.7253 24.5715 36.7674 24.6233 36.8087 24.6759C36.85 24.7286 36.8905 24.7821 36.9301 24.8366C36.9697 24.8911 37.0085 24.9464 37.0464 25.0027C37.0843 25.0589 37.1214 25.1159 37.1575 25.1738C37.1936 25.2317 37.2288 25.2903 37.2631 25.3497C37.2974 25.4092 37.3308 25.4694 37.3633 25.5304C37.3957 25.5913 37.4271 25.653 37.4576 25.7153C37.4881 25.7777 37.5177 25.8407 37.5462 25.9044C37.5747 25.9681 37.6023 26.0324 37.6289 26.0973C37.6554 26.1622 37.6809 26.2278 37.7054 26.2938C37.7299 26.3599 37.7533 26.4265 37.7758 26.4936C37.7982 26.5608 37.8195 26.6284 37.8398 26.6964C37.8602 26.7645 37.8794 26.833 37.8976 26.902C37.9158 26.9709 37.9329 27.0403 37.9489 27.1099C37.9649 27.1797 37.9798 27.2497 37.9937 27.3201C38.0075 27.3905 38.0202 27.4612 38.0318 27.5321C38.1763 28.4278 38.1191 29.4092 38.1218 30.3206L38.1286 34.6309L38.1354 50.2139C39.725 50.3229 43.1315 51.3038 44.3026 52.6372C44.6277 53.0073 44.793 53.4357 44.7999 53.9788C44.8089 54.7007 44.7842 55.4256 44.7835 56.1481C44.783 56.7579 44.8472 57.8307 44.7351 58.3935C44.6725 58.7078 44.5293 58.9669 44.3418 59.193C43.8125 59.8312 43.0062 60.1942 42.3087 60.4908C40.0363 61.457 37.5674 61.8587 35.1773 62.1399C33.9049 62.2899 32.6303 62.4021 31.3533 62.4765C30.0763 62.551 28.7986 62.5875 27.5201 62.5862C23.586 62.6131 14.3277 62.1367 11.1902 59.6662C10.7814 59.3443 10.3794 58.9268 10.2833 58.3238C10.2331 58.0093 10.2537 57.6688 10.2551 57.3501L10.2617 55.8134C10.2615 55.1937 10.2023 54.2661 10.2758 53.6805C10.3135 53.3796 10.4169 53.1112 10.5642 52.8662C11.5844 51.1693 15.1908 50.3752 16.8526 50.0609C16.8943 49.4076 16.8657 48.7325 16.8651 48.0761L16.8622 44.462L16.8618 33.0906L16.8644 30.0303C16.8647 29.2305 16.8321 28.4099 16.9465 27.6196C16.9651 27.498 16.9869 27.3772 17.0118 27.2572C17.0368 27.1373 17.0648 27.0183 17.0959 26.9004C17.127 26.7825 17.1612 26.6659 17.1984 26.5506C17.2356 26.4353 17.2758 26.3215 17.3189 26.2092C17.362 26.0968 17.408 25.9862 17.4569 25.8774C17.5058 25.7685 17.5575 25.6616 17.6119 25.5566C17.6664 25.4517 17.7235 25.3488 17.7833 25.2481C17.8431 25.1474 17.9055 25.0491 17.9704 24.953C18.8388 23.6845 20.0544 22.9485 21.409 22.7959L21.4118 21.4844C20.3629 20.3841 19.3423 19.2385 18.3046 18.1223C17.5651 17.327 16.7568 16.5516 16.0876 15.6746C17.1114 15.4158 18.1249 15.0633 19.1351 14.7361C19.949 14.4725 20.7675 14.2338 21.5829 13.9776C22.2564 13.7659 22.9298 13.541 23.612 13.3734C24.0605 12.1384 24.733 10.7902 25.2739 9.5863C26.0211 7.92322 26.7352 6.23525 27.4958 4.58179Z" fill="black"/>
<path d="M38.1111 51.7644C39.3893 51.9797 40.717 52.2814 41.9343 52.8074C42.254 52.9456 43.2702 53.4139 43.3953 53.8145C43.4092 53.8591 43.4094 53.9264 43.3917 53.9681C43.2637 54.2697 42.5987 54.5773 42.331 54.7155C40.9727 55.3456 39.5505 55.7127 38.1126 55.962C38.09 54.5648 38.1072 53.1619 38.1111 51.7644Z" fill="white"/>
<path d="M16.7448 51.72C16.7821 51.71 16.8121 51.7136 16.8499 51.7162C16.9257 51.87 16.8729 55.5246 16.8605 55.9762C15.6806 55.8608 13.9143 55.3093 12.7973 54.8026C12.5792 54.7055 12.3506 54.5738 12.1469 54.4389C11.9955 54.3386 11.7489 54.1746 11.714 53.952C11.6949 53.8299 11.7249 53.7343 11.7855 53.6389C12.4204 52.6395 15.7104 51.8943 16.7448 51.72Z" fill="white"/>
<path d="M21.2366 24.422C21.3053 24.4109 21.3439 24.3856 21.4037 24.4334C21.4518 25.0246 21.4164 25.6559 21.4172 26.2512C21.4216 27.4301 21.4203 28.609 21.4133 29.7879C23.466 28.7073 25.4456 27.4266 27.4779 26.2933C28.0663 26.5886 28.6344 26.9571 29.207 27.2943L32.0916 28.988C32.5751 29.2734 33.0582 29.5867 33.5557 29.8335C33.5728 28.022 33.5432 26.2117 33.5527 24.4006C33.6722 24.4192 33.7914 24.4401 33.9102 24.4635C34.8867 24.6592 35.6608 25.3641 36.2214 26.3156C36.7375 27.3269 36.7817 28.1327 36.7842 29.2862L36.7858 30.8691L18.1932 30.9327L18.1938 29.2808C18.196 28.1176 18.232 27.2489 18.7967 26.2506C19.3728 25.2323 20.2411 24.6463 21.2366 24.422Z" fill="white"/>
<path d="M43.366 55.8979C43.3897 56.1417 43.3737 56.4058 43.374 56.6516L43.3739 58.1151C42.15 59.2969 38.6722 60.0083 37.1051 60.2832C33.9163 60.8427 30.6793 60.9817 27.4608 60.9822C26.0937 60.9945 24.7275 60.9597 23.3622 60.8779C21.9968 60.796 20.6345 60.6672 19.2753 60.4916C17.9237 60.3107 16.5799 60.0879 15.2508 59.7363C14.1519 59.4455 12.7191 59.0599 11.8072 58.2451C11.7466 58.1806 11.6905 58.1022 11.6337 58.0324C11.612 57.3244 11.6262 56.6092 11.6254 55.9003C11.9049 56.063 12.1903 56.2093 12.4815 56.3391C18.9087 59.2596 37.0909 59.3014 43.366 55.8979Z" fill="#62615A"/>
<path d="M27.4951 7.99731C27.606 8.09992 30.2019 13.9723 30.5408 14.7155C31.4809 15.0693 32.4442 15.3624 33.3949 15.6737C34.3178 15.976 35.2354 16.3 36.1621 16.5854C35.5106 17.2463 34.892 17.9543 34.2595 18.6411C33.5883 19.3699 32.9015 20.0811 32.2426 20.8257C32.284 22.9769 32.2537 25.1366 32.2548 27.2884C31.7493 27.02 27.5885 24.5375 27.4605 24.5289C26.9909 24.7563 26.5282 25.0724 26.0724 25.3417C24.9614 25.9982 23.8503 26.684 22.7215 27.2941C22.7052 26.0684 22.7221 24.8389 22.7238 23.613C22.725 22.6881 22.7012 21.7519 22.7402 20.8284C22.3515 20.3296 21.8931 19.8858 21.4694 19.4297C20.5671 18.4581 19.6482 17.4991 18.7594 16.5104L24.4588 14.7499C24.7469 14.1911 24.9857 13.5869 25.2393 13.0045C25.6701 12.0142 26.1081 11.0284 26.5533 10.0472C26.8582 9.36217 27.1471 8.65216 27.4951 7.99731Z" fill="white"/>
<path d="M27.2379 16.8151C27.6006 16.7848 27.9458 16.8627 28.253 17.1056C28.5869 17.3695 28.8324 17.7859 28.9057 18.2604C28.9101 18.2888 28.9139 18.3173 28.9171 18.3459C28.9202 18.3745 28.9228 18.4032 28.9248 18.432C28.9268 18.4607 28.9282 18.4895 28.929 18.5184C28.9298 18.5472 28.93 18.5761 28.9296 18.605C28.9292 18.6339 28.9282 18.6627 28.9266 18.6915C28.925 18.7203 28.9228 18.749 28.9201 18.7777C28.9173 18.8064 28.9139 18.8349 28.91 18.8634C28.906 18.8919 28.9015 18.9202 28.8963 18.9484C28.8912 18.9766 28.8855 19.0047 28.8791 19.0325C28.8729 19.0604 28.866 19.0881 28.8586 19.1155C28.8511 19.1429 28.8431 19.1701 28.8346 19.1971C28.826 19.2241 28.8169 19.2508 28.8072 19.2772C28.7976 19.3036 28.7874 19.3298 28.7766 19.3556C28.7658 19.3814 28.7546 19.4069 28.7428 19.432C28.731 19.4572 28.7186 19.482 28.7058 19.5064C28.693 19.5308 28.6796 19.5548 28.6658 19.5785C28.4165 20.0116 28.0859 20.2225 27.6632 20.3154C27.272 20.3774 26.8904 20.3066 26.556 20.0413C26.5354 20.0249 26.5152 20.0079 26.4954 19.9903C26.4755 19.9726 26.4561 19.9544 26.437 19.9355C26.4179 19.9167 26.3992 19.8973 26.381 19.8773C26.3627 19.8574 26.3449 19.8369 26.3275 19.8159C26.3101 19.7948 26.2932 19.7732 26.2767 19.7511C26.2603 19.7291 26.2443 19.7065 26.2288 19.6834C26.2132 19.6604 26.1982 19.6369 26.1837 19.6129C26.1692 19.5889 26.1552 19.5645 26.1417 19.5397C26.1282 19.5148 26.1153 19.4896 26.1029 19.464C26.0905 19.4384 26.0786 19.4124 26.0673 19.386C26.056 19.3597 26.0452 19.333 26.035 19.306C26.0249 19.279 26.0153 19.2517 26.0063 19.2241C25.9972 19.1965 25.9888 19.1687 25.9809 19.1406C25.9731 19.1125 25.9658 19.0842 25.9592 19.0556C25.9525 19.0271 25.9465 18.9983 25.9411 18.9695C25.9357 18.9405 25.9308 18.9115 25.9267 18.8823C25.9228 18.853 25.9194 18.8235 25.9167 18.794C25.914 18.7645 25.9119 18.735 25.9103 18.7053C25.9088 18.6757 25.9078 18.6461 25.9075 18.6164C25.9072 18.5867 25.9074 18.557 25.9082 18.5274C25.9091 18.4977 25.9105 18.4681 25.9126 18.4385C25.9146 18.4089 25.9172 18.3794 25.9204 18.3499C25.9237 18.3205 25.9275 18.2912 25.9319 18.262C25.9363 18.2328 25.9413 18.2037 25.9468 18.1748C25.9524 18.1459 25.9585 18.1172 25.9652 18.0886C25.9719 18.06 25.9792 18.0316 25.9871 18.0035C25.9949 17.9754 26.0033 17.9474 26.0123 17.9198C26.0213 17.8921 26.0308 17.8647 26.0409 17.8376C26.051 17.8105 26.0616 17.7837 26.0728 17.7572C26.0839 17.7307 26.0956 17.7045 26.1078 17.6787C26.1199 17.6529 26.1327 17.6274 26.1459 17.6023C26.1591 17.5773 26.1728 17.5526 26.187 17.5283C26.4415 17.1014 26.8179 16.8926 27.2379 16.8151Z" fill="#1AC207"/>
<path d="M18.3765 32.4855C20.586 32.4419 22.8003 32.4799 25.0102 32.4806L36.7908 32.4587L36.7859 56.2516C36.5707 56.2775 36.3557 56.3061 36.141 56.3375C34.9752 56.4958 33.8071 56.6221 32.6366 56.7163C31.466 56.8104 30.2943 56.8724 29.1214 56.9022C27.9485 56.932 26.7756 56.9295 25.6028 56.8948C24.43 56.8601 23.2584 56.7932 22.0882 56.6941C20.7941 56.5895 19.4852 56.4817 18.1999 56.2744L18.2021 39.9721L18.1977 34.8259C18.1971 34.112 18.1379 33.2223 18.1969 32.5311C18.2618 32.4802 18.3 32.4891 18.3765 32.4855Z" fill="#DEFE5A"/>
</g>
<defs>
<clipPath id="clip0_2144_9405">
<rect width="55" height="66" fill="white" transform="translate(0 0.5)"/>
</clipPath>
</defs>
</svg>
