<svg width="24" height="24" viewBox="0 0 24 24" fill="none" xmlns="http://www.w3.org/2000/svg">
<path d="M9.00003 14.9999H6C4.89543 14.9999 4 14.1045 4 12.9999V5.99991C4 4.89534 4.89543 3.99991 6 3.99991H13C14.1046 3.99991 15 4.89534 15 5.99991V8.99991M9.00003 14.9999H13C14.1046 14.9999 15 14.1045 15 12.9999V8.99991M9.00003 14.9999V17.9999C9.00003 19.1045 9.89546 19.9999 11 19.9999H18C19.1046 19.9999 20 19.1045 20 17.9999V10.9999C20 9.89534 19.1046 8.99991 18 8.99991H15" stroke="#252A31" stroke-width="2" stroke-linecap="round" stroke-linejoin="round"/>
</svg>
