<svg width="16" height="16" viewBox="0 0 16 16" fill="none" xmlns="http://www.w3.org/2000/svg">
<path d="M9.2949 0.580146C10.3952 -0.639284 12.413 0.198826 12.3296 1.8393C12.2779 2.87204 13.128 3.72206 14.1607 3.67043C15.7972 3.58701 16.6353 5.60483 15.4199 6.7051C14.6532 7.39624 14.6532 8.59978 15.4199 9.2949C16.6393 10.3952 15.8012 12.413 14.1607 12.3296C13.128 12.2779 12.2779 13.128 12.3296 14.1607C12.413 15.7972 10.3952 16.6353 9.2949 15.4199C8.60376 14.6532 7.40022 14.6532 6.7051 15.4199C5.60483 16.6393 3.58701 15.8012 3.67043 14.1607C3.72207 13.128 2.87204 12.2779 1.8393 12.3296C0.202798 12.413 -0.635312 10.3952 0.580146 9.2949C1.34676 8.60376 1.34676 7.40021 0.580146 6.7051C-0.639284 5.60483 0.198826 3.58701 1.8393 3.67043C2.87204 3.72206 3.72207 2.87204 3.67043 1.8393C3.58701 0.202798 5.60483 -0.635311 6.7051 0.580146C7.40022 1.34676 8.59979 1.34676 9.2949 0.580146Z" fill="#202117"/>
<path d="M11.4059 2.21782C9.18911 6.02177 6.9693 6.02177 4.75248 2.21782C6.9693 6.01882 5.86238 7.92079 1.42574 7.92079C5.86238 7.92079 6.9693 9.82277 4.75248 13.6238C6.9693 9.81981 9.18911 9.81981 11.4059 13.6238C9.18911 9.82277 10.296 7.92079 14.7327 7.92079C10.296 7.92079 9.18911 6.01882 11.4059 2.21782Z" fill="#E1F076"/>
</svg>
