<svg width="23" height="20" viewBox="0 0 23 20" fill="none" xmlns="http://www.w3.org/2000/svg">
<path opacity="0.2" d="M11.8436 5.52075C6.11442 5.52075 3.82275 10.2083 3.82275 10.2083C3.82275 10.2083 6.11442 14.8958 11.8436 14.8958C17.5728 14.8958 19.8644 10.2083 19.8644 10.2083C19.8644 10.2083 17.5728 5.52075 11.8436 5.52075ZM11.8436 12.8124C11.277 12.8124 10.7232 12.6597 10.2521 12.3735C9.78103 12.0874 9.41387 11.6807 9.19706 11.2048C8.98024 10.729 8.92351 10.2054 9.03405 9.7002C9.14458 9.19505 9.4174 8.73103 9.81802 8.36683C10.2186 8.00263 10.7291 7.75461 11.2847 7.65412C11.8404 7.55364 12.4164 7.60521 12.9398 7.80232C13.4633 7.99942 13.9106 8.3332 14.2254 8.76145C14.5402 9.18971 14.7082 9.6932 14.7082 10.2083C14.7082 10.8989 14.4064 11.5613 13.8692 12.0497C13.3319 12.5381 12.6033 12.8124 11.8436 12.8124Z" fill="#808080"/>
<path d="M20.3881 9.9974C20.363 9.94596 19.7564 8.72266 18.4079 7.49674C16.6111 5.86328 14.3417 5 11.8437 5C9.34583 5 7.07636 5.86328 5.27955 7.49674C3.93105 8.72266 3.32161 9.94792 3.29941 9.9974C3.26683 10.064 3.25 10.1361 3.25 10.209C3.25 10.2819 3.26683 10.354 3.29941 10.4206C3.32447 10.472 3.93105 11.6947 5.27955 12.9206C7.07636 14.5534 9.34583 15.4167 11.8437 15.4167C14.3417 15.4167 16.6111 14.5534 18.4079 12.9206C19.7564 11.6947 20.363 10.472 20.3881 10.4206C20.4207 10.354 20.4375 10.2819 20.4375 10.209C20.4375 10.1361 20.4207 10.064 20.3881 9.9974ZM11.8437 14.375C9.63945 14.375 7.71373 13.6465 6.11959 12.2103C5.46552 11.6189 4.90903 10.9446 4.46744 10.2083C4.90886 9.47195 5.46536 8.79762 6.11959 8.20638C7.71373 6.77018 9.63945 6.04167 11.8437 6.04167C14.048 6.04167 15.9738 6.77018 17.5679 8.20638C18.2232 8.79752 18.7809 9.47184 19.2236 10.2083C18.7073 11.0846 16.4579 14.375 11.8437 14.375ZM11.8437 7.08333C11.1639 7.08333 10.4993 7.26661 9.93397 7.60999C9.36868 7.95337 8.92808 8.44143 8.66791 9.01245C8.40773 9.58347 8.33966 10.2118 8.47229 10.818C8.60493 11.4242 8.93232 11.981 9.41306 12.418C9.89381 12.8551 10.5063 13.1527 11.1731 13.2733C11.8399 13.3939 12.5311 13.332 13.1592 13.0955C13.7873 12.8589 14.3242 12.4584 14.7019 11.9445C15.0796 11.4306 15.2812 10.8264 15.2812 10.2083C15.2803 9.3798 14.9178 8.58544 14.2734 7.99958C13.6289 7.41371 12.7551 7.0842 11.8437 7.08333ZM11.8437 12.2917C11.3905 12.2917 10.9474 12.1695 10.5706 11.9406C10.1937 11.7116 9.89997 11.3863 9.72652 11.0056C9.55307 10.6249 9.50769 10.206 9.59611 9.8019C9.68454 9.39777 9.90279 9.02655 10.2233 8.73519C10.5438 8.44384 10.9521 8.24542 11.3967 8.16503C11.8412 8.08464 12.302 8.1259 12.7207 8.28358C13.1395 8.44127 13.4974 8.70829 13.7492 9.0509C14.001 9.3935 14.1354 9.79629 14.1354 10.2083C14.1354 10.7609 13.894 11.2908 13.4642 11.6815C13.0344 12.0722 12.4515 12.2917 11.8437 12.2917Z" fill="#979797"/>
</svg>
