<svg width="34" height="34" viewBox="0 0 34 34" fill="none" xmlns="http://www.w3.org/2000/svg">
<g filter="url(#filter0_b_821_2351)">
<rect width="34" height="34" rx="8" fill="white" fill-opacity="0.2"/>
<rect x="0.5" y="0.5" width="33" height="33" rx="7.5" stroke="black" stroke-opacity="0.15"/>
<path d="M23.1875 11.375V14.75C23.1875 14.8992 23.1282 15.0423 23.0227 15.1477C22.9173 15.2532 22.7742 15.3125 22.625 15.3125C22.4758 15.3125 22.3327 15.2532 22.2273 15.1477C22.1218 15.0423 22.0625 14.8992 22.0625 14.75V12.7327L19.0855 15.7105C18.9799 15.816 18.8368 15.8753 18.6875 15.8753C18.5382 15.8753 18.3951 15.816 18.2895 15.7105C18.184 15.6049 18.1247 15.4618 18.1247 15.3125C18.1247 15.1632 18.184 15.0201 18.2895 14.9145L21.2673 11.9375H19.25C19.1008 11.9375 18.9577 11.8782 18.8523 11.7727C18.7468 11.6673 18.6875 11.5242 18.6875 11.375C18.6875 11.2258 18.7468 11.0827 18.8523 10.9773C18.9577 10.8718 19.1008 10.8125 19.25 10.8125H22.625C22.7742 10.8125 22.9173 10.8718 23.0227 10.9773C23.1282 11.0827 23.1875 11.2258 23.1875 11.375ZM14.9145 18.2895L11.9375 21.2673V19.25C11.9375 19.1008 11.8782 18.9577 11.7727 18.8523C11.6673 18.7468 11.5242 18.6875 11.375 18.6875C11.2258 18.6875 11.0827 18.7468 10.9773 18.8523C10.8718 18.9577 10.8125 19.1008 10.8125 19.25V22.625C10.8125 22.7742 10.8718 22.9173 10.9773 23.0227C11.0827 23.1282 11.2258 23.1875 11.375 23.1875H14.75C14.8992 23.1875 15.0423 23.1282 15.1477 23.0227C15.2532 22.9173 15.3125 22.7742 15.3125 22.625C15.3125 22.4758 15.2532 22.3327 15.1477 22.2273C15.0423 22.1218 14.8992 22.0625 14.75 22.0625H12.7327L15.7105 19.0855C15.816 18.9799 15.8753 18.8368 15.8753 18.6875C15.8753 18.5382 15.816 18.3951 15.7105 18.2895C15.6049 18.184 15.4618 18.1247 15.3125 18.1247C15.1632 18.1247 15.0201 18.184 14.9145 18.2895ZM22.625 18.6875C22.4758 18.6875 22.3327 18.7468 22.2273 18.8523C22.1218 18.9577 22.0625 19.1008 22.0625 19.25V21.2673L19.0855 18.2895C18.9799 18.184 18.8368 18.1247 18.6875 18.1247C18.5382 18.1247 18.3951 18.184 18.2895 18.2895C18.184 18.3951 18.1247 18.5382 18.1247 18.6875C18.1247 18.8368 18.184 18.9799 18.2895 19.0855L21.2673 22.0625H19.25C19.1008 22.0625 18.9577 22.1218 18.8523 22.2273C18.7468 22.3327 18.6875 22.4758 18.6875 22.625C18.6875 22.7742 18.7468 22.9173 18.8523 23.0227C18.9577 23.1282 19.1008 23.1875 19.25 23.1875H22.625C22.7742 23.1875 22.9173 23.1282 23.0227 23.0227C23.1282 22.9173 23.1875 22.7742 23.1875 22.625V19.25C23.1875 19.1008 23.1282 18.9577 23.0227 18.8523C22.9173 18.7468 22.7742 18.6875 22.625 18.6875ZM12.7327 11.9375H14.75C14.8992 11.9375 15.0423 11.8782 15.1477 11.7727C15.2532 11.6673 15.3125 11.5242 15.3125 11.375C15.3125 11.2258 15.2532 11.0827 15.1477 10.9773C15.0423 10.8718 14.8992 10.8125 14.75 10.8125H11.375C11.2258 10.8125 11.0827 10.8718 10.9773 10.9773C10.8718 11.0827 10.8125 11.2258 10.8125 11.375V14.75C10.8125 14.8992 10.8718 15.0423 10.9773 15.1477C11.0827 15.2532 11.2258 15.3125 11.375 15.3125C11.5242 15.3125 11.6673 15.2532 11.7727 15.1477C11.8782 15.0423 11.9375 14.8992 11.9375 14.75V12.7327L14.9145 15.7105C15.0201 15.816 15.1632 15.8753 15.3125 15.8753C15.4618 15.8753 15.6049 15.816 15.7105 15.7105C15.816 15.6049 15.8753 15.4618 15.8753 15.3125C15.8753 15.1632 15.816 15.0201 15.7105 14.9145L12.7327 11.9375Z" fill="white"/>
</g>
<defs>
<filter id="filter0_b_821_2351" x="-16" y="-16" width="66" height="66" filterUnits="userSpaceOnUse" color-interpolation-filters="sRGB">
<feFlood flood-opacity="0" result="BackgroundImageFix"/>
<feGaussianBlur in="BackgroundImageFix" stdDeviation="8"/>
<feComposite in2="SourceAlpha" operator="in" result="effect1_backgroundBlur_821_2351"/>
<feBlend mode="normal" in="SourceGraphic" in2="effect1_backgroundBlur_821_2351" result="shape"/>
</filter>
</defs>
</svg>
