<svg width="20" height="20" viewBox="0 0 20 20" fill="none" xmlns="http://www.w3.org/2000/svg">
<path d="M8.14878 1.47959C8.59444 -0.493339 11.4056 -0.493339 11.8512 1.47959C12.14 2.75825 13.6074 3.36603 14.7158 2.66612C16.426 1.58617 18.4137 3.57394 17.3338 5.28414C16.6339 6.39252 17.2416 7.85985 18.5203 8.14868C20.4932 8.59433 20.4932 11.4055 18.5203 11.8511C17.2416 12.1399 16.6339 13.6073 17.3338 14.7157C18.4137 16.4258 16.426 18.4136 14.7158 17.3337C13.6074 16.6338 12.14 17.2415 11.8512 18.5202C11.4056 20.4931 8.59444 20.4931 8.14878 18.5202C7.85995 17.2415 6.39262 16.6338 5.28424 17.3337C3.57405 18.4136 1.58628 16.4258 2.66623 14.7157C3.36614 13.6073 2.75835 12.1399 1.4797 11.8511C-0.493232 11.4055 -0.493232 8.59433 1.4797 8.14868C2.75835 7.85985 3.36614 6.39252 2.66623 5.28414C1.58628 3.57394 3.57405 1.58617 5.28424 2.66612C6.39262 3.36603 7.85995 2.75825 8.14878 1.47959Z" fill="#E2E2E2"/>
<path d="M9.99999 3.99989L10.0832 4.29134C10.6756 6.36716 12.8082 7.59845 14.9021 7.07359L15.1961 6.99989L14.9853 7.21765C13.4838 8.76861 13.4838 11.2312 14.9853 12.7821L15.1961 12.9999L14.9021 12.9262C12.8082 12.4013 10.6756 13.6326 10.0832 15.7084L9.99999 15.9999L9.91681 15.7084C9.3244 13.6326 7.19174 12.4013 5.09782 12.9262L4.80383 12.9999L5.01465 12.7821C6.51616 11.2312 6.51616 8.76861 5.01465 7.21765L4.80383 6.99989L5.09782 7.07359C7.19174 7.59845 9.3244 6.36717 9.91681 4.29134L9.99999 3.99989Z" fill="#878787"/>
</svg>
