<svg width="19" height="18" viewBox="0 0 19 18" fill="none" xmlns="http://www.w3.org/2000/svg">
<path d="M7.172 6.6C7.36008 6.06533 7.73132 5.61449 8.21996 5.32731C8.70861 5.04013 9.28312 4.93515 9.84174 5.03097C10.4004 5.12679 10.9071 5.41722 11.2721 5.85082C11.6371 6.28443 11.8368 6.83322 11.836 7.4C11.836 9 9.436 9.8 9.436 9.8M9.5 13H9.508M17.5 9C17.5 13.4183 13.9183 17 9.5 17C5.08172 17 1.5 13.4183 1.5 9C1.5 4.58172 5.08172 1 9.5 1C13.9183 1 17.5 4.58172 17.5 9Z" stroke="black" stroke-width="2" stroke-linecap="round" stroke-linejoin="round"/>
</svg>
