<svg width="15" height="15" viewBox="0 0 15 15" fill="none" xmlns="http://www.w3.org/2000/svg">
<path d="M13.4566 12.7934L10.5228 9.86017C11.3732 8.83929 11.7972 7.52989 11.7067 6.20435C11.6162 4.87881 11.0181 3.63919 10.037 2.74335C9.05576 1.84752 7.76698 1.36446 6.43869 1.39464C5.11041 1.42483 3.8449 1.96595 2.90542 2.90543C1.96593 3.84491 1.42482 5.11042 1.39463 6.43871C1.36444 7.76699 1.84751 9.05578 2.74334 10.037C3.63917 11.0182 4.87879 11.6162 6.20433 11.7067C7.52987 11.7972 8.83928 11.3732 9.86015 10.5229L12.7934 13.4567C12.8369 13.5002 12.8886 13.5348 12.9455 13.5583C13.0024 13.5819 13.0634 13.594 13.125 13.594C13.1866 13.594 13.2476 13.5819 13.3045 13.5583C13.3614 13.5348 13.4131 13.5002 13.4566 13.4567C13.5002 13.4131 13.5347 13.3614 13.5583 13.3045C13.5819 13.2476 13.594 13.1866 13.594 13.125C13.594 13.0634 13.5819 13.0024 13.5583 12.9455C13.5347 12.8886 13.5002 12.8369 13.4566 12.7934ZM2.34375 6.56251C2.34375 5.72812 2.59117 4.91247 3.05473 4.2187C3.5183 3.52493 4.17718 2.9842 4.94805 2.6649C5.71893 2.34559 6.56718 2.26204 7.38553 2.42482C8.20389 2.58761 8.9556 2.9894 9.5456 3.57941C10.1356 4.16941 10.5374 4.92112 10.7002 5.73947C10.863 6.55783 10.7794 7.40608 10.4601 8.17696C10.1408 8.94783 9.60008 9.60671 8.90631 10.0703C8.21254 10.5338 7.39689 10.7813 6.5625 10.7813C5.444 10.78 4.37166 10.3351 3.58076 9.54425C2.78986 8.75335 2.34499 7.68101 2.34375 6.56251Z" fill="#9C9C9C"/>
</svg>
