<svg width="40" height="40" viewBox="0 0 40 40" fill="none" xmlns="http://www.w3.org/2000/svg">
<path d="M5.84155 16.5659C5.84569 15.9972 5.76651 15.0328 6.04108 14.5441C6.12327 14.3979 6.24604 14.2917 6.34752 14.1606C6.48436 13.9839 6.57983 13.7848 6.74022 13.6248C6.89553 13.4699 7.08002 13.3674 7.28917 13.3034C7.61397 13.2039 7.95225 13.1359 8.28155 13.0514L9.97874 12.6023L18.1772 10.5152L24.6638 8.8625C25.3189 8.69649 25.9709 8.51332 26.6296 8.36188C26.8849 8.30317 27.1551 8.21727 27.4186 8.21778C27.7857 8.21844 28.125 8.36528 28.3812 8.62684C28.4154 8.66205 28.4477 8.69893 28.4781 8.7375C28.5085 8.77604 28.5368 8.81607 28.5631 8.85758C28.5893 8.89906 28.6134 8.94179 28.6352 8.98574C28.657 9.02973 28.6765 9.07472 28.6937 9.12071C28.8286 9.47321 28.8835 9.8791 28.9767 10.2455L29.6077 12.7859C29.694 13.127 29.7683 13.4773 29.8696 13.8139L31.1544 13.8129C31.8201 13.8084 32.6098 13.6989 33.1248 14.219C33.3004 14.3964 33.4434 14.6526 33.4927 14.8981C33.5514 15.19 33.5336 15.5039 33.5339 15.8007L33.5348 16.8872L33.5335 21.0822C33.9712 21.07 34.3447 21.0585 34.6857 21.3837C35.0139 21.6966 35.087 22.1246 35.0901 22.5579C35.0924 22.8763 35.0669 23.2121 35.0939 23.528C35.0637 24.0491 35.0821 24.5796 35.0814 25.102L35.0832 27.5936C35.0872 28.1878 35.1031 28.7831 35.0916 29.3773C35.0422 29.6302 35.0679 30.652 35.0928 30.9367L35.0941 31.8982C35.096 32.4549 35.1512 32.9749 34.723 33.401C34.3412 33.7811 33.8964 33.7726 33.3937 33.7721L32.5786 33.77C31.6574 33.7629 30.7362 33.7626 29.815 33.7693C29.4195 33.7705 28.7878 33.7381 28.4276 33.7852C27.9974 33.7845 27.5673 33.7863 27.1372 33.7904L13.0452 33.8077C12.9618 33.7999 12.8777 33.7926 12.7951 33.7789C12.3374 33.7029 12.0333 33.4511 11.7715 33.0807C11.6892 32.917 11.6222 32.7552 11.5874 32.5744C11.5359 32.3059 11.5588 32.0165 11.5627 31.7446C11.5708 31.3515 11.5743 30.9583 11.5734 30.5651C10.9497 30.5624 10.3261 30.5646 9.70249 30.5717C9.05729 30.5364 8.36022 30.5683 7.71053 30.5692C7.44327 30.5696 7.1294 30.5993 6.86913 30.5381C6.84254 30.5317 6.8162 30.5244 6.7901 30.5162C6.76401 30.508 6.7382 30.499 6.71268 30.4892C6.68719 30.4793 6.66203 30.4686 6.63721 30.4572C6.61239 30.4456 6.58799 30.4333 6.56401 30.4202C6.54 30.4071 6.51646 30.3932 6.49338 30.3786C6.47028 30.3639 6.44769 30.3485 6.42561 30.3323C6.40355 30.3162 6.38203 30.2994 6.36104 30.2818C6.34008 30.2643 6.31971 30.246 6.29995 30.2271C6.10999 30.048 5.95268 29.8034 5.8912 29.548C5.79952 29.1674 5.85983 28.6067 5.86534 28.2049C5.87432 27.5516 5.88573 26.8941 5.86198 26.2412L5.8644 25.1765C5.86417 24.9386 5.87475 24.6945 5.84292 24.4584C5.81315 24.2376 5.7417 24.0162 5.68264 23.8014L5.41034 22.8054C5.11967 21.7077 4.86811 20.5829 4.50795 19.5059C4.39831 19.0595 4.0903 18.2464 4.15924 17.8227C4.22213 17.4361 4.45995 17.1727 4.7628 16.9466C5.11151 16.7808 5.49647 16.729 5.84155 16.5659Z" fill="#1A1A1A"/>
<path d="M6.5047 29.0332C6.64856 29.0368 6.79244 29.0389 6.93634 29.0393L6.94716 29.045C6.93486 29.3172 6.94615 29.5896 6.9533 29.8619C6.86498 29.8181 6.78447 29.7695 6.71357 29.7001C6.52072 29.5113 6.50443 29.2867 6.5047 29.0332Z" fill="#A19EA8"/>
<path d="M12.2107 31.6919L12.5928 31.6865C12.5879 31.7394 12.5823 31.792 12.5822 31.8451C12.5807 32.2229 12.6137 32.6125 12.5902 32.9881C12.3821 32.8562 12.2935 32.6944 12.2218 32.4653C12.1692 32.2346 12.2082 31.9296 12.2107 31.6919Z" fill="#BCBBC9"/>
<path d="M12.2107 31.6919L12.5928 31.6865C12.5879 31.7394 12.5823 31.792 12.5822 31.8451C12.4662 31.8375 12.3504 31.8277 12.2347 31.8157C12.2322 32.0284 12.2435 32.2544 12.2218 32.4653C12.1692 32.2346 12.2082 31.9296 12.2107 31.6919Z" fill="#A19EA8"/>
<path d="M33.5146 21.7164C33.7725 21.7114 34.0965 21.6695 34.3025 21.8584C34.4464 21.9903 34.4743 22.1855 34.4765 22.3709C34.4777 22.4684 34.4744 22.5662 34.4716 22.6637C34.402 22.5932 34.3586 22.5073 34.2834 22.4373C34.111 22.3906 33.9277 22.3765 33.7513 22.349C33.6744 22.3479 33.595 22.3565 33.5181 22.3606C33.514 22.1459 33.5128 21.9311 33.5146 21.7164Z" fill="white"/>
<path d="M4.78223 18.0578C4.80996 17.9409 4.83453 17.8283 4.8991 17.7249C5.09863 17.4053 5.5334 17.3681 5.87051 17.2949C5.85938 17.4635 5.86191 17.6326 5.86223 17.8014C5.63277 17.8426 5.3852 17.8932 5.24125 18.0971C4.98187 18.4644 5.20609 18.9077 5.14684 19.3007C5.03655 18.8831 4.91501 18.4688 4.78223 18.0578Z" fill="white"/>
<path d="M12.7097 31.6865C12.853 31.69 12.9957 31.6923 13.139 31.6893C13.0879 31.9797 13.124 32.3282 13.1274 32.6237L13.1239 32.6348C13.1292 32.8064 13.1321 32.978 13.1324 33.1496C12.9805 33.1462 12.8576 33.1119 12.718 33.0571C12.6747 33.0359 12.6327 33.0118 12.5902 32.9888C12.6137 32.6131 12.5807 32.2236 12.5822 31.8458C12.5823 31.7927 12.5879 31.7401 12.5928 31.6872L12.7097 31.6865Z" fill="#9999FF"/>
<path d="M12.5928 31.6872L12.7097 31.6865C12.7101 31.9979 12.7068 32.3097 12.7116 32.6211C12.7136 32.7663 12.7133 32.912 12.718 33.0571C12.6747 33.0359 12.6327 33.0118 12.5902 32.9888C12.6137 32.6131 12.5807 32.2236 12.5822 31.8458C12.5823 31.7927 12.5879 31.7401 12.5928 31.6872Z" fill="#322A6A"/>
<path d="M12.2068 30.5549C12.3382 30.5515 12.4673 30.5556 12.5984 30.5631L12.7006 30.566C12.855 30.567 13.0105 30.5638 13.1647 30.5701C13.165 30.9296 13.2018 31.3358 13.139 31.6888C12.9957 31.6918 12.853 31.6895 12.7097 31.686L12.5928 31.6867L12.2107 31.6921C12.196 31.3147 12.2073 30.9329 12.2068 30.5549Z" fill="#EEECFF"/>
<path d="M12.5984 30.5635L12.7006 30.5663L12.7097 31.6864L12.5928 31.687C12.6232 31.3189 12.6009 30.9334 12.5984 30.5635Z" fill="#5252C7"/>
<path d="M12.7006 30.5664C12.855 30.5674 13.0105 30.5643 13.1647 30.5705C13.165 30.93 13.2018 31.3363 13.139 31.6892C12.9957 31.6922 12.853 31.6899 12.7097 31.6864L12.7006 30.5664Z" fill="#EEECFF"/>
<path d="M5.87049 17.2949C5.91912 17.6675 5.86298 18.1928 5.86404 18.5876C5.86697 19.6946 5.87806 20.7998 5.85006 21.9067C5.68978 21.3799 5.57201 20.8418 5.42572 20.3112C5.35361 20.0498 5.1715 19.5414 5.14681 19.3007C5.20607 18.9077 4.98185 18.4644 5.24123 18.0971C5.38517 17.8932 5.63275 17.8426 5.8622 17.8014C5.86189 17.6326 5.85935 17.4635 5.87049 17.2949Z" fill="#A19EA8"/>
<path d="M33.518 22.3603C33.595 22.3562 33.6744 22.3477 33.7513 22.3487L33.7659 28.7747L33.7518 30.7328C33.7495 31.0455 33.7288 31.3749 33.7509 31.6861C33.3504 31.6872 29.8392 31.7119 29.7338 31.6565C29.902 31.2538 30.298 30.7675 30.7063 30.5915C31.2081 30.5452 31.7292 30.6024 32.2338 30.5822C32.5897 30.568 32.9304 30.4597 33.175 30.1885C33.3332 30.0132 33.4533 29.7819 33.4925 29.5482C33.5515 29.1962 33.53 28.8159 33.5304 28.4596L33.5311 26.8326L33.5277 24.0211C33.5274 23.4691 33.5433 22.9117 33.518 22.3603Z" fill="#9999FF"/>
<path d="M33.7513 22.3486C33.9276 22.3761 34.111 22.3903 34.2834 22.437C34.3585 22.507 34.402 22.5928 34.4716 22.6634L34.4558 31.6931C34.2208 31.6949 33.9858 31.6925 33.7509 31.6861C33.7288 31.3748 33.7495 31.0454 33.7519 30.7327L33.7659 28.7746L33.7513 22.3486Z" fill="#D4D2E1"/>
<path d="M9.75769 13.8074C9.43144 13.8214 8.3446 13.8637 8.0921 13.8014C8.26796 13.689 8.57476 13.6592 8.78054 13.6028C9.68523 13.3518 10.5929 13.1119 11.5034 12.8831L25.7802 9.25606C26.1507 9.16465 27.1631 8.83254 27.4703 8.83696C27.6866 8.84004 27.8874 9.02321 28.0258 9.17422C27.7685 9.23098 27.509 9.27473 27.2523 9.33559C26.6945 9.46778 26.141 9.62336 25.5861 9.767L23.5249 10.282L9.75769 13.8074Z" fill="white"/>
<path d="M6.50472 29.0334C6.48542 28.3628 6.49949 27.6861 6.50085 27.0152L6.50359 23.6112L6.50191 17.7131C6.50226 17.294 6.45535 15.2024 6.53875 14.9854C6.61925 14.7759 6.7905 14.6104 6.99636 14.5255C7.1191 14.4749 7.25261 14.4566 7.38453 14.452C7.81132 14.4372 8.24335 14.4514 8.67066 14.4524L10.8881 14.4524L18.0599 14.4524L27.349 14.452L30.3991 14.4544C30.9203 14.4545 31.4439 14.4424 31.9648 14.4541C32.1118 14.4574 32.2796 14.4605 32.4169 14.5183C32.6453 14.6146 32.7919 14.8109 32.8799 15.036C32.8377 15.0541 32.6619 14.9883 32.602 14.9764C32.2441 14.9107 31.7268 14.9801 31.3477 14.9788L27.3948 14.9808L14.6399 14.9533L9.8807 14.9616L8.41093 14.9506C8.16054 14.9476 7.89746 14.9245 7.64867 14.9454C7.52339 14.956 7.43046 14.9875 7.32543 15.0584C7.14296 15.1816 7.00128 15.3614 6.96687 15.5836C6.91523 15.9173 6.94406 16.3238 6.94019 16.664C6.93337 17.5387 6.93458 18.4134 6.94382 19.2881L6.95367 26.8883C6.9532 27.202 6.98824 28.8679 6.93636 29.0394C6.79246 29.039 6.64858 29.037 6.50472 29.0334Z" fill="white"/>
<path d="M28.0259 9.17383C28.1801 9.47398 28.3664 10.4317 28.4611 10.8173L28.9678 12.8902C29.0407 13.1979 29.1223 13.5044 29.1802 13.8154C28.917 13.8148 28.6493 13.8243 28.3868 13.8105C28.305 13.362 28.1696 12.9008 28.058 12.4574C27.4233 12.6665 26.7565 12.7334 26.1027 12.5611C25.2056 12.3247 24.5438 11.6983 24.0908 10.9127C23.7275 11.0171 23.3544 11.0893 22.9874 11.1798L21.0314 11.672L15.3453 13.086L13.4332 13.5578C13.1359 13.6315 12.8132 13.6851 12.5287 13.794C11.9694 13.8498 11.3314 13.8102 10.7621 13.8098C10.4371 13.8096 10.0782 13.8437 9.75769 13.807L23.5249 10.2816L25.5861 9.7666C26.1411 9.62297 26.6945 9.46738 27.2523 9.3352C27.509 9.27434 27.7685 9.23059 28.0259 9.17383Z" fill="#A19EA8"/>
<path d="M24.0908 10.9131C24.5438 11.6987 25.2056 12.3252 26.1027 12.5616C26.7565 12.7338 27.4233 12.667 28.058 12.4578C28.1696 12.9013 28.3051 13.3625 28.3868 13.811C28.166 13.8066 27.9177 13.7868 27.6992 13.8202L27.6322 13.8146C26.847 13.8086 26.0619 13.8083 25.2768 13.8138C24.9094 13.8161 24.5317 13.8379 24.1652 13.821C23.4942 13.8327 22.8206 13.8126 22.1492 13.8151C20.0477 13.8279 17.9463 13.8249 15.8449 13.8058C15.648 13.823 15.4455 13.8099 15.2479 13.8091L14.2207 13.8093L13.1454 13.8094C12.9429 13.8089 12.729 13.8217 12.5287 13.7945C12.8133 13.6855 13.1359 13.6319 13.4333 13.5582L15.3453 13.0864L21.0315 11.6724L22.9874 11.1803C23.3544 11.0898 23.7275 11.0175 24.0908 10.9131Z" fill="#67666D"/>
<path d="M23.8574 11.6034L23.9173 11.5674C23.9272 11.5724 23.9386 11.575 23.9469 11.5824C24.0055 11.6346 24.0737 11.8061 24.1214 11.8788C24.1635 11.943 24.2184 12.0002 24.2702 12.0567C25.2821 13.1614 26.1793 13.3341 27.6157 13.2443C27.6762 13.3973 27.6938 13.6554 27.6991 13.8205L27.6321 13.8149C27.5899 13.6553 27.549 13.4932 27.5422 13.3277C27.4319 13.33 27.3136 13.3552 27.2029 13.3655C27.0759 13.3782 26.9485 13.3833 26.8208 13.3806C26.6931 13.378 26.5661 13.3677 26.4396 13.3498C25.4287 13.2135 24.5838 12.6136 23.9785 11.8139L23.8574 11.6034Z" fill="#322A6A"/>
<path d="M23.9785 11.8135C24.5838 12.6131 25.4287 13.213 26.4396 13.3493C26.5661 13.3672 26.6931 13.3775 26.8208 13.3802C26.9485 13.3828 27.0759 13.3777 27.2029 13.365C27.3136 13.3547 27.4318 13.3295 27.5422 13.3273C27.549 13.4928 27.5899 13.6548 27.6321 13.8145C26.847 13.8084 26.0619 13.8081 25.2767 13.8136C24.9093 13.8159 24.5317 13.8378 24.1651 13.8209C24.2302 13.7862 24.323 13.8008 24.3965 13.8015L24.3918 13.7742C24.2878 13.1479 23.9729 12.4387 23.9785 11.8135Z" fill="#BCBBC9"/>
<path d="M15.3337 13.7816C17.6406 13.1617 19.9708 12.6368 22.2768 12.0152C22.8025 11.8735 23.3367 11.7631 23.8574 11.6035L23.9786 11.8141C23.973 12.4393 24.2878 13.1485 24.3919 13.7748L24.3966 13.8021C24.3231 13.8014 24.2302 13.7868 24.1652 13.8214C23.4942 13.8331 22.8206 13.813 22.1492 13.8155C20.0478 13.8284 17.9463 13.8253 15.8449 13.8063C15.68 13.7825 15.5018 13.7955 15.3337 13.7816Z" fill="#EEECFF"/>
<path d="M32.602 14.9766C32.6619 14.9885 32.8377 15.0543 32.8799 15.0362C32.9453 15.2741 32.8964 15.9493 32.8958 16.2273L32.8951 18.9164L32.8948 26.2214C32.8943 27.1798 32.9291 28.1426 32.9088 29.1003C32.9055 29.2582 32.8846 29.4183 32.8082 29.559C32.7985 29.5773 32.7878 29.595 32.7763 29.6122C32.7648 29.6294 32.7525 29.646 32.7393 29.662C32.7262 29.678 32.7122 29.6933 32.6976 29.7079C32.6829 29.7225 32.6676 29.7363 32.6515 29.7494C32.6355 29.7624 32.6188 29.7747 32.6016 29.7861C32.5843 29.7975 32.5665 29.8081 32.5482 29.8177C32.5299 29.8274 32.5112 29.8361 32.492 29.8439C32.4728 29.8518 32.4533 29.8586 32.4335 29.8645C32.1915 29.9339 31.343 29.8946 31.0439 29.895L27.4693 29.8887L14.9853 29.8865L9.44855 29.8994L7.95269 29.8965C7.62297 29.8953 7.27941 29.9125 6.95332 29.8622C6.94617 29.59 6.93488 29.3175 6.94718 29.0453C7.87558 29.0175 8.81343 29.0457 9.74269 29.0492L14.1741 29.0508L32.0045 29.0793C32.0123 26.1987 32.0042 23.3181 31.9804 20.4375C31.9758 18.6187 32.0298 16.8001 32.0047 14.981L32.602 14.9766Z" fill="url(#paint0_linear_806_2181)"/>
<path d="M15.8569 30.579C16.1456 30.5301 16.4987 30.5668 16.7949 30.5686C21.1072 30.5452 25.4194 30.5504 29.7316 30.5844C30.0535 30.5844 30.3855 30.5686 30.7063 30.591C30.2981 30.767 29.902 31.2533 29.7338 31.656C29.8392 31.7114 33.3505 31.6867 33.7509 31.6856C33.9858 31.6921 34.2208 31.6944 34.4558 31.6927C34.4583 32.0641 34.5516 32.69 34.2601 32.9713C34.2288 33.0015 34.1945 33.026 34.1596 33.0515C34.1537 33.0559 34.1481 33.0606 34.1422 33.0649C34.0474 33.1325 33.8159 33.1264 33.7013 33.1295C33.0047 33.1481 32.3036 33.1287 31.6065 33.1266L28.3578 33.1343L13.1324 33.1491C13.1321 32.9774 13.1292 32.8058 13.1239 32.6342L13.1274 32.6231C13.124 32.3276 13.0879 31.9792 13.139 31.6887C13.2018 31.3358 13.165 30.9295 13.1647 30.57C13.7946 30.5928 14.4279 30.5731 15.0582 30.5716C15.3219 30.571 15.5942 30.5584 15.8569 30.579Z" fill="#5252C7"/>
<path d="M29.7316 30.5845C30.0535 30.5845 30.3855 30.5688 30.7064 30.5911C30.2981 30.7671 29.902 31.2534 29.7338 31.6561L29.7203 31.6767C29.6559 31.8562 29.6095 32.0402 29.5808 32.2287C29.3778 32.2272 29.1739 32.2299 28.9717 32.2108C28.9532 32.0334 28.9438 31.8506 28.9988 31.679C29.0614 31.559 29.1009 31.4266 29.1662 31.3057C29.3123 31.035 29.533 30.8165 29.7316 30.5845Z" fill="#794F8D"/>
<path d="M15.8569 30.579C16.1456 30.5301 16.4987 30.5668 16.7949 30.5686C17.1084 30.9095 17.3495 31.2335 17.4618 31.6894C17.4756 31.7921 17.4967 31.9241 17.4803 32.0259C17.4691 32.0949 17.4421 32.1612 17.3804 32.2C17.2379 32.2895 16.9412 32.1981 16.7915 32.1512L16.6922 31.6891C16.5305 31.2228 16.2396 30.8817 15.8569 30.579Z" fill="#794F8D"/>
<path d="M13.1647 30.5702C13.7945 30.5929 14.4279 30.5733 15.0582 30.5718C15.3219 30.5711 15.5942 30.5585 15.8569 30.5792C16.2396 30.8818 16.5305 31.223 16.6922 31.6892L13.139 31.6889C13.2018 31.3359 13.165 30.9297 13.1647 30.5702Z" fill="#9999FF"/>
<path d="M16.7949 30.569C21.1072 30.5456 25.4194 30.5509 29.7316 30.5848C29.5329 30.8168 29.3123 31.0353 29.1661 31.3061C29.1008 31.427 29.0613 31.5593 28.9987 31.6793C28.584 31.6994 28.1599 31.6815 27.7444 31.6814L25.258 31.6808L17.4617 31.6899C17.3494 31.2339 17.1084 30.9099 16.7949 30.569Z" fill="#9999FF"/>
<path d="M6.93636 29.0402C6.98824 28.8686 6.9532 27.2027 6.95367 26.8891L6.94382 19.2888C6.93458 18.4141 6.93337 17.5394 6.94019 16.6647C6.94406 16.3245 6.91523 15.918 6.96687 15.5843C7.00129 15.3621 7.14297 15.1823 7.32543 15.0591C7.43047 14.9882 7.52339 14.9567 7.64867 14.9462C7.89746 14.9253 8.16054 14.9483 8.41093 14.9513L9.8807 14.9623L14.6399 14.954L27.3948 14.9815L31.3477 14.9795C31.7268 14.9808 32.2441 14.9114 32.602 14.9771L32.0047 14.9815C32.0298 16.8006 31.9758 18.6193 31.9804 20.4381C32.0042 23.3186 32.0123 26.1992 32.0045 29.0798L14.1741 29.0514L9.74269 29.0497C8.81343 29.0462 7.87558 29.018 6.94718 29.0459L6.93636 29.0402Z" fill="url(#paint1_linear_806_2181)"/>
<path d="M10.9986 15.7129L28.7531 15.7366C28.7615 16.3872 28.8654 16.9564 29.3229 17.4495C29.9659 18.1424 30.9066 18.2642 31.8019 18.2956L31.7776 25.8667C31.5585 25.8361 31.3425 25.8041 31.1205 25.8127C30.478 25.8375 29.8145 26.1268 29.3808 26.6052C28.9784 27.0492 28.6613 27.7303 28.6938 28.3405C28.6984 28.4266 28.7108 28.504 28.6761 28.5849C28.6213 28.6257 28.5876 28.6155 28.5205 28.6166L16.7699 28.6299L12.7335 28.6351C12.1908 28.6342 11.6464 28.6441 11.1039 28.6334C11.007 28.6315 10.7839 28.6448 10.7017 28.5938C10.4917 28.4636 10.4346 27.7038 10.3419 27.4327C10.318 27.364 10.2913 27.2963 10.2619 27.2298C10.2324 27.1632 10.2002 27.098 10.1653 27.0341C10.1305 26.9703 10.093 26.9079 10.053 26.8471C10.013 26.7863 9.97051 26.7273 9.92561 26.67C9.10495 25.6345 8.10038 25.9413 7.79171 25.5997C7.75319 25.5571 7.73061 25.5196 7.72671 25.4611C7.69866 25.0422 7.72175 24.6101 7.7244 24.1901L7.73339 21.9383L7.72835 19.7377C7.72507 19.2681 7.70108 18.7859 7.73573 18.3179C7.75847 18.2847 7.78327 18.252 7.80987 18.2218C7.99284 18.0142 8.35433 18.1521 8.60175 18.1354C9.49311 18.0752 10.2519 17.4782 10.4706 16.6009C10.5275 16.3725 10.4685 16.0067 10.636 15.8309C10.7345 15.7277 10.8655 15.7194 10.9986 15.7129Z" fill="#67666D"/>
<path d="M31.1129 25.0067C31.12 25.0178 31.1294 25.0277 31.1343 25.04C31.1381 25.0499 31.1418 25.0947 31.1429 25.1064L31.1671 25.1276C31.1697 25.087 31.1631 25.0354 31.1838 25.001L31.1949 25.0346C31.195 25.0938 31.2022 25.1523 31.1716 25.2052C30.2332 25.2671 29.5231 25.529 28.8917 26.2598C28.8728 26.2814 28.8545 26.3035 28.8366 26.3261C28.5956 26.6396 28.4126 26.9671 28.2818 27.341C28.2488 27.4351 28.1494 27.9003 28.1067 27.9333C28.0816 27.9275 28.0559 27.9232 28.032 27.9136C28.197 27.2832 28.3805 26.7491 28.8021 26.238C29.2349 25.6995 29.874 25.3292 30.5477 25.1889C30.724 25.1522 30.9008 25.1544 31.0751 25.1226C31.1158 25.0798 31.1087 25.0641 31.1129 25.0067Z" fill="#322A6A"/>
<path d="M28.465 17.4028C28.5046 17.4014 28.5075 17.3923 28.5384 17.4214C28.5908 17.4708 28.6212 17.5409 28.6648 17.5982C28.7609 17.7244 28.8766 17.8439 28.992 17.9526C29.4465 18.3809 30.03 18.6104 30.6276 18.7594C30.8228 18.8081 31.024 18.8427 31.2165 18.9002C31.2656 20.4271 31.2098 21.9644 31.2027 23.4926L31.2005 24.5908C31.2004 24.7205 31.2244 24.9104 31.1949 25.0344L31.1838 25.0008C31.1631 25.0352 31.1698 25.0868 31.1671 25.1274L31.1429 25.1062C31.1418 25.0945 31.1382 25.0497 31.1343 25.0398C31.1294 25.0275 31.12 25.0176 31.1129 25.0065C31.0664 24.2939 31.1005 23.5619 31.1024 22.8471L31.1135 18.961C30.8503 18.9173 30.5855 18.8525 30.3298 18.7767C29.5754 18.5529 28.8497 18.1106 28.465 17.4028Z" fill="url(#paint2_linear_806_2181)"/>
<path d="M11.2049 16.3973C11.8269 16.3742 12.4583 16.396 13.0811 16.3964L16.6434 16.3934L28.1356 16.3945C28.1413 16.4664 28.1568 16.5372 28.1703 16.6079C26.7318 16.5668 25.2878 16.6041 23.8486 16.6016C19.6783 16.6231 15.5082 16.6202 11.338 16.5931C11.2854 16.8168 11.2352 17.0416 11.15 17.2557C10.9428 17.7764 10.5168 18.2771 10.0405 18.5698C9.78887 18.7245 9.55133 18.8122 9.27375 18.9032C9.06766 18.9707 8.61734 19.057 8.41406 18.9907L8.3916 18.8307C8.99473 18.8364 9.55547 18.7256 10.0515 18.3643C10.7225 17.8756 11.0795 17.2054 11.2049 16.3973Z" fill="white"/>
<path d="M28.3072 17.0869C28.3442 17.1749 28.3936 17.341 28.465 17.4025C28.8497 18.1103 29.5754 18.5526 30.3298 18.7764C30.5855 18.8523 30.8503 18.917 31.1134 18.9607L31.1024 22.8468C31.1005 23.5617 31.0664 24.2936 31.1129 25.0062C31.1087 25.0636 31.1158 25.0793 31.075 25.1221C30.9007 25.1539 30.724 25.1518 30.5477 25.1885C29.874 25.3287 29.2349 25.699 28.8021 26.2376C28.3805 26.7486 28.197 27.2828 28.032 27.9131C27.8735 27.9343 27.6941 27.9189 27.5333 27.9177L26.5805 27.9134L23.0011 27.9097L11.1581 27.9129C11.1371 27.5328 10.9986 27.2045 10.8381 26.8655C11.2886 27.0058 12.0856 27.0959 12.5758 27.1586C13.1197 27.2333 13.6653 27.292 14.2126 27.3345C16.3735 27.4839 19.1357 27.3755 21.1821 26.6909C21.5844 26.5563 21.9614 26.3798 22.3411 26.1923C23.6358 25.5529 24.6927 24.7692 25.6361 23.671C25.8701 23.3986 26.127 23.1152 26.2883 22.7926C26.2351 22.6948 26.1905 22.5854 26.158 22.4789C26.0377 22.0852 26.0523 21.6521 26.2506 21.286C26.497 20.831 26.8164 20.6414 27.2991 20.4966C27.4405 20.2641 27.5291 20.0036 27.6268 19.7507C27.8436 19.19 28.0331 18.6243 28.1506 18.0339C28.213 17.7203 28.2402 17.399 28.3072 17.0869Z" fill="#BCBBC9"/>
<path d="M27.2991 20.4966C27.7584 20.4329 28.1821 20.4802 28.5606 20.7684C28.9086 21.0334 29.1575 21.4354 29.2118 21.8716C29.2635 22.2861 29.1268 22.7156 28.8689 23.0412C28.6168 23.3594 28.244 23.5527 27.8421 23.5949C27.8157 23.5974 27.7893 23.5993 27.7628 23.6005C27.7363 23.6017 27.7098 23.6023 27.6833 23.6022C27.6568 23.6021 27.6302 23.6013 27.6038 23.5999C27.5773 23.5985 27.5509 23.5965 27.5245 23.5938C27.4981 23.591 27.4718 23.5877 27.4456 23.5837C27.4194 23.5797 27.3933 23.575 27.3673 23.5697C27.3413 23.5644 27.3155 23.5585 27.2898 23.5519C27.2641 23.5453 27.2386 23.5381 27.2133 23.5303C27.1879 23.5224 27.1628 23.514 27.1379 23.5049C27.113 23.4958 27.0883 23.4861 27.0638 23.4758C27.0394 23.4655 27.0152 23.4546 26.9913 23.4431C26.9675 23.4316 26.9439 23.4196 26.9206 23.4069C26.8973 23.3942 26.8743 23.381 26.8517 23.3672C26.829 23.3534 26.8067 23.3391 26.7848 23.3242C26.7628 23.3093 26.7413 23.2939 26.7201 23.2779C26.6989 23.2619 26.6782 23.2454 26.6578 23.2284C26.6211 23.1977 26.5858 23.1654 26.5518 23.1316C26.5179 23.0979 26.4855 23.0628 26.4545 23.0262C26.4236 22.9897 26.3942 22.9519 26.3665 22.9129C26.3387 22.8739 26.3127 22.8338 26.2883 22.7926C26.2351 22.6948 26.1905 22.5853 26.1581 22.4789C26.0378 22.0852 26.0524 21.6521 26.2506 21.286C26.497 20.8309 26.8165 20.6413 27.2991 20.4966Z" fill="#67666D"/>
<path d="M27.5291 21.1168C27.7442 21.1042 27.9491 21.1214 28.1361 21.2402C28.3486 21.3753 28.4964 21.6014 28.5492 21.8463C28.6013 22.0876 28.5661 22.3457 28.4259 22.5521C28.2741 22.7756 28.0533 22.8748 27.7973 22.9259C27.5901 22.9439 27.394 22.9282 27.2098 22.8214C26.9876 22.6925 26.817 22.454 26.761 22.2038C26.7057 21.9563 26.7603 21.6731 26.9047 21.4645C27.0578 21.2436 27.277 21.1641 27.5291 21.1168Z" fill="#A19EA8"/>
<path d="M11.338 16.5925C15.5082 16.6197 19.6784 16.6225 23.8486 16.601C25.2878 16.6035 26.7318 16.5662 28.1703 16.6074C28.2017 16.771 28.2533 16.9294 28.3072 17.0868C28.2403 17.3989 28.213 17.7202 28.1506 18.0338C28.0331 18.6242 27.8436 19.1899 27.6269 19.7506C27.5291 20.0035 27.4406 20.264 27.2991 20.4965C26.8165 20.6413 26.4971 20.8309 26.2506 21.2859C26.0524 21.652 26.0378 22.0851 26.1581 22.4788C26.1905 22.5853 26.2351 22.6947 26.2883 22.7925C26.1271 23.1151 25.8702 23.3985 25.6362 23.6709C24.6928 24.7691 23.6358 25.5528 22.3412 26.1922C21.9615 26.3797 21.5844 26.5562 21.1821 26.6908C19.1358 27.3754 16.3735 27.4838 14.2126 27.3344C13.6653 27.2919 13.1197 27.2332 12.5759 27.1585C12.0856 27.0958 11.2887 27.0057 10.8382 26.8654C10.7408 26.6958 10.6476 26.522 10.5347 26.3621C10.0176 25.6296 9.2703 25.2256 8.40178 25.0718C8.34373 23.723 8.37514 22.3596 8.37959 21.0095L8.3851 19.6301C8.38502 19.3675 8.36666 19.0911 8.39162 18.8301L8.41408 18.9902C8.61737 19.0565 9.06768 18.9702 9.27377 18.9026C9.55135 18.8116 9.78889 18.7239 10.0405 18.5693C10.5169 18.2765 10.9428 17.7758 11.15 17.2551C11.2352 17.041 11.2854 16.8162 11.338 16.5925Z" fill="#EEECFF"/>
<path d="M11.7701 20.4188C12.1294 20.3954 12.5009 20.5211 12.7874 20.734C13.1496 21.003 13.3951 21.3938 13.459 21.8419C13.4628 21.8686 13.4659 21.8954 13.4684 21.9223C13.4709 21.9492 13.4727 21.9761 13.4738 22.003C13.475 22.03 13.4755 22.057 13.4753 22.084C13.4751 22.1109 13.4743 22.1379 13.4727 22.1649C13.4712 22.1918 13.4691 22.2187 13.4662 22.2455C13.4634 22.2724 13.4599 22.2991 13.4557 22.3258C13.4515 22.3525 13.4467 22.379 13.4413 22.4054C13.4358 22.4318 13.4297 22.4581 13.4229 22.4842C13.4161 22.5104 13.4087 22.5363 13.4007 22.5621C13.3926 22.5878 13.3839 22.6134 13.3746 22.6387C13.3653 22.664 13.3554 22.6891 13.3448 22.714C13.3343 22.7388 13.3231 22.7634 13.3113 22.7877C13.2996 22.8119 13.2872 22.8359 13.2743 22.8596C13.2613 22.8833 13.2478 22.9066 13.2337 22.9297C13.2196 22.9527 13.205 22.9753 13.1897 22.9976C13.1745 23.0199 13.1588 23.0418 13.1425 23.0633C12.8448 23.4569 12.4554 23.6288 11.9762 23.6918C11.5315 23.703 11.1316 23.6 10.784 23.309C10.4536 23.0325 10.2354 22.5867 10.2022 22.1587C10.2003 22.1322 10.199 22.1056 10.1984 22.079C10.1978 22.0524 10.1979 22.0258 10.1986 21.9992C10.1993 21.9726 10.2006 21.946 10.2026 21.9195C10.2046 21.893 10.2073 21.8665 10.2106 21.8401C10.2139 21.8137 10.2178 21.7874 10.2224 21.7612C10.227 21.735 10.2322 21.7089 10.238 21.6829C10.2439 21.657 10.2504 21.6312 10.2575 21.6056C10.2646 21.5799 10.2724 21.5545 10.2807 21.5292C10.2891 21.5039 10.298 21.4789 10.3076 21.4541C10.3172 21.4293 10.3274 21.4047 10.3382 21.3804C10.349 21.356 10.3604 21.332 10.3723 21.3082C10.3843 21.2845 10.3968 21.261 10.4099 21.2379C10.423 21.2147 10.4367 21.1919 10.451 21.1694C10.4652 21.1469 10.4799 21.1248 10.4952 21.103C10.5105 21.0813 10.5264 21.0599 10.5427 21.0389C10.5591 21.0179 10.5759 20.9973 10.5933 20.9772C10.8979 20.625 11.313 20.4544 11.7701 20.4188Z" fill="#67666D"/>
<path d="M11.7246 21.1157C11.9182 21.0986 12.0911 21.1308 12.262 21.226C12.4945 21.3557 12.6885 21.5838 12.7596 21.8422C12.8255 22.0817 12.7635 22.3436 12.637 22.5528C12.4887 22.7979 12.2741 22.9259 12.0029 22.9941C11.7976 23.0142 11.5932 22.9967 11.408 22.8986C11.1774 22.7766 10.9963 22.5518 10.9286 22.2997C10.8639 22.0591 10.9045 21.7897 11.0285 21.5746C11.1867 21.3002 11.4317 21.1883 11.7246 21.1157Z" fill="#A19EA8"/>
<path d="M19.3749 17.6249C20.5158 17.5495 21.632 17.8387 22.5378 18.5567C23.4433 19.2745 24.0717 20.4317 24.2012 21.5785C24.2053 21.6151 24.209 21.6518 24.2123 21.6886C24.2155 21.7253 24.2183 21.7621 24.2206 21.7989C24.223 21.8357 24.2248 21.8725 24.2263 21.9093C24.2277 21.9462 24.2287 21.9831 24.2292 22.0199C24.2297 22.0568 24.2298 22.0937 24.2294 22.1306C24.229 22.1675 24.2281 22.2043 24.2268 22.2412C24.2255 22.278 24.2237 22.3149 24.2215 22.3517C24.2193 22.3885 24.2166 22.4253 24.2135 22.462C24.2104 22.4988 24.2068 22.5355 24.2028 22.5722C24.1987 22.6088 24.1942 22.6454 24.1893 22.682C24.1844 22.7185 24.179 22.755 24.1732 22.7914C24.1673 22.8278 24.161 22.8642 24.1543 22.9004C24.1475 22.9367 24.1404 22.9728 24.1327 23.0089C24.1251 23.045 24.117 23.081 24.1085 23.1168C24.1 23.1527 24.091 23.1885 24.0816 23.2242C24.0722 23.2598 24.0623 23.2954 24.0521 23.3308C24.0418 23.3662 24.0311 23.4015 24.0199 23.4366C24.0088 23.4718 23.9972 23.5068 23.9851 23.5417C23.9731 23.5765 23.9607 23.6112 23.9478 23.6458C23.9349 23.6804 23.9216 23.7148 23.9079 23.749C23.8942 23.7832 23.88 23.8173 23.8655 23.8511C23.8509 23.885 23.8359 23.9187 23.8205 23.9522C23.8051 23.9858 23.7893 24.0191 23.773 24.0522C23.7568 24.0853 23.7402 24.1182 23.7232 24.1509C23.7061 24.1836 23.6887 24.2161 23.6709 24.2484C23.653 24.2807 23.6347 24.3127 23.6161 24.3445C23.5975 24.3764 23.5785 24.408 23.5591 24.4393C23.5396 24.4707 23.5198 24.5018 23.4996 24.5327C23.4795 24.5635 23.4589 24.5941 23.438 24.6245C23.417 24.6549 23.3957 24.685 23.374 24.7148C23.3523 24.7446 23.3303 24.7742 23.3079 24.8034C23.2855 24.8327 23.2627 24.8618 23.2396 24.8905C22.5013 25.8031 21.358 26.4298 20.1906 26.5479C20.1732 26.5504 20.1557 26.5526 20.1382 26.5543C18.9945 26.6641 17.8263 26.2793 16.9419 25.5573C16.9133 25.5339 16.885 25.5102 16.8569 25.4862C16.8289 25.4621 16.8012 25.4377 16.7737 25.413C16.7463 25.3882 16.7192 25.3632 16.6923 25.3378C16.6655 25.3124 16.639 25.2866 16.6128 25.2606C16.5866 25.2345 16.5607 25.2081 16.5352 25.1815C16.5097 25.1548 16.4845 25.1278 16.4596 25.1004C16.4347 25.0731 16.4102 25.0455 16.386 25.0176C16.3618 24.9897 16.3379 24.9615 16.3144 24.9329C16.2909 24.9045 16.2678 24.8757 16.245 24.8466C16.2222 24.8175 16.1998 24.7882 16.1777 24.7585C16.1556 24.7289 16.1339 24.699 16.1126 24.6688C16.0913 24.6387 16.0703 24.6083 16.0497 24.5776C16.0291 24.5469 16.009 24.516 15.9891 24.4848C15.9693 24.4536 15.9498 24.4222 15.9308 24.3906C15.9117 24.3589 15.8931 24.327 15.8748 24.2949C15.8566 24.2628 15.8387 24.2305 15.8212 24.1979C15.8038 24.1653 15.7867 24.1326 15.7701 24.0996C15.7534 24.0666 15.7372 24.0334 15.7213 24C15.7055 23.9667 15.69 23.9331 15.675 23.8994C15.66 23.8656 15.6454 23.8317 15.6312 23.7975C15.617 23.7634 15.6033 23.7292 15.59 23.6947C15.5766 23.6602 15.5637 23.6256 15.5512 23.5909C15.5387 23.5561 15.5267 23.5212 15.5151 23.4861C15.5035 23.4511 15.4923 23.4159 15.4815 23.3805C15.4708 23.3452 15.4604 23.3097 15.4505 23.2741C15.4407 23.2385 15.4312 23.2028 15.4222 23.167C15.4132 23.1311 15.4046 23.0952 15.3965 23.0591C15.3884 23.0231 15.3807 22.987 15.3735 22.9508C15.3663 22.9145 15.3595 22.8782 15.3532 22.8418C15.3468 22.8054 15.3409 22.7689 15.3355 22.7324C15.3301 22.6959 15.3251 22.6593 15.3205 22.6226C15.316 22.5859 15.3119 22.5492 15.3083 22.5124C15.3046 22.4755 15.3014 22.4384 15.2986 22.4014C15.2958 22.3643 15.2935 22.3273 15.2916 22.2902C15.2897 22.2531 15.2883 22.2159 15.2874 22.1788C15.2864 22.1416 15.2859 22.1045 15.2859 22.0673C15.2859 22.0302 15.2863 21.993 15.2872 21.9559C15.2881 21.9187 15.2894 21.8816 15.2912 21.8445C15.293 21.8074 15.2953 21.7703 15.298 21.7332C15.3007 21.6962 15.3039 21.6591 15.3075 21.6222C15.3112 21.5852 15.3152 21.5483 15.3198 21.5114C15.3243 21.4745 15.3293 21.4377 15.3348 21.4009C15.3402 21.3642 15.3461 21.3275 15.3525 21.2909C15.3589 21.2543 15.3657 21.2178 15.373 21.1813C15.3802 21.1449 15.3879 21.1085 15.3961 21.0723C15.4042 21.036 15.4128 20.9999 15.4219 20.9638C15.431 20.9278 15.4405 20.8919 15.4504 20.8561C15.4603 20.8203 15.4707 20.7846 15.4816 20.7491C15.4924 20.7135 15.5036 20.6781 15.5153 20.6429C15.527 20.6076 15.5392 20.5725 15.5517 20.5375C15.5643 20.5025 15.5773 20.4677 15.5907 20.4331C15.6042 20.3984 15.618 20.364 15.6323 20.3297C15.6466 20.2954 15.6613 20.2612 15.6764 20.2273C15.6915 20.1933 15.7071 20.1596 15.723 20.1261C15.739 20.0925 15.7553 20.0591 15.7721 20.026C15.7889 19.9928 15.8061 19.9599 15.8237 19.9272C15.8413 19.8944 15.8593 19.8619 15.8776 19.8297C15.8961 19.7974 15.9149 19.7653 15.9341 19.7335C15.9532 19.7017 15.9728 19.6701 15.9928 19.6388C16.0127 19.6074 16.0331 19.5764 16.0539 19.5455C16.0746 19.5147 16.0957 19.4841 16.1172 19.4538C16.1387 19.4235 16.1605 19.3934 16.1828 19.3637C16.205 19.3339 16.2276 19.3044 16.2506 19.2752C16.2735 19.246 16.2969 19.2171 16.3205 19.1884C17.1092 18.2402 18.1589 17.7334 19.3749 17.6249Z" fill="#5252C7"/>
<path d="M22.3493 19.2041C23.0975 19.8785 23.5726 20.7887 23.6232 21.8012C23.6761 22.8605 23.3303 23.8922 22.6154 24.6825C21.9419 25.4271 20.9292 25.9066 19.9265 25.9514C18.9445 25.9952 17.9212 25.6264 17.1987 24.9573C16.8576 24.6414 16.4833 24.2123 16.3134 23.7732C16.47 23.8261 16.6873 24.0504 16.8349 24.1536C17.0381 24.2955 17.2499 24.4314 17.4693 24.547C18.2734 24.9702 19.347 25.0504 20.2105 24.7808C21.1958 24.4732 21.9674 23.8907 22.4508 22.965C22.8862 22.1314 23.0073 21.0173 22.7163 20.1184C22.6169 19.8115 22.4472 19.5288 22.3549 19.2232C22.3529 19.2169 22.3512 19.2105 22.3493 19.2041Z" fill="#F5D89F"/>
<path d="M16.3134 23.7729C16.0447 23.44 15.9075 22.6514 15.8846 22.2316C15.8831 22.2003 15.8819 22.169 15.8812 22.1377C15.8805 22.1064 15.8801 22.075 15.8802 22.0437C15.8802 22.0124 15.8806 21.981 15.8814 21.9497C15.8823 21.9184 15.8834 21.8871 15.885 21.8558C15.8866 21.8245 15.8886 21.7932 15.8909 21.762C15.8932 21.7307 15.896 21.6995 15.8991 21.6684C15.9022 21.6372 15.9056 21.6061 15.9095 21.575C15.9134 21.5439 15.9176 21.5128 15.9223 21.4818C15.9269 21.4508 15.9319 21.4199 15.9373 21.3891C15.9427 21.3582 15.9484 21.3274 15.9546 21.2967C15.9607 21.2659 15.9672 21.2353 15.9741 21.2047C15.981 21.1742 15.9883 21.1437 15.9959 21.1133C16.0036 21.0829 16.0116 21.0526 16.02 21.0225C16.0283 20.9923 16.0371 20.9622 16.0462 20.9322C16.0553 20.9022 16.0648 20.8724 16.0746 20.8426C16.0845 20.8129 16.0947 20.7833 16.1053 20.7538C16.1159 20.7243 16.1268 20.6949 16.1381 20.6657C16.1494 20.6365 16.1611 20.6074 16.1731 20.5784C16.1851 20.5495 16.1974 20.5207 16.2102 20.4921C16.2229 20.4635 16.2359 20.435 16.2494 20.4067C16.2628 20.3783 16.2765 20.3502 16.2906 20.3222C16.3047 20.2943 16.3192 20.2665 16.3339 20.2388C16.3487 20.2112 16.3639 20.1838 16.3793 20.1565C16.3948 20.1293 16.4106 20.1022 16.4267 20.0753C16.4428 20.0485 16.4592 20.0218 16.476 19.9954C16.4928 19.9689 16.5099 19.9426 16.5273 19.9166C16.5447 19.8905 16.5625 19.8647 16.5805 19.8391C16.5986 19.8135 16.617 19.7881 16.6356 19.7629C16.6543 19.7378 16.6733 19.7129 16.6925 19.6882C16.7118 19.6635 16.7314 19.639 16.7513 19.6148C16.7712 19.5906 16.7914 19.5666 16.8118 19.5429C16.8323 19.5192 16.8531 19.4957 16.8741 19.4725C17.578 18.6972 18.6018 18.2516 19.6438 18.2059C20.6653 18.1612 21.6008 18.5136 22.3493 19.2038C22.3511 19.2102 22.3529 19.2166 22.3548 19.2229C22.4472 19.5285 22.6169 19.8112 22.7162 20.1181C23.0073 21.017 22.8861 22.1311 22.4508 22.9647C21.9674 23.8904 21.1957 24.4729 20.2105 24.7805C19.347 25.05 18.2734 24.9699 17.4693 24.5466C17.2499 24.4311 17.0381 24.2952 16.8349 24.1532C16.6873 24.0501 16.47 23.8258 16.3134 23.7729Z" fill="white"/>
<path d="M19.9985 22.5703C20.1098 22.6055 20.2208 22.6536 20.3143 22.7245C20.3786 22.7733 20.4316 22.8389 20.4409 22.9214C20.4529 23.0281 20.3844 23.1044 20.3237 23.1834C20.2226 23.2587 20.1166 23.3001 19.9994 23.3422L19.9985 22.5703Z" fill="white"/>
<g clip-path="url(#clip0_806_2181)">
<path d="M21.1875 21.2415C21.1666 21.2603 21.1396 21.271 21.1115 21.2715H18.4407C18.3458 21.2715 18.298 21.1632 18.3637 21.0998L18.8023 20.6768C18.8227 20.6572 18.8498 20.646 18.8782 20.6455H21.5595C21.6552 20.6455 21.702 20.7548 21.6355 20.8185L21.1875 21.2415Z" fill="url(#paint3_linear_806_2181)"/>
<path d="M21.1875 23.3265C21.1665 23.345 21.1395 23.3554 21.1115 23.3556H18.4407C18.3458 23.3556 18.298 23.2481 18.3637 23.1846L18.8023 22.7606C18.8228 22.7412 18.85 22.7304 18.8782 22.7305H21.5595C21.6552 22.7305 21.702 22.8388 21.6355 22.9021L21.1875 23.3265Z" fill="url(#paint4_linear_806_2181)"/>
<path d="M21.1875 21.7176C21.1665 21.6991 21.1395 21.6888 21.1115 21.6885H18.4407C18.3458 21.6885 18.298 21.796 18.3637 21.8593L18.8023 22.2835C18.8232 22.3023 18.8501 22.3129 18.8782 22.3135H21.5595C21.6552 22.3135 21.702 22.2051 21.6355 22.1418L21.1875 21.7176Z" fill="url(#paint5_linear_806_2181)"/>
</g>
<defs>
<linearGradient id="paint0_linear_806_2181" x1="18.7796" y1="33.1794" x2="24.5936" y2="12.72" gradientUnits="userSpaceOnUse">
<stop stop-color="#706E76"/>
<stop offset="1" stop-color="#86878A"/>
</linearGradient>
<linearGradient id="paint1_linear_806_2181" x1="25.7265" y1="32.6895" x2="13.3501" y2="11.5534" gradientUnits="userSpaceOnUse">
<stop stop-color="#9292A0"/>
<stop offset="1" stop-color="#AFB1C3"/>
</linearGradient>
<linearGradient id="paint2_linear_806_2181" x1="29.656" y1="21.7877" x2="31.2114" y2="21.766" gradientUnits="userSpaceOnUse">
<stop stop-color="#2B2767"/>
<stop offset="1" stop-color="#41406D"/>
</linearGradient>
<linearGradient id="paint3_linear_806_2181" x1="18.3335" y1="29.9708" x2="21.7517" y2="29.9395" gradientUnits="userSpaceOnUse">
<stop stop-color="#599DB0"/>
<stop offset="1" stop-color="#47F8C3"/>
</linearGradient>
<linearGradient id="paint4_linear_806_2181" x1="18.3335" y1="21.4763" x2="21.7298" y2="21.4503" gradientUnits="userSpaceOnUse">
<stop stop-color="#C44FE2"/>
<stop offset="1" stop-color="#73B0D0"/>
</linearGradient>
<linearGradient id="paint5_linear_806_2181" x1="18.5253" y1="22.001" x2="21.5375" y2="22.001" gradientUnits="userSpaceOnUse">
<stop stop-color="#778CBF"/>
<stop offset="1" stop-color="#5DCDC9"/>
</linearGradient>
<clipPath id="clip0_806_2181">
<rect width="4" height="4" fill="white" transform="translate(18 20)"/>
</clipPath>
</defs>
</svg>
