<svg width="48" height="48" viewBox="0 0 48 48" fill="none" xmlns="http://www.w3.org/2000/svg">
<g id="ArrowLeft" filter="url(#filter0_d_806_2540)">
<rect x="3" y="1" width="42" height="42" rx="21" fill="white"/>
<path id="Vector" d="M32.5 21.0006V30.0006C32.5 30.3984 32.342 30.7799 32.0607 31.0612C31.7794 31.3426 31.3978 31.5006 31 31.5006H17.5C17.1022 31.5006 16.7206 31.3426 16.4393 31.0612C16.158 30.7799 16 30.3984 16 30.0006V21.0006C16 20.6028 16.158 20.2212 16.4393 19.9399C16.7206 19.6586 17.1022 19.5006 17.5 19.5006H19.75C19.9489 19.5006 20.1397 19.5796 20.2803 19.7203C20.421 19.8609 20.5 20.0517 20.5 20.2506C20.5 20.4495 20.421 20.6403 20.2803 20.7809C20.1397 20.9216 19.9489 21.0006 19.75 21.0006H17.5V30.0006H31V21.0006H28.75C28.5511 21.0006 28.3603 20.9216 28.2197 20.7809C28.079 20.6403 28 20.4495 28 20.2506C28 20.0517 28.079 19.8609 28.2197 19.7203C28.3603 19.5796 28.5511 19.5006 28.75 19.5006H31C31.3978 19.5006 31.7794 19.6586 32.0607 19.9399C32.342 20.2212 32.5 20.6028 32.5 21.0006ZM21.0306 17.0312L23.5 14.5609V23.2506C23.5 23.4495 23.579 23.6403 23.7197 23.7809C23.8603 23.9216 24.0511 24.0006 24.25 24.0006C24.4489 24.0006 24.6397 23.9216 24.7803 23.7809C24.921 23.6403 25 23.4495 25 23.2506V14.5609L27.4694 17.0312C27.6101 17.1719 27.801 17.251 28 17.251C28.199 17.251 28.3899 17.1719 28.5306 17.0312C28.6714 16.8905 28.7504 16.6996 28.7504 16.5006C28.7504 16.3016 28.6714 16.1107 28.5306 15.97L24.7806 12.22C24.711 12.1502 24.6283 12.0949 24.5372 12.0572C24.4462 12.0194 24.3486 12 24.25 12C24.1514 12 24.0538 12.0194 23.9628 12.0572C23.8717 12.0949 23.789 12.1502 23.7194 12.22L19.9694 15.97C19.8286 16.1107 19.7496 16.3016 19.7496 16.5006C19.7496 16.6996 19.8286 16.8905 19.9694 17.0312C20.1101 17.1719 20.301 17.251 20.5 17.251C20.699 17.251 20.8899 17.1719 21.0306 17.0312Z" fill="black"/>
</g>
<defs>
<filter id="filter0_d_806_2540" x="0" y="0" width="48" height="48" filterUnits="userSpaceOnUse" color-interpolation-filters="sRGB">
<feFlood flood-opacity="0" result="BackgroundImageFix"/>
<feColorMatrix in="SourceAlpha" type="matrix" values="0 0 0 0 0 0 0 0 0 0 0 0 0 0 0 0 0 0 127 0" result="hardAlpha"/>
<feOffset dy="2"/>
<feGaussianBlur stdDeviation="1.5"/>
<feComposite in2="hardAlpha" operator="out"/>
<feColorMatrix type="matrix" values="0 0 0 0 0 0 0 0 0 0 0 0 0 0 0 0 0 0 0.35 0"/>
<feBlend mode="normal" in2="BackgroundImageFix" result="effect1_dropShadow_806_2540"/>
<feBlend mode="normal" in="SourceGraphic" in2="effect1_dropShadow_806_2540" result="shape"/>
</filter>
</defs>
</svg>
