<svg width="24" height="20" viewBox="0 0 24 20" fill="none" xmlns="http://www.w3.org/2000/svg">
<path d="M21.2203 0.174909H2.77969C1.24219 0.174909 0 1.42178 0 2.9546V14.4202C0 15.953 1.24219 17.1952 2.77969 17.1952H8.775L10.9781 19.3983C11.5453 19.9655 12.4641 19.9655 13.0312 19.3983L15.2344 17.1952H21.225C22.7578 17.1952 24.0047 15.953 24.0047 14.4202V2.9546C24 1.42178 22.7578 0.174909 21.2203 0.174909Z" fill="#FEC93D"/>
<path d="M10.1484 8.34053C11.2073 8.34053 12.0656 7.48218 12.0656 6.42335C12.0656 5.36451 11.2073 4.50616 10.1484 4.50616C9.0896 4.50616 8.23125 5.36451 8.23125 6.42335C8.23125 7.48218 9.0896 8.34053 10.1484 8.34053Z" fill="white"/>
<path d="M8.27344 9.1046H12.0187C12.9375 9.1046 13.6828 9.84991 13.6875 10.7687V10.7733V12.053C13.6875 12.4983 13.3266 12.8593 12.8812 12.8593H7.41562C6.97031 12.8593 6.60938 12.4983 6.60938 12.053V10.7733C6.60938 9.84991 7.35469 9.1046 8.27344 9.1046Z" fill="white"/>
<path d="M16.6594 6.58741H16.1484V6.07178C16.1484 5.66866 15.8203 5.34053 15.4172 5.34053C15.0141 5.34053 14.6859 5.66866 14.6859 6.07178V6.58741H14.1703C13.7672 6.58741 13.4391 6.91553 13.4391 7.31866C13.4391 7.72178 13.7672 8.04991 14.1703 8.04991H14.6859V8.56085C14.6859 8.96397 15.0141 9.2921 15.4172 9.2921C15.8203 9.2921 16.1484 8.96397 16.1484 8.56085V8.04991H16.6641C17.0672 8.04991 17.3953 7.72178 17.3953 7.31866C17.3906 6.91553 17.0625 6.58741 16.6594 6.58741Z" fill="white"/>
</svg>
