<svg width="19" height="18" viewBox="0 0 19 18" fill="none" xmlns="http://www.w3.org/2000/svg">
<path d="M14.9737 4.55556V1.88889C14.9737 1.65314 14.885 1.42705 14.727 1.26035C14.5691 1.09365 14.3549 1 14.1316 1H3.18421C2.73753 1 2.30914 1.1873 1.99329 1.5207C1.67744 1.8541 1.5 2.30628 1.5 2.77778M1.5 2.77778C1.5 3.24927 1.67744 3.70146 1.99329 4.03486C2.30914 4.36825 2.73753 4.55556 3.18421 4.55556H15.8158C16.0391 4.55556 16.2533 4.64921 16.4112 4.81591C16.5692 4.9826 16.6579 5.2087 16.6579 5.44444V9M1.5 2.77778V15.2222C1.5 15.6937 1.67744 16.1459 1.99329 16.4793C2.30914 16.8127 2.73753 17 3.18421 17H15.8158C16.0391 17 16.2533 16.9064 16.4112 16.7397C16.5692 16.573 16.6579 16.3469 16.6579 16.1111V12.5556M16.6579 9H14.1316C13.6849 9 13.2565 9.1873 12.9407 9.5207C12.6248 9.8541 12.4474 10.3063 12.4474 10.7778C12.4474 11.2493 12.6248 11.7015 12.9407 12.0349C13.2565 12.3683 13.6849 12.5556 14.1316 12.5556H16.6579M16.6579 9C16.8812 9 17.0954 9.09365 17.2534 9.26035C17.4113 9.42705 17.5 9.65314 17.5 9.88889V11.6667C17.5 11.9024 17.4113 12.1285 17.2534 12.2952C17.0954 12.4619 16.8812 12.5556 16.6579 12.5556" stroke="black" stroke-width="2" stroke-linecap="round" stroke-linejoin="round"/>
</svg>
